<?xml version="1.0" standalone="no"?>
<!DOCTYPE svg PUBLIC "-//W3C//DTD SVG 1.1//EN" "http://www.w3.org/Graphics/SVG/1.1/DTD/svg11.dtd" >
<svg xmlns="http://www.w3.org/2000/svg" xmlns:xlink="http://www.w3.org/1999/xlink" version="1.1">
<metadata>
Created by FontForge 20170731 at Fri Feb 10 18:21:29 2023
 By Aleksey,,,
Copyright 2012 The Orienta Project Authors (https://github.com/etunni/orienta) with Reserved Font Name 'Orienta'
</metadata>
<defs>
<font id="Orienta-Regular" horiz-adv-x="296" >
  <font-face 
    font-family="Orienta"
    font-weight="400"
    font-stretch="normal"
    units-per-em="1000"
    panose-1="0 0 0 0 0 0 0 0 0 0"
    ascent="800"
    descent="-200"
    x-height="530"
    cap-height="700"
    bbox="-84 -301 1219 1030"
    underline-thickness="50"
    underline-position="-175"
    unicode-range="U+0020-FB02"
  />
<missing-glyph horiz-adv-x="746" 
d="M150 -100v900h446v-900h-446zM241 -14h264v728h-264v-728z" />
    <glyph glyph-name="fi" unicode="fi" horiz-adv-x="676" 
d="M131 0v460h-76v70h76v61q0 94 41 134t117 40q50 0 85 -21t57 -80l-80 -27q-9 24 -23 37t-40 13q-30 0 -45.5 -20.5t-15.5 -65.5v-71h130v-70h-130v-460h-96zM528 630q-28 0 -46.5 16.5t-18.5 50.5q0 35 18.5 51t46.5 16q29 0 47.5 -16t18.5 -51q0 -34 -18.5 -50.5
t-47.5 -16.5zM480 0v530h96v-530h-96z" />
    <glyph glyph-name="fl" unicode="fl" horiz-adv-x="676" 
d="M131 0v460h-76v70h76v61q0 94 41 134t117 40q50 0 85 -21t57 -80l-80 -27q-9 24 -23 37t-40 13q-30 0 -45.5 -20.5t-15.5 -65.5v-71h130v-70h-130v-460h-96zM575 -15q-39 0 -67 21t-28 82v662h96v-665q0 -16 6.5 -21.5t17.5 -5.5q18 0 36 9l16 -62q-16 -7 -35 -13.5
t-42 -6.5z" />
    <glyph glyph-name=".notdef" horiz-adv-x="746" 
d="M150 -100v900h446v-900h-446zM241 -14h264v728h-264v-728z" />
    <glyph glyph-name=".null" horiz-adv-x="0" 
 />
    <glyph glyph-name="nonmarkingreturn" horiz-adv-x="333" 
 />
    <glyph glyph-name="space" unicode=" " horiz-adv-x="270" 
 />
    <glyph glyph-name="exclam" unicode="!" horiz-adv-x="333" 
d="M134 218l-15 212v320h95l-1 -320l-15 -212h-64zM166 -15q-28 0 -47 16.5t-19 51.5t19 51.5t47 16.5q29 0 48 -16.5t19 -51.5t-19 -51.5t-48 -16.5z" />
    <glyph glyph-name="quotedbl" unicode="&#x22;" horiz-adv-x="366" 
d="M235 515l-15 235h96l-15 -235h-66zM65 515l-15 235h96l-15 -235h-66z" />
    <glyph glyph-name="numbersign" unicode="#" horiz-adv-x="638" 
d="M88 -15l42 205h-100l17 80h99l25 120h-101l17 80h100l42 205h81l-43 -205h160l42 205h81l-43 -205h101l-17 -80h-100l-25 -120h100l-17 -80h-100l-42 -205h-79l42 205h-161l-42 -205h-79zM226 270h160l25 120h-160z" />
    <glyph glyph-name="dollar" unicode="$" horiz-adv-x="566" 
d="M248 -121v107q-76 7 -126 51.5t-72 134.5l83 30q29 -114 115 -134v228q-44 19 -85 43t-67 61.5t-26 95.5q0 34 17 71.5t56 66.5t105 38v107h76v-105q71 -6 118.5 -41.5t68.5 -109.5l-84 -30q-27 79 -103 99v-228q46 -20 89.5 -43.5t71.5 -59t28 -90.5q0 -36 -18 -75
t-59.5 -69.5t-111.5 -38.5v-109h-76zM166 501q0 -36 23 -60t59 -43v196q-38 -7 -60 -31t-22 -62zM416 157q0 38 -26.5 62.5t-65.5 43.5v-197q41 8 66.5 32.5t25.5 58.5z" />
    <glyph glyph-name="percent" unicode="%" horiz-adv-x="877" 
d="M277 -15l242 690h81l-244 -690h-79zM196 253q-67 0 -111.5 53t-44.5 159q0 104 44.5 156.5t111.5 52.5q65 0 110.5 -52.5t45.5 -156.5q0 -106 -45.5 -159t-110.5 -53zM196 317q35 0 58.5 36t23.5 112q0 74 -23.5 110t-58.5 36q-36 0 -59 -36t-23 -110q0 -76 23 -112
t59 -36zM682 -15q-67 0 -111.5 53t-44.5 159q0 104 44.5 156.5t111.5 52.5q65 0 110.5 -52.5t45.5 -156.5q0 -106 -45.5 -159t-110.5 -53zM682 49q35 0 58.5 36t23.5 112q0 74 -23.5 110t-58.5 36q-36 0 -59 -36t-23 -110q0 -76 23 -112t59 -36z" />
    <glyph glyph-name="ampersand" unicode="&#x26;" horiz-adv-x="615" 
d="M256 -15q-75 0 -122.5 27t-70.5 71t-23 96q0 54 18.5 90.5t49.5 61.5t68 43q-25 41 -40 82t-15 80q0 58 28 97.5t72 60.5t91 21q46 0 86.5 -18.5t66.5 -55t26 -91.5q0 -53 -26 -90.5t-69.5 -65t-95.5 -51.5q32 -40 71 -78.5t77 -72.5q12 30 17 57t6 45t1 20h78
q0 -46 -9.5 -90.5t-29.5 -84.5q48 -38 81 -61l33 -23l-52 -64l-30.5 21.5t-77.5 58.5q-36 -39 -88 -62.5t-121 -23.5zM253 409q46 21 79 38.5t51 41t18 61.5q0 41 -27.5 64t-61.5 23q-37 0 -69 -26t-32 -75q0 -30 11.5 -62t30.5 -65zM256 63q52 0 88 17t60 42q-46 40 -94 87
t-88 99q-38 -19 -65 -48t-27 -81q0 -46 30 -81t96 -35z" />
    <glyph glyph-name="quotesingle" unicode="'" horiz-adv-x="196" 
d="M65 515l-15 235h96l-15 -235h-66z" />
    <glyph glyph-name="parenleft" unicode="(" horiz-adv-x="371" 
d="M321 -106q-66 0 -118.5 48t-82.5 145t-30 244q0 146 30 242.5t82.5 144t118.5 47.5v-88q-38 0 -68 -35t-46.5 -111t-16.5 -200q0 -125 16.5 -202t46.5 -112t68 -35v-88z" />
    <glyph glyph-name="parenright" unicode=")" horiz-adv-x="371" 
d="M50 -106v88q39 0 68.5 35t46 112t16.5 202q0 124 -16.5 200t-46 111t-68.5 35v88q66 0 118.5 -47.5t82.5 -144t30 -242.5q0 -147 -30 -244t-82.5 -145t-118.5 -48z" />
    <glyph glyph-name="asterisk" unicode="*" horiz-adv-x="517" 
d="M227 599l-13 151h90l-14 -151h-63zM201 533l-151 35l29 86l140 -61zM317 533l-19 60l141 61l28 -86zM343 355l-80 132l52 36l100 -115zM175 355l-73 53l102 114l50 -35z" />
    <glyph glyph-name="plus" unicode="+" horiz-adv-x="542" 
d="M231 139v151h-151v80h151v151h80v-151h151v-80h-151v-151h-80z" />
    <glyph glyph-name="comma" unicode="," horiz-adv-x="233" 
d="M92 -168l-45 30q14 20 24.5 45.5t10.5 49.5q0 22 -8 35l-16 26t-8 35q0 35 19 51.5t47 16.5q29 0 48 -16.5t19 -51.5t-13 -76.5t-34 -79.5t-44 -65z" />
    <glyph glyph-name="hyphen" unicode="-" horiz-adv-x="422" 
d="M55 266v70h312v-70h-312z" />
    <glyph glyph-name="period" unicode="." horiz-adv-x="233" 
d="M116 -15q-28 0 -47 16.5t-19 51.5t19 51.5t47 16.5q29 0 48 -16.5t19 -51.5t-19 -51.5t-48 -16.5z" />
    <glyph glyph-name="slash" unicode="/" horiz-adv-x="382" 
d="M0 -15l306 730h76l-307 -730h-75z" />
    <glyph glyph-name="zero" unicode="0" horiz-adv-x="623" 
d="M311 -15q-72 0 -129 39t-89.5 116t-32.5 191t32.5 190.5t89.5 115t129 38.5t129 -38.5t90 -115t33 -190.5t-33 -191t-90 -116t-129 -39zM311 63q68 0 111.5 66t43.5 202q0 135 -43.5 200.5t-111.5 65.5q-67 0 -110.5 -65.5t-43.5 -200.5q0 -136 43.5 -202t110.5 -66z" />
    <glyph glyph-name="one" unicode="1" horiz-adv-x="481" 
d="M105 0v78h110v433q-43 -42 -116 -64l-29 80q35 11 69.5 31.5t60.5 47.5t35 54h76v-582h110v-78h-316z" />
    <glyph glyph-name="two" unicode="2" horiz-adv-x="570" 
d="M75 0v40q0 49 23.5 90t60 77.5t77.5 71t77.5 68.5t60 70t23.5 76q0 44 -32 74.5t-80 30.5q-53 0 -83 -29.5t-43 -100.5l-87 21q16 84 67 135t136 51q82 0 129 -26t67 -66t21 -82q0 -58 -26.5 -105.5t-68 -88.5t-85.5 -78t-80.5 -73.5t-53.5 -77.5h320v-78h-423z" />
    <glyph glyph-name="three" unicode="3" horiz-adv-x="553" 
d="M258 -15q-45 0 -87 13.5t-73.5 43t-46.5 76.5l83 28q11 -40 47.5 -61.5t74.5 -21.5q62 0 97 27.5t35 78.5q0 34 -15 62t-48.5 45.5t-89.5 17.5q-29 0 -64 -6v69h12q58 2 95 15.5t57.5 35t28.5 45t8 44.5q0 43 -30.5 72t-77.5 29q-45 0 -76 -27.5t-45 -92.5l-86 21
q17 80 70.5 128t129.5 48q82 0 127.5 -26t64 -66t18.5 -82q0 -46 -30.5 -87.5t-81.5 -69.5q68 -22 100.5 -70t32.5 -100q0 -46 -25 -89.5t-76 -71.5t-129 -28z" />
    <glyph glyph-name="four" unicode="4" horiz-adv-x="530" 
d="M322 0v141h-312v44l273 475h135v-441h82v-78h-82v-141h-96zM119 219h203v353z" />
    <glyph glyph-name="five" unicode="5" horiz-adv-x="553" 
d="M258 -15q-45 0 -87 13.5t-73.5 43t-46.5 76.5l83 28q11 -40 47.5 -61.5t74.5 -21.5q62 0 97 31t35 89q0 38 -15 70t-48.5 51.5t-89.5 19.5q-45 0 -110 -17l-30 30l7 323h345v-78h-260l-6 -194q44 9 81 9q79 0 128.5 -30t73.5 -78t24 -101q0 -50 -25 -97t-76 -76.5
t-129 -29.5z" />
    <glyph glyph-name="six" unicode="6" horiz-adv-x="570" 
d="M290 -15q-107 0 -168.5 82t-61.5 243q0 121 35 202t94.5 122t134.5 41q64 0 110 -24t72 -81l-81 -41q-16 34 -43 51t-59 17q-70 0 -117 -66t-49 -204q29 40 72 58.5t89 18.5q51 0 97.5 -22.5t76 -65.5t29.5 -105q0 -55 -26 -107t-77.5 -85.5t-127.5 -33.5zM300 63
q36 0 65 18t46.5 48.5t17.5 67.5q0 38 -17.5 68.5t-46.5 48.5t-65 18q-35 0 -64.5 -18t-46.5 -48.5t-17 -68.5q0 -37 17 -67.5t46.5 -48.5t64.5 -18z" />
    <glyph glyph-name="seven" unicode="7" horiz-adv-x="450" 
d="M77 0l255 582h-322v78h430v-44l-268 -616h-95z" />
    <glyph glyph-name="eight" unicode="8" horiz-adv-x="594" 
d="M297 -15q-58 0 -109 20t-83 63.5t-32 113.5q0 25 7 55t27.5 59t60.5 51q-31 20 -48.5 46t-24.5 52.5t-7 45.5q0 67 30.5 107t78.5 58.5t100 18.5t100 -18.5t78.5 -59t30.5 -107.5q0 -19 -7 -45.5t-24.5 -53t-48.5 -46.5q41 -22 61 -50.5t27 -57.5t7 -55q0 -70 -32 -113.5
t-83 -63.5t-109 -20zM296 379q48 0 81.5 33t33.5 81t-33.5 81.5t-81.5 33.5t-81 -33.5t-33 -81.5t33 -81t81 -33zM296 58q35 0 63.5 16.5t45 44.5t16.5 63t-16.5 63.5t-45 45t-63.5 16.5t-63 -16.5t-44.5 -45t-16.5 -63.5q0 -52 36 -88t88 -36z" />
    <glyph glyph-name="nine" unicode="9" horiz-adv-x="570" 
d="M257 -15q-64 0 -112.5 24t-74.5 81l81 41q16 -34 45.5 -51t61.5 -17q69 0 117 64t52 197q-28 -40 -71 -58t-96 -18q-67 0 -110.5 30t-65 76.5t-21.5 94.5q0 55 25.5 107t76 85.5t126.5 33.5q107 0 168.5 -82t61.5 -243q0 -120 -35 -201.5t-94.5 -122.5t-134.5 -41z
M285 320q36 0 65.5 18.5t47 50t17.5 69.5q0 39 -17.5 70.5t-47 50t-65.5 18.5t-65.5 -18.5t-46.5 -50t-17 -70.5q0 -38 17 -69.5t46.5 -50t65.5 -18.5z" />
    <glyph glyph-name="colon" unicode=":" horiz-adv-x="233" 
d="M116 -15q-28 0 -47 16.5t-19 51.5t19 51.5t47 16.5q29 0 48 -16.5t19 -51.5t-19 -51.5t-48 -16.5zM116 364q-28 0 -47 16.5t-19 51.5t19 51.5t47 16.5q29 0 48 -16.5t19 -51.5t-19 -51.5t-48 -16.5z" />
    <glyph glyph-name="semicolon" unicode=";" horiz-adv-x="233" 
d="M92 -168l-45 30q14 20 24.5 45.5t10.5 49.5q0 22 -8 35l-16 26t-8 35q0 35 19 51.5t47 16.5q29 0 48 -16.5t19 -51.5t-13 -76.5t-34 -79.5t-44 -65zM116 364q-28 0 -47 16.5t-19 51.5t19 51.5t47 16.5q29 0 48 -16.5t19 -51.5t-19 -51.5t-48 -16.5z" />
    <glyph glyph-name="less" unicode="&#x3c;" horiz-adv-x="542" 
d="M462 130l-382 161v78l382 161v-80l-289 -120l289 -120v-80z" />
    <glyph glyph-name="equal" unicode="=" horiz-adv-x="542" 
d="M80 390v80h382v-80h-382zM80 190v80h382v-80h-382z" />
    <glyph glyph-name="greater" unicode="&#x3e;" horiz-adv-x="542" 
d="M80 130v80l288 120l-288 120v80l382 -161v-78z" />
    <glyph glyph-name="question" unicode="?" horiz-adv-x="490" 
d="M191 218q-1 6 -1 12v12q0 52 14.5 90.5t36 69t43.5 58.5t36.5 57.5t14.5 65.5q0 44 -28 74.5t-70 30.5q-46 0 -72.5 -28t-37.5 -87l-87 21q15 73 65.5 122t132.5 49q73 0 114.5 -26t59.5 -66t18 -82q0 -50 -17.5 -90.5t-43.5 -75t-52.5 -67t-44 -66.5t-17.5 -74h-64z
M223 -15q-28 0 -47 16.5t-19 51.5t19 51.5t47 16.5q29 0 48 -16.5t19 -51.5t-19 -51.5t-48 -16.5z" />
    <glyph glyph-name="at" unicode="@" horiz-adv-x="1077" 
d="M539 -186q-95 0 -178 29t-146.5 87t-99 143.5t-35.5 199.5t35.5 199.5t99 143t146.5 86.5t178 29t178 -29t146 -86.5t98.5 -143t35.5 -199.5q0 -76 -19.5 -141t-53 -114t-77 -76t-91.5 -27q-71 0 -107.5 56.5t-36.5 153.5q-55 -98 -145 -98q-67 0 -105.5 45.5
t-38.5 135.5q0 98 31 164t81.5 99.5t110.5 33.5q35 0 65.5 -12t52.5 -32q13 21 29 44l49 -10q-11 -42 -24 -103t-22 -127t-9 -124q0 -67 17 -111.5t62 -44.5q28 0 54 25t46 66.5t32 93t12 103.5q0 92 -29 163t-80 119.5t-118 73.5t-144 25t-144.5 -25t-118.5 -73.5
t-80 -119.5t-29 -163t29 -163.5t80 -120t118.5 -73.5t144.5 -25q30 0 57 3l6 -77q-31 -3 -63 -3zM488 98q18 0 40 14t44 47.5t39 93t24 150.5q-16 14 -39 24t-52 10q-32 0 -61.5 -24.5t-47.5 -73.5t-18 -122q0 -119 71 -119z" />
    <glyph glyph-name="A" unicode="A" horiz-adv-x="582" 
d="M15 0l200 700h152l200 -700h-94l-55 191h-255l-54 -191h-94zM186 269h210l-105 368z" />
    <glyph glyph-name="B" unicode="B" horiz-adv-x="601" 
d="M100 0v700h202q72 0 119.5 -27t71 -71t23.5 -96q0 -101 -86 -142q58 -19 87 -63t29 -106q0 -88 -53.5 -141.5t-160.5 -53.5h-232zM196 399h106q47 0 73.5 17.5t37 43.5t10.5 52q0 27 -10.5 52t-37 41.5t-73.5 16.5h-106v-223zM196 78h136q47 0 73.5 18.5t37 47t10.5 57.5
q0 30 -10.5 57.5t-37 45t-73.5 17.5h-136v-243z" />
    <glyph glyph-name="C" unicode="C" horiz-adv-x="600" 
d="M361 -15q-84 0 -150 41.5t-103.5 123t-37.5 201.5q0 121 38 201.5t103.5 121.5t147.5 41t138.5 -34t82.5 -118l-85 -31q-16 53 -51.5 79t-81.5 26q-83 0 -137.5 -70t-54.5 -216t55 -217t140 -71q53 0 98 21.5t72 49.5l46 -59q-37 -37 -94 -63.5t-126 -26.5z" />
    <glyph glyph-name="D" unicode="D" horiz-adv-x="684" 
d="M100 0v700h225q82 0 147.5 -39t103.5 -116.5t38 -193.5q0 -115 -37.5 -193.5t-103 -118t-150.5 -39.5h-223zM196 78h123q85 0 140 67t55 206t-54.5 205t-137.5 66h-126v-544z" />
    <glyph glyph-name="E" unicode="E" horiz-adv-x="555" 
d="M100 0v700h390v-78h-294v-233h264v-78h-264v-233h294v-78h-390z" />
    <glyph glyph-name="F" unicode="F" horiz-adv-x="490" 
d="M100 0v700h370v-78h-274v-233h244v-78h-244v-311h-96z" />
    <glyph glyph-name="G" unicode="G" horiz-adv-x="674" 
d="M361 -15q-84 0 -150 41.5t-103.5 123t-37.5 201.5q0 121 38 201.5t103.5 121.5t147.5 41t138.5 -34t82.5 -118l-85 -31q-16 53 -51.5 79t-81.5 26q-83 0 -137.5 -70t-54.5 -216t55 -217t140 -71q41 0 78 13.5t65 33.5v172h-119v78h205v-360h-46l-18 40
q-34 -24 -75.5 -39.5t-93.5 -15.5z" />
    <glyph glyph-name="H" unicode="H" horiz-adv-x="686" 
d="M100 0v700h96v-311h294v311h96v-700h-96v311h-294v-311h-96z" />
    <glyph glyph-name="I" unicode="I" 
d="M100 0v700h96v-700h-96z" />
    <glyph glyph-name="J" unicode="J" horiz-adv-x="425" 
d="M156 -15q-58 0 -101 31t-65 102l83 28q18 -83 83 -83q35 0 56.5 23t21.5 78v536h96v-501q0 -118 -43 -166t-131 -48z" />
    <glyph glyph-name="K" unicode="K" horiz-adv-x="561" 
d="M100 0v700h96v-326l245 326h105l-239 -313l254 -387h-105l-205 313l-55 -72v-241h-96z" />
    <glyph glyph-name="L" unicode="L" horiz-adv-x="450" 
d="M100 0v700h96v-622h244v-78h-340z" />
    <glyph glyph-name="M" unicode="M" horiz-adv-x="818" 
d="M100 0v700h136l173 -473l173 473h136v-700h-96v580l-176 -480h-74l-176 480v-580h-96z" />
    <glyph glyph-name="N" unicode="N" horiz-adv-x="696" 
d="M100 0v700h136l264 -578v578h96v-700h-136l-264 577v-577h-96z" />
    <glyph glyph-name="O" unicode="O" horiz-adv-x="724" 
d="M361 -15q-83 0 -149 41t-104 122.5t-38 202.5q0 120 38 201t104 122t149 41t149 -41t105 -122t39 -201q0 -121 -39 -202.5t-105 -122.5t-149 -41zM361 63q86 0 139.5 70.5t53.5 217.5q0 146 -53.5 216t-139.5 70q-84 0 -137.5 -70t-53.5 -216q0 -147 53.5 -217.5
t137.5 -70.5z" />
    <glyph glyph-name="P" unicode="P" horiz-adv-x="571" 
d="M100 0v700h202q80 0 133 -28.5t79.5 -78.5t26.5 -113q0 -64 -26.5 -113.5t-79.5 -77.5t-133 -28h-106v-261h-96zM196 339h106q57 0 88.5 21t44.5 53.5t13 66.5t-13 66.5t-44.5 54t-88.5 21.5h-106v-283z" />
    <glyph glyph-name="Q" unicode="Q" horiz-adv-x="724" 
d="M361 -15q-83 0 -149 41t-104 122.5t-38 202.5q0 120 38 201t104 122t149 41t149 -41t105 -122t39 -201q0 -138 -50 -224t-131 -120q33 -18 53 -50.5t20 -85.5l-58 -24h-24q0 42 -17 73t-41 48t-45 17zM361 63q86 0 139.5 70.5t53.5 217.5q0 146 -53.5 216t-139.5 70
q-84 0 -137.5 -70t-53.5 -216q0 -147 53.5 -217.5t137.5 -70.5z" />
    <glyph glyph-name="R" unicode="R" horiz-adv-x="611" 
d="M100 0v700h202q80 0 133 -28t79.5 -75.5t26.5 -106.5q0 -64 -30.5 -112.5t-91.5 -72.5q14 -10 22.5 -22.5t14.5 -24.5l125 -258h-105l-111 242q-12 26 -27 35t-35 9h-107v-286h-96zM196 364h106q57 0 88.5 19t44.5 49t13 61t-13 60.5t-44.5 49t-88.5 19.5h-106v-258z" />
    <glyph glyph-name="S" unicode="S" horiz-adv-x="566" 
d="M281 -15q-88 0 -148 43.5t-85 142.5l86 31q35 -139 156 -139q56 0 92 28.5t36 71.5q0 35 -19 59t-50 41.5t-68.5 33.5t-74.5 34.5t-68 44t-50 62.5t-19 89q0 30 11.5 63t37.5 61t68.5 46t105.5 18q83 0 138.5 -35.5t79.5 -116.5l-87 -31q-16 49 -52.5 77t-91.5 28
q-50 0 -82 -27t-32 -75q0 -41 25 -68t65 -47t84.5 -39t84.5 -44t65 -62t25 -93q0 -31 -12 -65.5t-39 -64.5t-71.5 -48.5t-110.5 -18.5z" />
    <glyph glyph-name="T" unicode="T" horiz-adv-x="474" 
d="M189 0v622h-184v78h464v-78h-184v-622h-96z" />
    <glyph glyph-name="U" unicode="U" horiz-adv-x="671" 
d="M335 -15q-70 0 -125.5 27t-87.5 82.5t-32 141.5v464h96v-464q0 -96 41 -136t108 -40q68 0 109 40t41 136v464h96v-464q0 -86 -32.5 -141.5t-88.5 -82.5t-125 -27z" />
    <glyph glyph-name="V" unicode="V" horiz-adv-x="562" 
d="M205 0l-185 700h94l167 -632l167 632h94l-185 -700h-152z" />
    <glyph glyph-name="W" unicode="W" horiz-adv-x="920" 
d="M185 0l-155 700h94l137 -622l147 622h104l146 -621l138 621h94l-155 -700h-142l-133 564l-133 -564h-142z" />
    <glyph glyph-name="X" unicode="X" horiz-adv-x="596" 
d="M30 0l213 356l-207 344h108l156 -260l155 260h105l-207 -348l213 -352h-108l-163 269l-160 -269h-105z" />
    <glyph glyph-name="Y" unicode="Y" horiz-adv-x="516" 
d="M210 0v260l-195 440h99l144 -339l144 339h99l-195 -440v-260h-96z" />
    <glyph glyph-name="Z" unicode="Z" horiz-adv-x="527" 
d="M35 0v44l333 578h-308v78h432v-44l-333 -578h326v-78h-450z" />
    <glyph glyph-name="bracketleft" unicode="[" horiz-adv-x="360" 
d="M100 -100v860h240v-78h-144v-704h144v-78h-240z" />
    <glyph glyph-name="backslash" unicode="\" horiz-adv-x="382" 
d="M307 -15l-307 730h76l306 -730h-75z" />
    <glyph glyph-name="bracketright" unicode="]" horiz-adv-x="360" 
d="M260 -100h-240v78h144v704h-144v78h240v-860z" />
    <glyph glyph-name="asciicircum" unicode="^" horiz-adv-x="542" 
d="M84 428l141 232h92l141 -232h-87l-100 167l-100 -167h-87z" />
    <glyph glyph-name="underscore" unicode="_" horiz-adv-x="470" 
d="M20 -85v70h430v-70h-430z" />
    <glyph glyph-name="grave" unicode="`" horiz-adv-x="419" 
d="M335 607l-215 110l41 73l206 -125z" />
    <glyph glyph-name="a" unicode="a" horiz-adv-x="567" 
d="M198 -15q-40 0 -72.5 20t-51.5 54t-19 76q0 82 56 128t153 46q27 0 54 -4t52 -12v63q0 52 -27 81.5t-75 29.5q-84 0 -109 -83l-83 28q40 133 192 133q104 0 151 -52.5t47 -171.5v-236q0 -16 7.5 -21.5t18.5 -5.5q8 0 17.5 2.5t16.5 6.5l16 -62q-16 -7 -35 -13.5t-42 -6.5
q-36 0 -60.5 18t-29.5 67q-31 -32 -75.5 -58.5t-101.5 -26.5zM227 63q38 0 75 19t68 50v97q-21 7 -45 11t-47 4q-33 0 -62 -9.5t-47 -31.5t-18 -60q0 -33 21 -56.5t55 -23.5z" />
    <glyph glyph-name="b" unicode="b" horiz-adv-x="625" 
d="M325 -15q-46 0 -85 17t-69 43l-25 -45h-46v750h96v-272q28 27 66.5 47t89.5 20q92 0 147.5 -70.5t55.5 -209.5q0 -92 -30.5 -154.5t-82.5 -94t-117 -31.5zM321 63q59 0 96.5 49.5t37.5 152.5t-34.5 152.5t-89.5 49.5q-40 0 -73.5 -16t-61.5 -43v-303q23 -18 55.5 -30
t69.5 -12z" />
    <glyph glyph-name="c" unicode="c" horiz-adv-x="528" 
d="M311 -15q-70 0 -124.5 31.5t-85.5 94t-31 154.5q0 93 31.5 155t86 93.5t122.5 31.5t116.5 -31t70.5 -102l-83 -28q-23 83 -102 83q-61 0 -101.5 -49.5t-40.5 -152.5t41 -152.5t104 -49.5q44 0 81 19.5t59 41.5l43 -52q-31 -35 -80 -61t-107 -26z" />
    <glyph glyph-name="d" unicode="d" horiz-adv-x="631" 
d="M273 -15q-91 0 -147 70.5t-56 209.5q0 93 30.5 155t83 93.5t116.5 31.5q37 0 69.5 -11.5t59.5 -29.5v246h96v-665q0 -16 7.5 -21.5t18.5 -5.5q8 0 17.5 2.5t16.5 6.5l16 -62q-16 -7 -35 -13.5t-42 -6.5q-34 0 -58 15.5t-30 58.5q-28 -30 -68.5 -52t-94.5 -22zM294 63
q39 0 73 16t62 42v304q-23 17 -55.5 29.5t-69.5 12.5q-58 0 -96 -49.5t-38 -152.5t34.5 -152.5t89.5 -49.5z" />
    <glyph glyph-name="e" unicode="e" horiz-adv-x="591" 
d="M315 -15q-71 0 -126.5 31.5t-87 94t-31.5 154.5q0 93 31.5 155t85.5 93.5t121 31.5q95 0 154 -59t59 -179v-70h-350q6 -88 46.5 -131t100.5 -43q51 0 89 19.5t60 41.5l43 -52q-31 -35 -81 -61t-114 -26zM172 307h254q0 77 -30.5 118.5t-86.5 41.5q-54 0 -91.5 -39.5
t-45.5 -120.5z" />
    <glyph glyph-name="f" unicode="f" horiz-adv-x="380" 
d="M131 0v460h-76v70h76v61q0 94 41 134t117 40q50 0 85 -21t57 -80l-80 -27q-9 24 -23 37t-40 13q-30 0 -45.5 -20.5t-15.5 -65.5v-71h130v-70h-130v-460h-96z" />
    <glyph glyph-name="g" unicode="g" horiz-adv-x="559" 
d="M292 -235q-242 0 -242 153q0 34 20 63t53 47q-36 33 -36 91q0 30 12 57t38 47q-22 24 -34.5 57t-12.5 73q0 61 26.5 103.5t72.5 65.5t104 23q49 0 91 -17q23 1 40 20t17 70h20l58 -20q0 -52 -18.5 -78.5t-50.5 -37.5q22 -24 34.5 -56.5t12.5 -72.5q0 -60 -27 -102.5
t-73 -65.5t-104 -23q-61 0 -108 24q-25 -23 -25 -58q0 -25 17 -41.5t53 -16.5h132q46 0 85 -14t63 -45t24 -83q0 -76 -61.5 -119.5t-180.5 -43.5zM293 230q27 0 52.5 13t42.5 40t17 70q0 44 -17 71t-42.5 40t-52.5 13q-26 0 -52 -13t-42.5 -40t-16.5 -71q0 -43 16.5 -70
t42.5 -40t52 -13zM292 -161q78 0 116 21t38 67q0 28 -14 41.5t-34 18.5t-40 5h-120q-34 0 -63 8q-14 -15 -25.5 -34.5t-11.5 -42.5q0 -84 154 -84z" />
    <glyph glyph-name="h" unicode="h" horiz-adv-x="616" 
d="M100 0v750h91v-292q30 41 72.5 64t89.5 23q94 0 133.5 -45.5t39.5 -153.5v-346h-96v356q0 111 -99 111q-83 0 -135 -70v-397h-96z" />
    <glyph glyph-name="i" unicode="i" 
d="M148 630q-28 0 -46.5 16.5t-18.5 50.5q0 35 18.5 51t46.5 16q29 0 47.5 -16t18.5 -51q0 -34 -18.5 -50.5t-47.5 -16.5zM100 0v530h96v-530h-96z" />
    <glyph glyph-name="j" unicode="j" 
d="M148 632q-25 0 -42 15t-17 46q0 32 17 46.5t42 14.5q26 0 43 -14.5t17 -46.5q0 -31 -17 -46t-43 -15zM44 -235q-45 0 -76.5 21.5t-51.5 79.5l80 27q8 -24 19.5 -37t33.5 -13q25 0 38 20.5t13 65.5v601h96v-591q0 -94 -40 -134t-112 -40z" />
    <glyph glyph-name="k" unicode="k" horiz-adv-x="522" 
d="M100 0v750h96v-422l181 202h105l-208 -230l228 -300h-105l-178 238l-23 -25v-213h-96z" />
    <glyph glyph-name="l" unicode="l" 
d="M195 -15q-39 0 -67 21t-28 82v662h96v-665q0 -16 6.5 -21.5t17.5 -5.5q18 0 36 9l16 -62q-16 -7 -35 -13.5t-42 -6.5z" />
    <glyph glyph-name="m" unicode="m" horiz-adv-x="916" 
d="M100 0v530h81l5 -62q29 30 68.5 53.5t87.5 23.5q61 0 98 -20t54 -65q29 33 70.5 59t92.5 26q91 0 130 -45.5t39 -153.5v-346h-96v356q0 111 -95 111q-34 0 -66.5 -16.5t-61.5 -45.5q2 -13 3 -27.5t1 -31.5v-346h-96v356q0 111 -95 111q-33 0 -64.5 -16t-59.5 -43v-408
h-96z" />
    <glyph glyph-name="n" unicode="n" horiz-adv-x="616" 
d="M100 0v530h81l5 -64q31 31 73 55t94 24q94 0 133.5 -45.5t39.5 -153.5v-346h-96v356q0 111 -101 111q-35 0 -69 -16t-64 -44v-407h-96z" />
    <glyph glyph-name="o" unicode="o" horiz-adv-x="623" 
d="M311 -15q-69 0 -123.5 31.5t-86 94t-31.5 154.5q0 93 31.5 155t86 93.5t123.5 31.5t123.5 -31.5t86.5 -93.5t32 -155q0 -92 -32 -154.5t-86.5 -94t-123.5 -31.5zM311 63q62 0 102 49.5t40 152.5t-40 152.5t-102 49.5q-61 0 -101 -49.5t-40 -152.5t40 -152.5t101 -49.5z
" />
    <glyph glyph-name="p" unicode="p" horiz-adv-x="625" 
d="M100 -235v765h81l5 -62q29 30 70 53.5t96 23.5q92 0 147.5 -70.5t55.5 -209.5q0 -92 -30.5 -154.5t-82.5 -94t-117 -31.5q-37 0 -69.5 11t-59.5 30v-261h-96zM321 63q59 0 96.5 49.5t37.5 152.5t-34.5 152.5t-89.5 49.5q-40 0 -73.5 -16t-61.5 -43v-303q23 -18 55.5 -30
t69.5 -12z" />
    <glyph glyph-name="q" unicode="q" horiz-adv-x="625" 
d="M429 -235v287q-28 -28 -66.5 -47.5t-89.5 -19.5q-91 0 -147 70.5t-56 209.5q0 93 30.5 155t83 93.5t116.5 31.5q44 0 83 -16.5t68 -41.5l28 58h46v-780h-96zM294 63q39 0 73 16t62 42v304q-23 17 -55.5 29.5t-69.5 12.5q-58 0 -96 -49.5t-38 -152.5t34.5 -152.5
t89.5 -49.5z" />
    <glyph glyph-name="r" unicode="r" horiz-adv-x="365" 
d="M100 0v530h81l5 -65q31 35 74 57t91 23l5 -72l-12 -11q-46 -1 -84 -16.5t-64 -42.5v-403h-96z" />
    <glyph glyph-name="s" unicode="s" horiz-adv-x="486" 
d="M250 -15q-85 0 -131 41t-63 112l83 28q7 -44 24.5 -67.5t42.5 -32t51 -8.5q34 0 60 17t26 51q0 26 -19.5 43.5t-50 32t-65 30t-65 37t-50 53.5t-19.5 79q0 31 17 64t57.5 56.5t109.5 23.5q68 0 114.5 -31t65.5 -102l-83 -28q-11 41 -36 64.5t-63 23.5t-64 -17t-26 -52
q0 -28 19.5 -47t50 -33.5t65 -29.5t65 -35t50 -50t19.5 -75q0 -67 -49.5 -107.5t-135.5 -40.5z" />
    <glyph glyph-name="t" unicode="t" horiz-adv-x="397" 
d="M239 -15q-52 0 -80 36t-28 103v336h-76v70h76v110l76 20h20v-130h140v-70h-140v-346q0 -48 47 -48q31 0 77 28l26 -60q-30 -22 -67.5 -35.5t-70.5 -13.5z" />
    <glyph glyph-name="u" unicode="u" horiz-adv-x="617" 
d="M241 -15q-79 0 -115 47.5t-36 138.5v359h96v-360q0 -53 19.5 -80t63.5 -27t80 16t66 43v408h96v-445q0 -16 7.5 -21.5t18.5 -5.5q8 0 17.5 2.5t16.5 6.5l16 -62q-16 -7 -35 -13.5t-42 -6.5q-34 0 -58.5 16t-30.5 60q-31 -30 -76 -53t-104 -23z" />
    <glyph glyph-name="v" unicode="v" horiz-adv-x="536" 
d="M205 0l-170 530h99l139 -441l139 441h89l-170 -530h-126z" />
    <glyph glyph-name="w" unicode="w" horiz-adv-x="813" 
d="M185 0l-140 530h97l114 -444l112 444h87l111 -444l115 444h87l-140 -530h-121l-96 372l-95 -372h-131z" />
    <glyph glyph-name="x" unicode="x" horiz-adv-x="506" 
d="M30 0l172 267l-167 263h105l117 -186l120 186h94l-167 -260l172 -270h-105l-123 193l-124 -193h-94z" />
    <glyph glyph-name="y" unicode="y" horiz-adv-x="536" 
d="M149 -235q-43 0 -80.5 20.5t-60.5 42.5l47 60q16 -16 37.5 -29t49.5 -13q31 0 50 18t19 56q0 27 -7 67t-21 81l-148 462h99l139 -460l139 460h89l-201 -626q-25 -78 -61.5 -108.5t-89.5 -30.5z" />
    <glyph glyph-name="z" unicode="z" horiz-adv-x="462" 
d="M45 0v50l258 405h-238v75h352v-50l-258 -405h253v-75h-367z" />
    <glyph glyph-name="braceleft" unicode="{" horiz-adv-x="360" 
d="M224 -106q-52 0 -86 21.5t-34 82.5q0 12 2.5 39.5t5.5 64.5t5.5 75.5t2.5 71.5q0 26 -17.5 38t-56.5 12v60q39 0 56.5 12.5t17.5 37.5q0 33 -2.5 71.5t-5.5 75.5t-5.5 64.5t-2.5 39.5q0 61 34 82.5t86 21.5q34 0 55.5 -3t50.5 -11l-10 -68q-22 4 -37.5 6t-29.5 2
q-28 0 -41 -10.5t-13 -36.5q0 -21 4.5 -59t8.5 -83.5t4 -91.5q0 -28 -12 -51.5t-53 -23.5v-10q41 0 53 -23.5t12 -51.5q0 -45 -4 -91t-8.5 -84t-4.5 -59q0 -25 13 -36t41 -11q14 0 29.5 2t37.5 6l10 -68q-29 -8 -50.5 -11t-55.5 -3z" />
    <glyph glyph-name="bar" unicode="|" horiz-adv-x="476" 
d="M200 -100v900h76v-900h-76z" />
    <glyph glyph-name="braceright" unicode="}" horiz-adv-x="360" 
d="M136 -106q-34 0 -55.5 3t-50.5 11l10 68q23 -4 38 -6t29 -2q29 0 41.5 11t12.5 36q0 21 -4 59t-8.5 84t-4.5 91q0 28 12.5 51.5t52.5 23.5v10q-40 0 -52.5 23.5t-12.5 51.5q0 46 4.5 91.5t8.5 83.5t4 59q0 26 -12.5 36.5t-41.5 10.5q-14 0 -29 -2t-38 -6l-10 68
q29 8 50.5 11t55.5 3q52 0 86 -21.5t34 -82.5q0 -12 -2.5 -39.5t-5.5 -64.5t-5.5 -75.5t-2.5 -71.5q0 -25 17.5 -37.5t56.5 -12.5v-60q-39 0 -56.5 -12t-17.5 -38q0 -33 2.5 -71.5t5.5 -75.5t5.5 -64.5t2.5 -39.5q0 -61 -34 -82.5t-86 -21.5z" />
    <glyph glyph-name="asciitilde" unicode="~" horiz-adv-x="542" 
d="M169 259q-24 0 -47 7.5t-42 23.5v80q41 -27 91 -27q37 0 68.5 14.5t64 29t69.5 14.5q24 0 47 -7.5t42 -23.5v-80q-40 27 -91 27q-36 0 -68 -14.5l-64 -29t-70 -14.5z" />
    <glyph glyph-name="uni00A0" unicode="&#xa0;" horiz-adv-x="270" 
 />
    <glyph glyph-name="exclamdown" unicode="&#xa1;" horiz-adv-x="333" 
d="M134 312h64l15 -212l1 -320h-95v320zM166 545q29 0 48 -16.5t19 -51.5t-19 -51.5t-48 -16.5q-28 0 -47 16.5t-19 51.5t19 51.5t47 16.5z" />
    <glyph glyph-name="cent" unicode="&#xa2;" horiz-adv-x="528" 
d="M268 -121v174q-88 14 -143 83.5t-55 193.5t56 193.5t142 83.5v172h76v-171q55 -7 94.5 -38t58.5 -93l-83 -28q-18 63 -70 79v-397q35 6 63.5 23t47.5 35l43 -52q-26 -30 -66 -54t-88 -31v-173h-76zM170 330q0 -82 27 -130.5t71 -63.5v389q-44 -15 -71 -63.5t-27 -131.5z
" />
    <glyph glyph-name="sterling" unicode="&#xa3;" horiz-adv-x="566" 
d="M86 0v44q30 33 41 76t11 92q0 25 -2 54h-81v70h76q-4 41 -7.5 75.5t-3.5 54.5q0 53 19.5 101t65.5 78t125 30q77 0 123 -39t68 -113l-84 -30q-14 49 -42.5 76.5t-77.5 27.5q-45 0 -73 -30t-28 -101q0 -16 2 -52t5 -78h172v-70h-169q0 -14 0.5 -28t0.5 -26q0 -78 -28 -134
h317v-78h-430z" />
    <glyph glyph-name="currency" unicode="&#xa4;" horiz-adv-x="578" 
d="M80 72l-50 50l99 98q-29 44 -29 111t29 111l-99 98l50 50l98 -99q47 29 111 29t110 -30l99 100l50 -50l-100 -99q14 -22 22 -49t8 -61t-8 -61.5t-22 -49.5l100 -98l-50 -50l-99 99q-47 -29 -110 -29q-64 0 -111 29zM289 213q44 0 72 29.5t28 88.5t-28 88t-72 29
q-46 0 -74 -29t-28 -88t28 -88.5t74 -29.5z" />
    <glyph glyph-name="yen" unicode="&#xa5;" horiz-adv-x="516" 
d="M210 0v161h-162v70h162v29l-37 76h-125v70h91l-124 254h99l144 -308l144 308h99l-124 -254h91v-70h-125l-37 -76v-29h162v-70h-162v-161h-96z" />
    <glyph glyph-name="brokenbar" unicode="&#xa6;" horiz-adv-x="376" 
d="M150 470v330h76v-330h-76zM150 -100v330h76v-330h-76z" />
    <glyph glyph-name="section" unicode="&#xa7;" horiz-adv-x="575" 
d="M279 -235q-82 0 -136.5 35.5t-77.5 116.5l84 30q16 -49 51.5 -76.5t90.5 -27.5t91.5 27.5t36.5 67.5q0 38 -25 62.5t-64 42.5t-82.5 36t-82.5 42t-64 61t-25 93q0 31 13.5 66t46.5 63q-26 23 -42 54.5t-16 75.5q0 29 11.5 60t38 59t70 45t107.5 17q83 0 137.5 -35.5
t76.5 -116.5l-84 -30q-16 49 -53.5 76.5t-92.5 27.5q-50 0 -82.5 -25.5t-32.5 -70.5q0 -38 25 -63.5t64 -44t83 -36.5t83 -41t64 -57t25 -86q0 -33 -14.5 -69.5t-49.5 -65.5q28 -22 45 -52t17 -72q0 -30 -12.5 -63t-40 -61.5t-73 -46.5t-111.5 -18zM376 124q21 13 33 31.5
t12 41.5q0 33 -19.5 55t-51 39t-69 32t-73.5 33q-36 -25 -36 -74q0 -32 18 -55t48 -40t66 -31.5t72 -31.5z" />
    <glyph glyph-name="dieresis" unicode="&#xa8;" 
d="M242 638q-24 0 -40.5 14.5t-16.5 44.5t16.5 44.5t40.5 14.5q25 0 41.5 -14.5t16.5 -44.5t-16.5 -44.5t-41.5 -14.5zM53 638q-24 0 -40.5 14.5t-16.5 44.5t16.5 44.5t40.5 14.5q25 0 41.5 -14.5t16.5 -44.5t-16.5 -44.5t-41.5 -14.5z" />
    <glyph glyph-name="copyright" unicode="&#xa9;" horiz-adv-x="780" 
d="M390 156q-91 0 -166 37t-119.5 110.5t-44.5 182.5t44.5 182.5t119.5 110.5t166 37t166 -37t119.5 -110.5t44.5 -182.5t-44.5 -182.5t-119.5 -110.5t-166 -37zM390 211q76 0 138.5 31t99.5 92t37 152t-37 152t-99.5 92t-138.5 31t-138.5 -31t-99.5 -92t-37 -152t37 -152
t99.5 -92t138.5 -31zM392 263q-78 0 -128.5 56.5t-50.5 166.5q0 74 23.5 123t63.5 74t90 25q51 0 87 -23.5t53 -79.5l-66 -24q-10 32 -29 47.5t-43 15.5q-44 0 -73.5 -38t-29.5 -120q0 -81 29.5 -120t75.5 -39q30 0 56.5 13.5t43.5 30.5l38 -46q-25 -25 -61.5 -43.5
t-78.5 -18.5z" />
    <glyph glyph-name="ordfeminine" unicode="&#xaa;" horiz-adv-x="400" 
d="M153 372q-39 0 -65.5 28t-26.5 68q0 50 34.5 77t95.5 27q14 0 27.5 -1.5t25.5 -3.5v37q0 27 -14.5 40t-37.5 13q-46 0 -61 -51l-60 17q14 50 45.5 71t74.5 21q65 0 93 -33t28 -105v-120q0 -18 4 -24.5t11 -6.5q6 0 18 5l13 -43q-12 -6 -25.5 -11t-27.5 -5q-20 0 -34.5 10
t-21.5 38q-15 -19 -41 -33.5t-55 -14.5zM171 430q19 0 39.5 10t33.5 26v50q-21 6 -47 6t-46.5 -11t-20.5 -41q0 -21 12.5 -30.5t28.5 -9.5z" />
    <glyph glyph-name="guillemotleft" unicode="&#xab;" horiz-adv-x="505" 
d="M401 121l-144 188v28l144 188l54 -37l-94 -165l94 -165zM194 121l-144 188v28l144 188l54 -37l-94 -165l94 -165z" />
    <glyph glyph-name="logicalnot" unicode="&#xac;" horiz-adv-x="542" 
d="M390 139v151h-310v80h382v-231h-72z" />
    <glyph glyph-name="registered" unicode="&#xae;" horiz-adv-x="780" 
d="M390 156q-91 0 -166 37t-119.5 110.5t-44.5 182.5t44.5 182.5t119.5 110.5t166 37t166 -37t119.5 -110.5t44.5 -182.5t-44.5 -182.5t-119.5 -110.5t-166 -37zM390 211q76 0 138.5 31t99.5 92t37 152t-37 152t-99.5 92t-138.5 31t-138.5 -31t-99.5 -92t-37 -152t37 -152
t99.5 -92t138.5 -31zM260 272v427h127q74 0 111.5 -38t37.5 -94q0 -37 -15.5 -65t-49.5 -45q6 -5 9 -10.5t6 -10.5l78 -164h-80l-68 146q-10 22 -29 22h-53v-168h-74zM334 502h53q46 0 61.5 21t15.5 46t-15.5 46t-61.5 21h-53v-134z" />
    <glyph glyph-name="macron" unicode="&#xaf;" horiz-adv-x="555" 
d="M133 659v75h289v-75h-289z" />
    <glyph glyph-name="degree" unicode="&#xb0;" horiz-adv-x="398" 
d="M199 417q-64 0 -106.5 37.5t-42.5 111.5t42.5 111.5t106.5 37.5q63 0 106 -37.5t43 -111.5t-43 -111.5t-106 -37.5zM199 480q32 0 52.5 21.5t20.5 64.5q0 44 -20.5 65t-52.5 21q-33 0 -53.5 -21t-20.5 -65q0 -43 20.5 -64.5t53.5 -21.5z" />
    <glyph glyph-name="plusminus" unicode="&#xb1;" horiz-adv-x="542" 
d="M231 139v151h-151v80h151v151h80v-151h151v-80h-151v-151h-80zM80 -10v80h382v-80h-382z" />
    <glyph glyph-name="uni00B2" unicode="&#xb2;" horiz-adv-x="402" 
d="M67 311v32q0 36 19 65t47 54t56 48.5t47 47t19 50.5q0 23 -16 38t-40 15q-23 0 -39 -13.5t-24 -44.5l-68 18q14 47 45.5 74.5t79.5 27.5q51 0 80.5 -16.5t42.5 -42t13 -51.5q0 -42 -21 -74.5t-51 -59t-59.5 -52t-47.5 -53.5h182v-63h-265z" />
    <glyph glyph-name="uni00B3" unicode="&#xb3;" horiz-adv-x="392" 
d="M183 302q-42 0 -80 22t-52 71l65 22q7 -25 26.5 -38t39.5 -13q32 0 50 13.5t18 38.5q0 26 -18.5 45.5t-62.5 19.5h-45v54h15q42 0 64 12t30 29.5t8 31.5q0 22 -15.5 36.5t-39.5 14.5q-20 0 -35 -13.5t-24 -44.5l-68 19q15 47 47.5 74t75.5 27q52 0 80.5 -16.5t40 -42
t11.5 -51.5t-15 -49t-39 -40q34 -16 50 -44.5t16 -58.5q0 -28 -15.5 -55.5t-47 -45.5t-80.5 -18z" />
    <glyph glyph-name="acute" unicode="&#xb4;" horiz-adv-x="419" 
d="M134 607l-32 58l206 125l41 -73z" />
    <glyph glyph-name="uni00B5" unicode="&#xb5;" horiz-adv-x="617" 
d="M90 -220v750h96v-360q0 -53 19.5 -80t63.5 -27t80 16t66 43v408h96v-445q0 -16 7.5 -21.5t18.5 -5.5q8 0 17.5 2.5t16.5 6.5l16 -62q-16 -7 -35 -13.5t-42 -6.5q-34 0 -58.5 16t-30.5 60q-30 -30 -71 -53t-89 -23q-31 0 -51.5 10.5t-33.5 26.5v-242h-86z" />
    <glyph glyph-name="paragraph" unicode="&#xb6;" horiz-adv-x="531" 
d="M256 -132l-10 77q40 4 64.5 34t24.5 96v186h-56q-80 0 -133 28t-79.5 77.5t-26.5 113.5q0 63 26.5 113t79.5 78.5t133 28.5h152v-625q0 -49 -16.5 -93.5t-55 -75t-103.5 -38.5zM279 331h56v299h-56v-299z" />
    <glyph glyph-name="periodcentered" unicode="&#xb7;" horiz-adv-x="333" 
d="M166 233q-28 0 -47 16.5t-19 51.5t19 51.5t47 16.5q29 0 48 -16.5t19 -51.5t-19 -51.5t-48 -16.5z" />
    <glyph glyph-name="cedilla" unicode="&#xb8;" horiz-adv-x="528" 
d="M260 -210q-36 0 -65.5 13.5t-49.5 27.5l28 53q33 -23 70 -23q23 0 39.5 12.5t16.5 41.5q0 20 -13.5 42t-42.5 37l16 33q62 -20 92 -54t30 -74q0 -43 -31.5 -76t-89.5 -33z" />
    <glyph glyph-name="uni00B9" unicode="&#xb9;" horiz-adv-x="349" 
d="M149 311v290q-27 -19 -65 -32l-23 65q32 9 63 32.5t38 48.5h61v-404h-74z" />
    <glyph glyph-name="ordmasculine" unicode="&#xba;" horiz-adv-x="428" 
d="M214 372q-64 0 -106.5 43t-42.5 128q0 86 42.5 129t106.5 43q63 0 106 -43t43 -129q0 -85 -43 -128t-106 -43zM214 430q34 0 56 28t22 85q0 58 -22 86t-56 28q-35 0 -57 -28t-22 -86q0 -57 22 -85t57 -28z" />
    <glyph glyph-name="guillemotright" unicode="&#xbb;" horiz-adv-x="505" 
d="M104 121l-54 37l94 165l-94 165l54 37l144 -188v-28zM311 121l-54 37l94 165l-94 165l54 37l144 -188v-28z" />
    <glyph glyph-name="onequarter" unicode="&#xbc;" horiz-adv-x="877" 
d="M246 -15l242 690h81l-244 -690h-79zM158 256v290q-27 -19 -65 -32l-23 65q32 9 63 32.5t38 48.5h61v-404h-74zM685 0v83h-182v36l164 285h92v-259h48v-62h-48v-83h-74zM590 145h95v165q-24 -42 -47 -81.5t-48 -83.5z" />
    <glyph glyph-name="onehalf" unicode="&#xbd;" horiz-adv-x="877" 
d="M246 -15l242 690h81l-244 -690h-79zM158 256v290q-27 -19 -65 -32l-23 65q32 9 63 32.5t38 48.5h61v-404h-74zM550 0v32q0 36 19 65t47 54t56 48.5t47 47t19 50.5q0 23 -16 38t-40 15q-23 0 -39 -13.5t-24 -44.5l-68 18q14 47 45.5 74.5t79.5 27.5q51 0 80.5 -16.5
t42.5 -42t13 -51.5q0 -42 -21 -74.5t-51 -59t-59.5 -52t-47.5 -53.5h182v-63h-265z" />
    <glyph glyph-name="threequarters" unicode="&#xbe;" horiz-adv-x="877" 
d="M287 -15l242 690h81l-244 -690h-79zM192 247q-42 0 -80 22t-52 71l65 22q7 -25 26.5 -38t39.5 -13q32 0 50 13.5t18 38.5q0 26 -18.5 45.5t-62.5 19.5h-45v54h15q42 0 64 12t30 29.5t8 31.5q0 22 -15.5 36.5t-39.5 14.5q-20 0 -35 -13.5t-24 -44.5l-68 19q15 47 47.5 74
t75.5 27q52 0 80.5 -16.5t40 -42t11.5 -51.5t-15 -49t-39 -40q34 -16 50 -44.5t16 -58.5q0 -28 -15.5 -55.5t-47 -45.5t-80.5 -18zM685 0v83h-182v36l164 285h92v-259h48v-62h-48v-83h-74zM590 145h95v165q-24 -42 -47 -81.5t-48 -83.5z" />
    <glyph glyph-name="questiondown" unicode="&#xbf;" horiz-adv-x="490" 
d="M299 312q1 -6 1 -12v-12q0 -52 -14.5 -90.5t-36 -69t-43.5 -58.5t-36.5 -57.5t-14.5 -65.5q0 -44 28 -74.5t70 -30.5q47 0 73 28t37 87l87 -21q-15 -73 -65 -122t-133 -49q-72 0 -114 26t-60 66.5t-18 81.5q0 50 17.5 90.5t43.5 75t52.5 67t44 66.5t17.5 74h64zM267 545
q29 0 47.5 -16.5t18.5 -51.5t-18.5 -51.5t-47.5 -16.5t-48 16.5t-19 51.5t19 51.5t48 16.5z" />
    <glyph glyph-name="Agrave" unicode="&#xc0;" horiz-adv-x="582" 
d="M15 0l200 700h152l200 -700h-94l-55 191h-255l-54 -191h-94zM186 269h210l-105 368zM382 757l-215 110l41 73l206 -125z" />
    <glyph glyph-name="Aacute" unicode="&#xc1;" horiz-adv-x="582" 
d="M15 0l200 700h152l200 -700h-94l-55 191h-255l-54 -191h-94zM186 269h210l-105 368zM199 757l-32 58l206 125l41 -73z" />
    <glyph glyph-name="Acircumflex" unicode="&#xc2;" horiz-adv-x="582" 
d="M15 0l200 700h152l200 -700h-94l-55 191h-255l-54 -191h-94zM186 269h210l-105 368zM164 757l-37 51l151 132h26l151 -132l-37 -51l-127 89z" />
    <glyph glyph-name="Atilde" unicode="&#xc3;" horiz-adv-x="582" 
d="M15 0l200 700h152l200 -700h-94l-55 191h-255l-54 -191h-94zM186 269h210l-105 368zM358 789q-26 0 -47.5 8.5t-42 17t-46.5 8.5q-14 0 -26 -6t-21 -23l-57 28q19 44 48 63t56 19t48 -8.5l42 -17t46 -8.5q14 0 26 6t22 23l57 -28q-19 -43 -48 -62.5t-57 -19.5z" />
    <glyph glyph-name="Adieresis" unicode="&#xc4;" horiz-adv-x="582" 
d="M15 0l200 700h152l200 -700h-94l-55 191h-255l-54 -191h-94zM186 269h210l-105 368zM385 788q-24 0 -40.5 14.5t-16.5 44.5t16.5 44.5t40.5 14.5q25 0 41.5 -14.5t16.5 -44.5t-16.5 -44.5t-41.5 -14.5zM196 788q-24 0 -40.5 14.5t-16.5 44.5t16.5 44.5t40.5 14.5
q25 0 41.5 -14.5t16.5 -44.5t-16.5 -44.5t-41.5 -14.5z" />
    <glyph glyph-name="Aring" unicode="&#xc5;" horiz-adv-x="582" 
d="M15 0l200 700h152l200 -700h-94l-55 191h-255l-54 -191h-94zM186 269h210l-105 368zM290 734q-47 0 -78.5 27.5t-31.5 85.5t31.5 85.5t78.5 27.5q48 0 79.5 -27.5t31.5 -85.5t-31.5 -85.5t-79.5 -27.5zM290 793q23 0 38 13t15 41t-15 41t-38 13q-22 0 -37 -13t-15 -41
t15 -41t37 -13z" />
    <glyph glyph-name="AE" unicode="&#xc6;" horiz-adv-x="860" 
d="M5 0l330 700h460v-78h-294v-263h264v-78h-264v-203h294v-78h-390v281h-169l-132 -281h-99zM273 359h132v263h-8z" />
    <glyph glyph-name="Ccedilla" unicode="&#xc7;" horiz-adv-x="600" 
d="M361 -15q-84 0 -150 41.5t-103.5 123t-37.5 201.5q0 121 38 201.5t103.5 121.5t147.5 41t138.5 -34t82.5 -118l-85 -31q-16 53 -51.5 79t-81.5 26q-83 0 -137.5 -70t-54.5 -216t55 -217t140 -71q53 0 98 21.5t72 49.5l46 -59q-37 -37 -94 -63.5t-126 -26.5zM304 -210
q-36 0 -65.5 13.5t-49.5 27.5l28 53q33 -23 70 -23q23 0 39.5 12.5t16.5 41.5q0 20 -13.5 42t-42.5 37l16 33q62 -20 92 -54t30 -74q0 -43 -31.5 -76t-89.5 -33z" />
    <glyph glyph-name="Egrave" unicode="&#xc8;" horiz-adv-x="555" 
d="M100 0v700h390v-78h-294v-233h264v-78h-264v-233h294v-78h-390zM390 757l-215 110l41 73l206 -125z" />
    <glyph glyph-name="Eacute" unicode="&#xc9;" horiz-adv-x="555" 
d="M100 0v700h390v-78h-294v-233h264v-78h-264v-233h294v-78h-390zM207 757l-32 58l206 125l41 -73z" />
    <glyph glyph-name="Ecircumflex" unicode="&#xca;" horiz-adv-x="555" 
d="M100 0v700h390v-78h-294v-233h264v-78h-264v-233h294v-78h-390zM172 757l-37 51l151 132h26l151 -132l-37 -51l-127 89z" />
    <glyph glyph-name="Edieresis" unicode="&#xcb;" horiz-adv-x="555" 
d="M100 0v700h390v-78h-294v-233h264v-78h-264v-233h294v-78h-390zM393 788q-24 0 -40.5 14.5t-16.5 44.5t16.5 44.5t40.5 14.5q25 0 41.5 -14.5t16.5 -44.5t-16.5 -44.5t-41.5 -14.5zM204 788q-24 0 -40.5 14.5t-16.5 44.5t16.5 44.5t40.5 14.5q25 0 41.5 -14.5t16.5 -44.5
t-16.5 -44.5t-41.5 -14.5z" />
    <glyph glyph-name="Igrave" unicode="&#xcc;" 
d="M100 0v700h96v-700h-96zM239 757l-215 110l41 73l206 -125z" />
    <glyph glyph-name="Iacute" unicode="&#xcd;" 
d="M100 0v700h96v-700h-96zM56 757l-32 58l206 125l41 -73z" />
    <glyph glyph-name="Icircumflex" unicode="&#xce;" 
d="M100 0v700h96v-700h-96zM21 757l-37 51l151 132h26l151 -132l-37 -51l-127 89z" />
    <glyph glyph-name="Idieresis" unicode="&#xcf;" 
d="M100 0v700h96v-700h-96zM242 788q-24 0 -40.5 14.5t-16.5 44.5t16.5 44.5t40.5 14.5q25 0 41.5 -14.5t16.5 -44.5t-16.5 -44.5t-41.5 -14.5zM53 788q-24 0 -40.5 14.5t-16.5 44.5t16.5 44.5t40.5 14.5q25 0 41.5 -14.5t16.5 -44.5t-16.5 -44.5t-41.5 -14.5z" />
    <glyph glyph-name="Eth" unicode="&#xd0;" horiz-adv-x="684" 
d="M100 0v317h-74v70h74v313h225q82 0 147.5 -39t103.5 -116.5t38 -193.5q0 -115 -37.5 -193.5t-103 -118t-150.5 -39.5h-223zM196 78h123q85 0 140 67t55 206t-54.5 205t-137.5 66h-126v-235h170v-70h-170v-239z" />
    <glyph glyph-name="Ntilde" unicode="&#xd1;" horiz-adv-x="696" 
d="M100 0v700h136l264 -578v578h96v-700h-136l-264 577v-577h-96zM415 789q-26 0 -47.5 8.5t-42 17t-46.5 8.5q-14 0 -26 -6t-21 -23l-57 28q19 44 48 63t56 19t48 -8.5l42 -17t46 -8.5q14 0 26 6t22 23l57 -28q-19 -43 -48 -62.5t-57 -19.5z" />
    <glyph glyph-name="Ograve" unicode="&#xd2;" horiz-adv-x="724" 
d="M361 -15q-83 0 -149 41t-104 122.5t-38 202.5q0 120 38 201t104 122t149 41t149 -41t105 -122t39 -201q0 -121 -39 -202.5t-105 -122.5t-149 -41zM361 63q86 0 139.5 70.5t53.5 217.5q0 146 -53.5 216t-139.5 70q-84 0 -137.5 -70t-53.5 -216q0 -147 53.5 -217.5
t137.5 -70.5zM453 757l-215 110l41 73l206 -125z" />
    <glyph glyph-name="Oacute" unicode="&#xd3;" horiz-adv-x="724" 
d="M361 -15q-83 0 -149 41t-104 122.5t-38 202.5q0 120 38 201t104 122t149 41t149 -41t105 -122t39 -201q0 -121 -39 -202.5t-105 -122.5t-149 -41zM361 63q86 0 139.5 70.5t53.5 217.5q0 146 -53.5 216t-139.5 70q-84 0 -137.5 -70t-53.5 -216q0 -147 53.5 -217.5
t137.5 -70.5zM270 757l-32 58l206 125l41 -73z" />
    <glyph glyph-name="Ocircumflex" unicode="&#xd4;" horiz-adv-x="724" 
d="M361 -15q-83 0 -149 41t-104 122.5t-38 202.5q0 120 38 201t104 122t149 41t149 -41t105 -122t39 -201q0 -121 -39 -202.5t-105 -122.5t-149 -41zM361 63q86 0 139.5 70.5t53.5 217.5q0 146 -53.5 216t-139.5 70q-84 0 -137.5 -70t-53.5 -216q0 -147 53.5 -217.5
t137.5 -70.5zM235 757l-37 51l151 132h26l151 -132l-37 -51l-127 89z" />
    <glyph glyph-name="Otilde" unicode="&#xd5;" horiz-adv-x="724" 
d="M361 -15q-83 0 -149 41t-104 122.5t-38 202.5q0 120 38 201t104 122t149 41t149 -41t105 -122t39 -201q0 -121 -39 -202.5t-105 -122.5t-149 -41zM361 63q86 0 139.5 70.5t53.5 217.5q0 146 -53.5 216t-139.5 70q-84 0 -137.5 -70t-53.5 -216q0 -147 53.5 -217.5
t137.5 -70.5zM429 789q-26 0 -47.5 8.5t-42 17t-46.5 8.5q-14 0 -26 -6t-21 -23l-57 28q19 44 48 63t56 19t48 -8.5l42 -17t46 -8.5q14 0 26 6t22 23l57 -28q-19 -43 -48 -62.5t-57 -19.5z" />
    <glyph glyph-name="Odieresis" unicode="&#xd6;" horiz-adv-x="724" 
d="M361 -15q-83 0 -149 41t-104 122.5t-38 202.5q0 120 38 201t104 122t149 41t149 -41t105 -122t39 -201q0 -121 -39 -202.5t-105 -122.5t-149 -41zM361 63q86 0 139.5 70.5t53.5 217.5q0 146 -53.5 216t-139.5 70q-84 0 -137.5 -70t-53.5 -216q0 -147 53.5 -217.5
t137.5 -70.5zM456 788q-24 0 -40.5 14.5t-16.5 44.5t16.5 44.5t40.5 14.5q25 0 41.5 -14.5t16.5 -44.5t-16.5 -44.5t-41.5 -14.5zM267 788q-24 0 -40.5 14.5t-16.5 44.5t16.5 44.5t40.5 14.5q25 0 41.5 -14.5t16.5 -44.5t-16.5 -44.5t-41.5 -14.5z" />
    <glyph glyph-name="multiply" unicode="&#xd7;" horiz-adv-x="542" 
d="M143 145l-57 57l128 128l-128 128l57 57l128 -128l128 128l57 -57l-128 -128l128 -128l-57 -57l-128 128z" />
    <glyph glyph-name="Oslash" unicode="&#xd8;" horiz-adv-x="724" 
d="M361 -15q-83 0 -149 41t-104 122.5t-38 202.5q0 120 38 201t104 122t149 41t149 -41t105 -122t39 -201q0 -121 -39 -202.5t-105 -122.5t-149 -41zM361 63q86 0 139.5 70.5t53.5 217.5q0 146 -53.5 216t-139.5 70q-84 0 -137.5 -70t-53.5 -216q0 -147 53.5 -217.5
t137.5 -70.5zM201 -55l256 810h66l-257 -810h-65z" />
    <glyph glyph-name="Ugrave" unicode="&#xd9;" horiz-adv-x="671" 
d="M335 -15q-70 0 -125.5 27t-87.5 82.5t-32 141.5v464h96v-464q0 -96 41 -136t108 -40q68 0 109 40t41 136v464h96v-464q0 -86 -32.5 -141.5t-88.5 -82.5t-125 -27zM427 757l-215 110l41 73l206 -125z" />
    <glyph glyph-name="Uacute" unicode="&#xda;" horiz-adv-x="671" 
d="M335 -15q-70 0 -125.5 27t-87.5 82.5t-32 141.5v464h96v-464q0 -96 41 -136t108 -40q68 0 109 40t41 136v464h96v-464q0 -86 -32.5 -141.5t-88.5 -82.5t-125 -27zM244 757l-32 58l206 125l41 -73z" />
    <glyph glyph-name="Ucircumflex" unicode="&#xdb;" horiz-adv-x="671" 
d="M335 -15q-70 0 -125.5 27t-87.5 82.5t-32 141.5v464h96v-464q0 -96 41 -136t108 -40q68 0 109 40t41 136v464h96v-464q0 -86 -32.5 -141.5t-88.5 -82.5t-125 -27zM209 757l-37 51l151 132h26l151 -132l-37 -51l-127 89z" />
    <glyph glyph-name="Udieresis" unicode="&#xdc;" horiz-adv-x="671" 
d="M335 -15q-70 0 -125.5 27t-87.5 82.5t-32 141.5v464h96v-464q0 -96 41 -136t108 -40q68 0 109 40t41 136v464h96v-464q0 -86 -32.5 -141.5t-88.5 -82.5t-125 -27zM430 788q-24 0 -40.5 14.5t-16.5 44.5t16.5 44.5t40.5 14.5q25 0 41.5 -14.5t16.5 -44.5t-16.5 -44.5
t-41.5 -14.5zM241 788q-24 0 -40.5 14.5t-16.5 44.5t16.5 44.5t40.5 14.5q25 0 41.5 -14.5t16.5 -44.5t-16.5 -44.5t-41.5 -14.5z" />
    <glyph glyph-name="Yacute" unicode="&#xdd;" horiz-adv-x="516" 
d="M210 0v260l-195 440h99l144 -339l144 339h99l-195 -440v-260h-96zM166 757l-32 58l206 125l41 -73z" />
    <glyph glyph-name="Thorn" unicode="&#xde;" horiz-adv-x="571" 
d="M100 0v700h96v-130h106q80 0 133 -29t79.5 -79t26.5 -113q0 -64 -26.5 -113.5t-79.5 -77.5t-133 -28h-106v-130h-96zM196 208h106q57 0 88.5 21t44.5 53.5t13 66.5t-13 67t-44.5 54.5t-88.5 21.5h-106v-284z" />
    <glyph glyph-name="germandbls" unicode="&#xdf;" horiz-adv-x="664" 
d="M439 -15q-73 0 -119 31t-63 102l82 28q8 -34 29 -58.5t69 -24.5q40 0 68.5 26t28.5 66q0 39 -16.5 61t-42.5 34.5t-55 21.5t-55 20.5t-42.5 31t-16.5 54.5q0 32 14 53t34.5 37t41 31.5t34.5 36t14 51.5q0 43 -30.5 71.5t-77.5 28.5q-29 0 -54 -11t-40 -38.5t-15 -78.5
v-559h-96v460h-76v70h76v11q0 63 20 113.5t63.5 80.5t114.5 30q82 0 127.5 -26t64 -66t18.5 -82q0 -39 -14.5 -67.5t-35.5 -48.5t-42.5 -35t-36 -28t-14.5 -27q0 -11 17 -18.5t44.5 -14.5t57.5 -19t57.5 -32.5t44.5 -53.5t17 -84q0 -40 -21.5 -81.5t-64.5 -69t-109 -27.5z
" />
    <glyph glyph-name="agrave" unicode="&#xe0;" horiz-adv-x="567" 
d="M198 -15q-40 0 -72.5 20t-51.5 54t-19 76q0 82 56 128t153 46q27 0 54 -4t52 -12v63q0 52 -27 81.5t-75 29.5q-84 0 -109 -83l-83 28q40 133 192 133q104 0 151 -52.5t47 -171.5v-236q0 -16 7.5 -21.5t18.5 -5.5q8 0 17.5 2.5t16.5 6.5l16 -62q-16 -7 -35 -13.5t-42 -6.5
q-36 0 -60.5 18t-29.5 67q-31 -32 -75.5 -58.5t-101.5 -26.5zM227 63q38 0 75 19t68 50v97q-21 7 -45 11t-47 4q-33 0 -62 -9.5t-47 -31.5t-18 -60q0 -33 21 -56.5t55 -23.5zM375 607l-215 110l41 73l206 -125z" />
    <glyph glyph-name="aacute" unicode="&#xe1;" horiz-adv-x="567" 
d="M198 -15q-40 0 -72.5 20t-51.5 54t-19 76q0 82 56 128t153 46q27 0 54 -4t52 -12v63q0 52 -27 81.5t-75 29.5q-84 0 -109 -83l-83 28q40 133 192 133q104 0 151 -52.5t47 -171.5v-236q0 -16 7.5 -21.5t18.5 -5.5q8 0 17.5 2.5t16.5 6.5l16 -62q-16 -7 -35 -13.5t-42 -6.5
q-36 0 -60.5 18t-29.5 67q-31 -32 -75.5 -58.5t-101.5 -26.5zM227 63q38 0 75 19t68 50v97q-21 7 -45 11t-47 4q-33 0 -62 -9.5t-47 -31.5t-18 -60q0 -33 21 -56.5t55 -23.5zM192 607l-32 58l206 125l41 -73z" />
    <glyph glyph-name="acircumflex" unicode="&#xe2;" horiz-adv-x="567" 
d="M198 -15q-40 0 -72.5 20t-51.5 54t-19 76q0 82 56 128t153 46q27 0 54 -4t52 -12v63q0 52 -27 81.5t-75 29.5q-84 0 -109 -83l-83 28q40 133 192 133q104 0 151 -52.5t47 -171.5v-236q0 -16 7.5 -21.5t18.5 -5.5q8 0 17.5 2.5t16.5 6.5l16 -62q-16 -7 -35 -13.5t-42 -6.5
q-36 0 -60.5 18t-29.5 67q-31 -32 -75.5 -58.5t-101.5 -26.5zM227 63q38 0 75 19t68 50v97q-21 7 -45 11t-47 4q-33 0 -62 -9.5t-47 -31.5t-18 -60q0 -33 21 -56.5t55 -23.5zM157 607l-37 51l151 132h26l151 -132l-37 -51l-127 89z" />
    <glyph glyph-name="atilde" unicode="&#xe3;" horiz-adv-x="567" 
d="M198 -15q-40 0 -72.5 20t-51.5 54t-19 76q0 82 56 128t153 46q27 0 54 -4t52 -12v63q0 52 -27 81.5t-75 29.5q-84 0 -109 -83l-83 28q40 133 192 133q104 0 151 -52.5t47 -171.5v-236q0 -16 7.5 -21.5t18.5 -5.5q8 0 17.5 2.5t16.5 6.5l16 -62q-16 -7 -35 -13.5t-42 -6.5
q-36 0 -60.5 18t-29.5 67q-31 -32 -75.5 -58.5t-101.5 -26.5zM227 63q38 0 75 19t68 50v97q-21 7 -45 11t-47 4q-33 0 -62 -9.5t-47 -31.5t-18 -60q0 -33 21 -56.5t55 -23.5zM351 639q-26 0 -47.5 8.5t-42 17t-46.5 8.5q-14 0 -26 -6t-21 -23l-57 28q19 44 48 63t56 19
t48 -8.5l42 -17t46 -8.5q14 0 26 6t22 23l57 -28q-19 -43 -48 -62.5t-57 -19.5z" />
    <glyph glyph-name="adieresis" unicode="&#xe4;" horiz-adv-x="567" 
d="M198 -15q-40 0 -72.5 20t-51.5 54t-19 76q0 82 56 128t153 46q27 0 54 -4t52 -12v63q0 52 -27 81.5t-75 29.5q-84 0 -109 -83l-83 28q40 133 192 133q104 0 151 -52.5t47 -171.5v-236q0 -16 7.5 -21.5t18.5 -5.5q8 0 17.5 2.5t16.5 6.5l16 -62q-16 -7 -35 -13.5t-42 -6.5
q-36 0 -60.5 18t-29.5 67q-31 -32 -75.5 -58.5t-101.5 -26.5zM227 63q38 0 75 19t68 50v97q-21 7 -45 11t-47 4q-33 0 -62 -9.5t-47 -31.5t-18 -60q0 -33 21 -56.5t55 -23.5zM378 638q-24 0 -40.5 14.5t-16.5 44.5t16.5 44.5t40.5 14.5q25 0 41.5 -14.5t16.5 -44.5
t-16.5 -44.5t-41.5 -14.5zM189 638q-24 0 -40.5 14.5t-16.5 44.5t16.5 44.5t40.5 14.5q25 0 41.5 -14.5t16.5 -44.5t-16.5 -44.5t-41.5 -14.5z" />
    <glyph glyph-name="aring" unicode="&#xe5;" horiz-adv-x="567" 
d="M198 -15q-40 0 -72.5 20t-51.5 54t-19 76q0 82 56 128t153 46q27 0 54 -4t52 -12v63q0 52 -27 81.5t-75 29.5q-84 0 -109 -83l-83 28q40 133 192 133q104 0 151 -52.5t47 -171.5v-236q0 -16 7.5 -21.5t18.5 -5.5q8 0 17.5 2.5t16.5 6.5l16 -62q-16 -7 -35 -13.5t-42 -6.5
q-36 0 -60.5 18t-29.5 67q-31 -32 -75.5 -58.5t-101.5 -26.5zM227 63q38 0 75 19t68 50v97q-21 7 -45 11t-47 4q-33 0 -62 -9.5t-47 -31.5t-18 -60q0 -33 21 -56.5t55 -23.5zM283 584q-47 0 -78.5 27.5t-31.5 85.5t31.5 85.5t78.5 27.5q48 0 79.5 -27.5t31.5 -85.5
t-31.5 -85.5t-79.5 -27.5zM283 643q23 0 38 13t15 41t-15 41t-38 13q-22 0 -37 -13t-15 -41t15 -41t37 -13z" />
    <glyph glyph-name="ae" unicode="&#xe6;" horiz-adv-x="891" 
d="M208 -15q-41 0 -76 15t-56 48t-21 87q0 82 53 127t150 45h112v49q0 55 -28.5 83t-73.5 28q-84 0 -109 -83l-83 28q22 71 72 102t120 31q62 0 102.5 -18t63.5 -58q65 76 174 76q95 0 154 -59t59 -179v-70h-354q6 -88 48.5 -131t102.5 -43q51 0 89 19.5t60 41.5l43 -52
q-31 -35 -81 -61t-114 -26q-63 0 -113.5 24.5t-83.5 72.5q-37 -42 -94 -69.5t-116 -27.5zM468 307h258q0 77 -30.5 118.5t-86.5 41.5q-54 0 -93 -39.5t-48 -120.5zM227 63q42 0 84 22.5t76 59.5q-7 20 -10.5 43.5t-5.5 48.5h-93q-33 0 -62 -7.5t-47 -28t-18 -58.5
q0 -33 21 -56.5t55 -23.5z" />
    <glyph glyph-name="ccedilla" unicode="&#xe7;" horiz-adv-x="528" 
d="M311 -15q-70 0 -124.5 31.5t-85.5 94t-31 154.5q0 93 31.5 155t86 93.5t122.5 31.5t116.5 -31t70.5 -102l-83 -28q-23 83 -102 83q-61 0 -101.5 -49.5t-40.5 -152.5t41 -152.5t104 -49.5q44 0 81 19.5t59 41.5l43 -52q-31 -35 -80 -61t-107 -26zM261 -210
q-36 0 -65.5 13.5t-49.5 27.5l28 53q33 -23 70 -23q23 0 39.5 12.5t16.5 41.5q0 20 -13.5 42t-42.5 37l16 33q62 -20 92 -54t30 -74q0 -43 -31.5 -76t-89.5 -33z" />
    <glyph glyph-name="egrave" unicode="&#xe8;" horiz-adv-x="591" 
d="M315 -15q-71 0 -126.5 31.5t-87 94t-31.5 154.5q0 93 31.5 155t85.5 93.5t121 31.5q95 0 154 -59t59 -179v-70h-350q6 -88 46.5 -131t100.5 -43q51 0 89 19.5t60 41.5l43 -52q-31 -35 -81 -61t-114 -26zM172 307h254q0 77 -30.5 118.5t-86.5 41.5q-54 0 -91.5 -39.5
t-45.5 -120.5zM397 607l-215 110l41 73l206 -125z" />
    <glyph glyph-name="eacute" unicode="&#xe9;" horiz-adv-x="591" 
d="M315 -15q-71 0 -126.5 31.5t-87 94t-31.5 154.5q0 93 31.5 155t85.5 93.5t121 31.5q95 0 154 -59t59 -179v-70h-350q6 -88 46.5 -131t100.5 -43q51 0 89 19.5t60 41.5l43 -52q-31 -35 -81 -61t-114 -26zM172 307h254q0 77 -30.5 118.5t-86.5 41.5q-54 0 -91.5 -39.5
t-45.5 -120.5zM214 607l-32 58l206 125l41 -73z" />
    <glyph glyph-name="ecircumflex" unicode="&#xea;" horiz-adv-x="591" 
d="M315 -15q-71 0 -126.5 31.5t-87 94t-31.5 154.5q0 93 31.5 155t85.5 93.5t121 31.5q95 0 154 -59t59 -179v-70h-350q6 -88 46.5 -131t100.5 -43q51 0 89 19.5t60 41.5l43 -52q-31 -35 -81 -61t-114 -26zM172 307h254q0 77 -30.5 118.5t-86.5 41.5q-54 0 -91.5 -39.5
t-45.5 -120.5zM179 607l-37 51l151 132h26l151 -132l-37 -51l-127 89z" />
    <glyph glyph-name="edieresis" unicode="&#xeb;" horiz-adv-x="591" 
d="M315 -15q-71 0 -126.5 31.5t-87 94t-31.5 154.5q0 93 31.5 155t85.5 93.5t121 31.5q95 0 154 -59t59 -179v-70h-350q6 -88 46.5 -131t100.5 -43q51 0 89 19.5t60 41.5l43 -52q-31 -35 -81 -61t-114 -26zM172 307h254q0 77 -30.5 118.5t-86.5 41.5q-54 0 -91.5 -39.5
t-45.5 -120.5zM400 638q-24 0 -40.5 14.5t-16.5 44.5t16.5 44.5t40.5 14.5q25 0 41.5 -14.5t16.5 -44.5t-16.5 -44.5t-41.5 -14.5zM211 638q-24 0 -40.5 14.5t-16.5 44.5t16.5 44.5t40.5 14.5q25 0 41.5 -14.5t16.5 -44.5t-16.5 -44.5t-41.5 -14.5z" />
    <glyph glyph-name="igrave" unicode="&#xec;" 
d="M100 0v530h96v-530h-96zM239 607l-215 110l41 73l206 -125z" />
    <glyph glyph-name="iacute" unicode="&#xed;" 
d="M100 0v530h96v-530h-96zM73 607l-32 58l206 125l41 -73z" />
    <glyph glyph-name="icircumflex" unicode="&#xee;" 
d="M100 0v530h96v-530h-96zM21 607l-37 51l151 132h26l151 -132l-37 -51l-127 89z" />
    <glyph glyph-name="idieresis" unicode="&#xef;" 
d="M100 0v530h96v-530h-96zM242 638q-24 0 -40.5 14.5t-16.5 44.5t16.5 44.5t40.5 14.5q25 0 41.5 -14.5t16.5 -44.5t-16.5 -44.5t-41.5 -14.5zM53 638q-24 0 -40.5 14.5t-16.5 44.5t16.5 44.5t40.5 14.5q25 0 41.5 -14.5t16.5 -44.5t-16.5 -44.5t-41.5 -14.5z" />
    <glyph glyph-name="eth" unicode="&#xf0;" horiz-adv-x="649" 
d="M318 -15q-69 0 -123.5 28.5t-86 85.5t-31.5 141t31.5 141t86 85.5t123.5 28.5q47 0 83.5 -16.5t58.5 -43.5q0 34 -10.5 78t-32.5 84l-101 -52l-30 58l90 46q-19 18 -43 28.5t-53 10.5q-40 0 -88 -19l-24 62q25 18 56.5 26t68.5 8q94 0 161 -76l114 58l30 -58l-106 -54
q32 -57 50 -138t18 -186q0 -123 -32 -194.5t-86.5 -101.5t-123.5 -30zM318 63q80 0 111 48t31 129t-31 129t-111 48q-79 0 -110 -48t-31 -129t31 -129t110 -48z" />
    <glyph glyph-name="ntilde" unicode="&#xf1;" horiz-adv-x="616" 
d="M100 0v530h81l5 -64q31 31 73 55t94 24q94 0 133.5 -45.5t39.5 -153.5v-346h-96v356q0 111 -101 111q-35 0 -69 -16t-64 -44v-407h-96zM376 639q-26 0 -47.5 8.5t-42 17t-46.5 8.5q-14 0 -26 -6t-21 -23l-57 28q19 44 48 63t56 19t48 -8.5l42 -17t46 -8.5q14 0 26 6
t22 23l57 -28q-19 -43 -48 -62.5t-57 -19.5z" />
    <glyph glyph-name="ograve" unicode="&#xf2;" horiz-adv-x="623" 
d="M311 -15q-69 0 -123.5 31.5t-86 94t-31.5 154.5q0 93 31.5 155t86 93.5t123.5 31.5t123.5 -31.5t86.5 -93.5t32 -155q0 -92 -32 -154.5t-86.5 -94t-123.5 -31.5zM311 63q62 0 102 49.5t40 152.5t-40 152.5t-102 49.5q-61 0 -101 -49.5t-40 -152.5t40 -152.5t101 -49.5z
M403 607l-215 110l41 73l206 -125z" />
    <glyph glyph-name="oacute" unicode="&#xf3;" horiz-adv-x="623" 
d="M311 -15q-69 0 -123.5 31.5t-86 94t-31.5 154.5q0 93 31.5 155t86 93.5t123.5 31.5t123.5 -31.5t86.5 -93.5t32 -155q0 -92 -32 -154.5t-86.5 -94t-123.5 -31.5zM311 63q62 0 102 49.5t40 152.5t-40 152.5t-102 49.5q-61 0 -101 -49.5t-40 -152.5t40 -152.5t101 -49.5z
M220 607l-32 58l206 125l41 -73z" />
    <glyph glyph-name="ocircumflex" unicode="&#xf4;" horiz-adv-x="623" 
d="M311 -15q-69 0 -123.5 31.5t-86 94t-31.5 154.5q0 93 31.5 155t86 93.5t123.5 31.5t123.5 -31.5t86.5 -93.5t32 -155q0 -92 -32 -154.5t-86.5 -94t-123.5 -31.5zM311 63q62 0 102 49.5t40 152.5t-40 152.5t-102 49.5q-61 0 -101 -49.5t-40 -152.5t40 -152.5t101 -49.5z
M185 607l-37 51l151 132h26l151 -132l-37 -51l-127 89z" />
    <glyph glyph-name="otilde" unicode="&#xf5;" horiz-adv-x="623" 
d="M311 -15q-69 0 -123.5 31.5t-86 94t-31.5 154.5q0 93 31.5 155t86 93.5t123.5 31.5t123.5 -31.5t86.5 -93.5t32 -155q0 -92 -32 -154.5t-86.5 -94t-123.5 -31.5zM311 63q62 0 102 49.5t40 152.5t-40 152.5t-102 49.5q-61 0 -101 -49.5t-40 -152.5t40 -152.5t101 -49.5z
M379 639q-26 0 -47.5 8.5t-42 17t-46.5 8.5q-14 0 -26 -6t-21 -23l-57 28q19 44 48 63t56 19t48 -8.5l42 -17t46 -8.5q14 0 26 6t22 23l57 -28q-19 -43 -48 -62.5t-57 -19.5z" />
    <glyph glyph-name="odieresis" unicode="&#xf6;" horiz-adv-x="623" 
d="M311 -15q-69 0 -123.5 31.5t-86 94t-31.5 154.5q0 93 31.5 155t86 93.5t123.5 31.5t123.5 -31.5t86.5 -93.5t32 -155q0 -92 -32 -154.5t-86.5 -94t-123.5 -31.5zM311 63q62 0 102 49.5t40 152.5t-40 152.5t-102 49.5q-61 0 -101 -49.5t-40 -152.5t40 -152.5t101 -49.5z
M406 638q-24 0 -40.5 14.5t-16.5 44.5t16.5 44.5t40.5 14.5q25 0 41.5 -14.5t16.5 -44.5t-16.5 -44.5t-41.5 -14.5zM217 638q-24 0 -40.5 14.5t-16.5 44.5t16.5 44.5t40.5 14.5q25 0 41.5 -14.5t16.5 -44.5t-16.5 -44.5t-41.5 -14.5z" />
    <glyph glyph-name="divide" unicode="&#xf7;" horiz-adv-x="542" 
d="M270 88q-25 0 -42 14.5t-17 46.5q0 31 17 46t42 15q27 0 44 -15t17 -46q0 -32 -17 -46.5t-44 -14.5zM80 290v80h382v-80h-382zM270 451q-25 0 -42 14.5t-17 46.5q0 31 17 46t42 15q27 0 44 -15t17 -46q0 -32 -17 -46.5t-44 -14.5z" />
    <glyph glyph-name="oslash" unicode="&#xf8;" horiz-adv-x="623" 
d="M150 -80l36 97q-53 32 -84.5 94t-31.5 154q0 93 31.5 155t86 93.5t123.5 31.5q36 0 68 -9l27 73h66l-36 -96q53 -32 85 -94t32 -154t-32 -154.5t-86.5 -94t-123.5 -31.5q-36 0 -69 9l-27 -74h-65zM170 265q0 -57 12.5 -97.5t35.5 -64.5l133 358q-19 6 -40 6
q-61 0 -101 -49.5t-40 -152.5zM311 63q62 0 102 49.5t40 152.5q0 57 -13 97.5t-36 65.5l-133 -359q18 -6 40 -6z" />
    <glyph glyph-name="ugrave" unicode="&#xf9;" horiz-adv-x="617" 
d="M241 -15q-79 0 -115 47.5t-36 138.5v359h96v-360q0 -53 19.5 -80t63.5 -27t80 16t66 43v408h96v-445q0 -16 7.5 -21.5t18.5 -5.5q8 0 17.5 2.5t16.5 6.5l16 -62q-16 -7 -35 -13.5t-42 -6.5q-34 0 -58.5 16t-30.5 60q-31 -30 -76 -53t-104 -23zM400 607l-215 110l41 73
l206 -125z" />
    <glyph glyph-name="uacute" unicode="&#xfa;" horiz-adv-x="617" 
d="M241 -15q-79 0 -115 47.5t-36 138.5v359h96v-360q0 -53 19.5 -80t63.5 -27t80 16t66 43v408h96v-445q0 -16 7.5 -21.5t18.5 -5.5q8 0 17.5 2.5t16.5 6.5l16 -62q-16 -7 -35 -13.5t-42 -6.5q-34 0 -58.5 16t-30.5 60q-31 -30 -76 -53t-104 -23zM217 607l-32 58l206 125
l41 -73z" />
    <glyph glyph-name="ucircumflex" unicode="&#xfb;" horiz-adv-x="617" 
d="M241 -15q-79 0 -115 47.5t-36 138.5v359h96v-360q0 -53 19.5 -80t63.5 -27t80 16t66 43v408h96v-445q0 -16 7.5 -21.5t18.5 -5.5q8 0 17.5 2.5t16.5 6.5l16 -62q-16 -7 -35 -13.5t-42 -6.5q-34 0 -58.5 16t-30.5 60q-31 -30 -76 -53t-104 -23zM182 607l-37 51l151 132h26
l151 -132l-37 -51l-127 89z" />
    <glyph glyph-name="udieresis" unicode="&#xfc;" horiz-adv-x="617" 
d="M241 -15q-79 0 -115 47.5t-36 138.5v359h96v-360q0 -53 19.5 -80t63.5 -27t80 16t66 43v408h96v-445q0 -16 7.5 -21.5t18.5 -5.5q8 0 17.5 2.5t16.5 6.5l16 -62q-16 -7 -35 -13.5t-42 -6.5q-34 0 -58.5 16t-30.5 60q-31 -30 -76 -53t-104 -23zM403 638q-24 0 -40.5 14.5
t-16.5 44.5t16.5 44.5t40.5 14.5q25 0 41.5 -14.5t16.5 -44.5t-16.5 -44.5t-41.5 -14.5zM214 638q-24 0 -40.5 14.5t-16.5 44.5t16.5 44.5t40.5 14.5q25 0 41.5 -14.5t16.5 -44.5t-16.5 -44.5t-41.5 -14.5z" />
    <glyph glyph-name="yacute" unicode="&#xfd;" horiz-adv-x="536" 
d="M149 -235q-43 0 -80.5 20.5t-60.5 42.5l47 60q16 -16 37.5 -29t49.5 -13q31 0 50 18t19 56q0 27 -7 67t-21 81l-148 462h99l139 -460l139 460h89l-201 -626q-25 -78 -61.5 -108.5t-89.5 -30.5zM176 607l-32 58l206 125l41 -73z" />
    <glyph glyph-name="thorn" unicode="&#xfe;" horiz-adv-x="625" 
d="M100 -221v971h96v-272q28 27 66.5 47t89.5 20q92 0 147.5 -70.5t55.5 -209.5q0 -92 -30.5 -154.5t-82.5 -94t-117 -31.5q-37 0 -69.5 11t-59.5 30v-247h-96zM321 63q59 0 96.5 49.5t37.5 152.5t-34.5 152.5t-89.5 49.5q-40 0 -73.5 -16t-61.5 -43v-303q23 -18 55.5 -30
t69.5 -12z" />
    <glyph glyph-name="ydieresis" unicode="&#xff;" horiz-adv-x="536" 
d="M149 -235q-43 0 -80.5 20.5t-60.5 42.5l47 60q16 -16 37.5 -29t49.5 -13q31 0 50 18t19 56q0 27 -7 67t-21 81l-148 462h99l139 -460l139 460h89l-201 -626q-25 -78 -61.5 -108.5t-89.5 -30.5zM362 638q-24 0 -40.5 14.5t-16.5 44.5t16.5 44.5t40.5 14.5q25 0 41.5 -14.5
t16.5 -44.5t-16.5 -44.5t-41.5 -14.5zM173 638q-24 0 -40.5 14.5t-16.5 44.5t16.5 44.5t40.5 14.5q25 0 41.5 -14.5t16.5 -44.5t-16.5 -44.5t-41.5 -14.5z" />
    <glyph glyph-name="Amacron" unicode="&#x100;" horiz-adv-x="582" 
d="M15 0l200 700h152l200 -700h-94l-55 191h-255l-54 -191h-94zM186 269h210l-105 368zM146 809v75h289v-75h-289z" />
    <glyph glyph-name="amacron" unicode="&#x101;" horiz-adv-x="567" 
d="M198 -15q-40 0 -72.5 20t-51.5 54t-19 76q0 82 56 128t153 46q27 0 54 -4t52 -12v63q0 52 -27 81.5t-75 29.5q-84 0 -109 -83l-83 28q40 133 192 133q104 0 151 -52.5t47 -171.5v-236q0 -16 7.5 -21.5t18.5 -5.5q8 0 17.5 2.5t16.5 6.5l16 -62q-16 -7 -35 -13.5t-42 -6.5
q-36 0 -60.5 18t-29.5 67q-31 -32 -75.5 -58.5t-101.5 -26.5zM227 63q38 0 75 19t68 50v97q-21 7 -45 11t-47 4q-33 0 -62 -9.5t-47 -31.5t-18 -60q0 -33 21 -56.5t55 -23.5zM139 659v75h289v-75h-289z" />
    <glyph glyph-name="Abreve" unicode="&#x102;" horiz-adv-x="582" 
d="M15 0l200 700h152l200 -700h-94l-55 191h-255l-54 -191h-94zM186 269h210l-105 368zM290 759q-36 0 -65.5 20.5t-52 53.5t-40.5 70l57 27q13 -18 27 -38t33 -34.5t45 -14.5t44 15.5t31.5 36t23.5 35.5l57 -27q-17 -37 -40 -70t-52.5 -53.5t-67.5 -20.5z" />
    <glyph glyph-name="abreve" unicode="&#x103;" horiz-adv-x="567" 
d="M198 -15q-40 0 -72.5 20t-51.5 54t-19 76q0 82 56 128t153 46q27 0 54 -4t52 -12v63q0 52 -27 81.5t-75 29.5q-84 0 -109 -83l-83 28q40 133 192 133q104 0 151 -52.5t47 -171.5v-236q0 -16 7.5 -21.5t18.5 -5.5q8 0 17.5 2.5t16.5 6.5l16 -62q-16 -7 -35 -13.5t-42 -6.5
q-36 0 -60.5 18t-29.5 67q-31 -32 -75.5 -58.5t-101.5 -26.5zM227 63q38 0 75 19t68 50v97q-21 7 -45 11t-47 4q-33 0 -62 -9.5t-47 -31.5t-18 -60q0 -33 21 -56.5t55 -23.5zM283 609q-36 0 -65.5 20.5t-52 53.5t-40.5 70l57 27q13 -18 27 -38t33 -34.5t45 -14.5t44 15.5
t31.5 36t23.5 35.5l57 -27q-17 -37 -40 -70t-52.5 -53.5t-67.5 -20.5z" />
    <glyph glyph-name="Aogonek" unicode="&#x104;" horiz-adv-x="582" 
d="M15 0l200 700h152l200 -700h-94l-55 191h-255l-54 -191h-94zM186 269h210l-105 368zM539 -204q-58 0 -89.5 33t-31.5 76q0 40 30.5 74t91.5 54l16 -33q-29 -15 -42.5 -37t-13.5 -42q0 -29 17 -41.5t39 -12.5q37 0 70 23l28 -53q-20 -14 -49.5 -27.5t-65.5 -13.5z" />
    <glyph glyph-name="aogonek" unicode="&#x105;" horiz-adv-x="567" 
d="M198 -15q-40 0 -72.5 20t-51.5 54t-19 76q0 82 56 128t153 46q27 0 54 -4t52 -12v63q0 52 -27 81.5t-75 29.5q-84 0 -109 -83l-83 28q40 133 192 133q104 0 151 -52.5t47 -171.5v-236q0 -16 7.5 -21.5t18.5 -5.5q8 0 17.5 2.5t16.5 6.5l16 -62q-16 -7 -35 -13.5t-42 -6.5
q-36 0 -60.5 18t-29.5 67q-31 -32 -75.5 -58.5t-101.5 -26.5zM227 63q38 0 75 19t68 50v97q-21 7 -45 11t-47 4q-33 0 -62 -9.5t-47 -31.5t-18 -60q0 -33 21 -56.5t55 -23.5zM514 -204q-58 0 -89.5 33t-31.5 76q0 40 30.5 74t91.5 54l16 -33q-29 -15 -42.5 -37t-13.5 -42
q0 -29 17 -41.5t39 -12.5q37 0 70 23l28 -53q-20 -14 -49.5 -27.5t-65.5 -13.5z" />
    <glyph glyph-name="Cacute" unicode="&#x106;" horiz-adv-x="600" 
d="M361 -15q-84 0 -150 41.5t-103.5 123t-37.5 201.5q0 121 38 201.5t103.5 121.5t147.5 41t138.5 -34t82.5 -118l-85 -31q-16 53 -51.5 79t-81.5 26q-83 0 -137.5 -70t-54.5 -216t55 -217t140 -71q53 0 98 21.5t72 49.5l46 -59q-37 -37 -94 -63.5t-126 -26.5zM272 757
l-32 58l206 125l41 -73z" />
    <glyph glyph-name="cacute" unicode="&#x107;" horiz-adv-x="528" 
d="M311 -15q-70 0 -124.5 31.5t-85.5 94t-31 154.5q0 93 31.5 155t86 93.5t122.5 31.5t116.5 -31t70.5 -102l-83 -28q-23 83 -102 83q-61 0 -101.5 -49.5t-40.5 -152.5t41 -152.5t104 -49.5q44 0 81 19.5t59 41.5l43 -52q-31 -35 -80 -61t-107 -26zM216 607l-32 58l206 125
l41 -73z" />
    <glyph glyph-name="Ccircumflex" unicode="&#x108;" horiz-adv-x="600" 
d="M361 -15q-84 0 -150 41.5t-103.5 123t-37.5 201.5q0 121 38 201.5t103.5 121.5t147.5 41t138.5 -34t82.5 -118l-85 -31q-16 53 -51.5 79t-81.5 26q-83 0 -137.5 -70t-54.5 -216t55 -217t140 -71q53 0 98 21.5t72 49.5l46 -59q-37 -37 -94 -63.5t-126 -26.5zM237 757
l-37 51l151 132h26l151 -132l-37 -51l-127 89z" />
    <glyph glyph-name="ccircumflex" unicode="&#x109;" horiz-adv-x="528" 
d="M311 -15q-70 0 -124.5 31.5t-85.5 94t-31 154.5q0 93 31.5 155t86 93.5t122.5 31.5t116.5 -31t70.5 -102l-83 -28q-23 83 -102 83q-61 0 -101.5 -49.5t-40.5 -152.5t41 -152.5t104 -49.5q44 0 81 19.5t59 41.5l43 -52q-31 -35 -80 -61t-107 -26zM181 607l-37 51l151 132
h26l151 -132l-37 -51l-127 89z" />
    <glyph glyph-name="Cdotaccent" unicode="&#x10a;" horiz-adv-x="600" 
d="M361 -15q-84 0 -150 41.5t-103.5 123t-37.5 201.5q0 121 38 201.5t103.5 121.5t147.5 41t138.5 -34t82.5 -118l-85 -31q-16 53 -51.5 79t-81.5 26q-83 0 -137.5 -70t-54.5 -216t55 -217t140 -71q53 0 98 21.5t72 49.5l46 -59q-37 -37 -94 -63.5t-126 -26.5zM363 780
q-28 0 -46.5 16.5t-18.5 50.5q0 35 18.5 51t46.5 16q29 0 47.5 -16t18.5 -51q0 -34 -18.5 -50.5t-47.5 -16.5z" />
    <glyph glyph-name="cdotaccent" unicode="&#x10b;" horiz-adv-x="528" 
d="M311 -15q-70 0 -124.5 31.5t-85.5 94t-31 154.5q0 93 31.5 155t86 93.5t122.5 31.5t116.5 -31t70.5 -102l-83 -28q-23 83 -102 83q-61 0 -101.5 -49.5t-40.5 -152.5t41 -152.5t104 -49.5q44 0 81 19.5t59 41.5l43 -52q-31 -35 -80 -61t-107 -26zM307 630
q-28 0 -46.5 16.5t-18.5 50.5q0 35 18.5 51t46.5 16q29 0 47.5 -16t18.5 -51q0 -34 -18.5 -50.5t-47.5 -16.5z" />
    <glyph glyph-name="Ccaron" unicode="&#x10c;" horiz-adv-x="600" 
d="M361 -15q-84 0 -150 41.5t-103.5 123t-37.5 201.5q0 121 38 201.5t103.5 121.5t147.5 41t138.5 -34t82.5 -118l-85 -31q-16 53 -51.5 79t-81.5 26q-83 0 -137.5 -70t-54.5 -216t55 -217t140 -71q53 0 98 21.5t72 49.5l46 -59q-37 -37 -94 -63.5t-126 -26.5zM351 754
l-151 132l37 51l127 -89l127 89l37 -51l-151 -132h-26z" />
    <glyph glyph-name="ccaron" unicode="&#x10d;" horiz-adv-x="528" 
d="M311 -15q-70 0 -124.5 31.5t-85.5 94t-31 154.5q0 93 31.5 155t86 93.5t122.5 31.5t116.5 -31t70.5 -102l-83 -28q-23 83 -102 83q-61 0 -101.5 -49.5t-40.5 -152.5t41 -152.5t104 -49.5q44 0 81 19.5t59 41.5l43 -52q-31 -35 -80 -61t-107 -26zM295 604l-151 132l37 51
l127 -89l127 89l37 -51l-151 -132h-26z" />
    <glyph glyph-name="Dcaron" unicode="&#x10e;" horiz-adv-x="684" 
d="M100 0v700h225q82 0 147.5 -39t103.5 -116.5t38 -193.5q0 -115 -37.5 -193.5t-103 -118t-150.5 -39.5h-223zM196 78h123q85 0 140 67t55 206t-54.5 205t-137.5 66h-126v-544zM309 754l-151 132l37 51l127 -89l127 89l37 -51l-151 -132h-26z" />
    <glyph glyph-name="dcaron" unicode="&#x10f;" horiz-adv-x="631" 
d="M273 -15q-91 0 -147 70.5t-56 209.5q0 93 30.5 155t83 93.5t116.5 31.5q37 0 69.5 -11.5t59.5 -29.5v246h96v-665q0 -16 7.5 -21.5t18.5 -5.5q8 0 17.5 2.5t16.5 6.5l16 -62q-16 -7 -35 -13.5t-42 -6.5q-34 0 -58 15.5t-30 58.5q-28 -30 -68.5 -52t-94.5 -22zM294 63
q39 0 73 16t62 42v304q-23 17 -55.5 29.5t-69.5 12.5q-58 0 -96 -49.5t-38 -152.5t34.5 -152.5t89.5 -49.5zM601 678q0 21 -7.5 32.5t-15 23.5t-7.5 33q0 32 17.5 47t43.5 15q27 0 44.5 -15t17.5 -47q0 -30 -12 -65.5t-31.5 -68t-40.5 -55.5l-42 28q13 15 23 34t10 38z" />
    <glyph glyph-name="Dcroat" unicode="&#x110;" horiz-adv-x="684" 
d="M100 0v317h-74v70h74v313h225q82 0 147.5 -39t103.5 -116.5t38 -193.5q0 -115 -37.5 -193.5t-103 -118t-150.5 -39.5h-223zM196 78h123q85 0 140 67t55 206t-54.5 205t-137.5 66h-126v-235h170v-70h-170v-239z" />
    <glyph glyph-name="dcroat" unicode="&#x111;" horiz-adv-x="631" 
d="M273 -15q-91 0 -147 70.5t-56 209.5q0 93 30.5 155t83 93.5t116.5 31.5q37 0 69.5 -11.5t59.5 -29.5v113h-170v70h170v63h96v-63h74v-70h-74v-532q0 -16 7.5 -21.5t18.5 -5.5q8 0 17.5 2.5t16.5 6.5l16 -62q-16 -7 -35 -13.5t-42 -6.5q-34 0 -58 15.5t-30 58.5
q-28 -30 -68.5 -52t-94.5 -22zM294 63q39 0 73 16t62 42v304q-23 17 -55.5 29.5t-69.5 12.5q-58 0 -96 -49.5t-38 -152.5t34.5 -152.5t89.5 -49.5z" />
    <glyph glyph-name="Emacron" unicode="&#x112;" horiz-adv-x="555" 
d="M100 0v700h390v-78h-294v-233h264v-78h-264v-233h294v-78h-390zM154 809v75h289v-75h-289z" />
    <glyph glyph-name="emacron" unicode="&#x113;" horiz-adv-x="591" 
d="M315 -15q-71 0 -126.5 31.5t-87 94t-31.5 154.5q0 93 31.5 155t85.5 93.5t121 31.5q95 0 154 -59t59 -179v-70h-350q6 -88 46.5 -131t100.5 -43q51 0 89 19.5t60 41.5l43 -52q-31 -35 -81 -61t-114 -26zM172 307h254q0 77 -30.5 118.5t-86.5 41.5q-54 0 -91.5 -39.5
t-45.5 -120.5zM161 659v75h289v-75h-289z" />
    <glyph glyph-name="Ebreve" unicode="&#x114;" horiz-adv-x="555" 
d="M100 0v700h390v-78h-294v-233h264v-78h-264v-233h294v-78h-390zM298 759q-36 0 -65.5 20.5t-52 53.5t-40.5 70l57 27q13 -18 27 -38t33 -34.5t45 -14.5t44 15.5t31.5 36t23.5 35.5l57 -27q-17 -37 -40 -70t-52.5 -53.5t-67.5 -20.5z" />
    <glyph glyph-name="ebreve" unicode="&#x115;" horiz-adv-x="591" 
d="M315 -15q-71 0 -126.5 31.5t-87 94t-31.5 154.5q0 93 31.5 155t85.5 93.5t121 31.5q95 0 154 -59t59 -179v-70h-350q6 -88 46.5 -131t100.5 -43q51 0 89 19.5t60 41.5l43 -52q-31 -35 -81 -61t-114 -26zM172 307h254q0 77 -30.5 118.5t-86.5 41.5q-54 0 -91.5 -39.5
t-45.5 -120.5zM305 609q-36 0 -65.5 20.5t-52 53.5t-40.5 70l57 27q13 -18 27 -38t33 -34.5t45 -14.5t44 15.5t31.5 36t23.5 35.5l57 -27q-17 -37 -40 -70t-52.5 -53.5t-67.5 -20.5z" />
    <glyph glyph-name="Edotaccent" unicode="&#x116;" horiz-adv-x="555" 
d="M100 0v700h390v-78h-294v-233h264v-78h-264v-233h294v-78h-390zM298 780q-28 0 -46.5 16.5t-18.5 50.5q0 35 18.5 51t46.5 16q29 0 47.5 -16t18.5 -51q0 -34 -18.5 -50.5t-47.5 -16.5z" />
    <glyph glyph-name="edotaccent" unicode="&#x117;" horiz-adv-x="591" 
d="M315 -15q-71 0 -126.5 31.5t-87 94t-31.5 154.5q0 93 31.5 155t85.5 93.5t121 31.5q95 0 154 -59t59 -179v-70h-350q6 -88 46.5 -131t100.5 -43q51 0 89 19.5t60 41.5l43 -52q-31 -35 -81 -61t-114 -26zM172 307h254q0 77 -30.5 118.5t-86.5 41.5q-54 0 -91.5 -39.5
t-45.5 -120.5zM305 630q-28 0 -46.5 16.5t-18.5 50.5q0 35 18.5 51t46.5 16q29 0 47.5 -16t18.5 -51q0 -34 -18.5 -50.5t-47.5 -16.5z" />
    <glyph glyph-name="Eogonek" unicode="&#x118;" horiz-adv-x="555" 
d="M100 0v700h390v-78h-294v-233h264v-78h-264v-233h294v-78h-390zM473 -204q-58 0 -89.5 33t-31.5 76q0 40 30.5 74t91.5 54l16 -33q-29 -15 -42.5 -37t-13.5 -42q0 -29 17 -41.5t39 -12.5q37 0 70 23l28 -53q-20 -14 -49.5 -27.5t-65.5 -13.5z" />
    <glyph glyph-name="eogonek" unicode="&#x119;" horiz-adv-x="591" 
d="M315 -15q-71 0 -126.5 31.5t-87 94t-31.5 154.5q0 93 31.5 155t85.5 93.5t121 31.5q95 0 154 -59t59 -179v-70h-350q6 -88 46.5 -131t100.5 -43q51 0 89 19.5t60 41.5l43 -52q-31 -35 -81 -61t-114 -26zM172 307h254q0 77 -30.5 118.5t-86.5 41.5q-54 0 -91.5 -39.5
t-45.5 -120.5zM386 -204q-58 0 -89.5 33t-31.5 76q0 40 30.5 74t91.5 54l16 -33q-29 -15 -42.5 -37t-13.5 -42q0 -29 17 -41.5t39 -12.5q37 0 70 23l28 -53q-20 -14 -49.5 -27.5t-65.5 -13.5z" />
    <glyph glyph-name="Ecaron" unicode="&#x11a;" horiz-adv-x="555" 
d="M100 0v700h390v-78h-294v-233h264v-78h-264v-233h294v-78h-390zM286 754l-151 132l37 51l127 -89l127 89l37 -51l-151 -132h-26z" />
    <glyph glyph-name="ecaron" unicode="&#x11b;" horiz-adv-x="591" 
d="M315 -15q-71 0 -126.5 31.5t-87 94t-31.5 154.5q0 93 31.5 155t85.5 93.5t121 31.5q95 0 154 -59t59 -179v-70h-350q6 -88 46.5 -131t100.5 -43q51 0 89 19.5t60 41.5l43 -52q-31 -35 -81 -61t-114 -26zM172 307h254q0 77 -30.5 118.5t-86.5 41.5q-54 0 -91.5 -39.5
t-45.5 -120.5zM293 604l-151 132l37 51l127 -89l127 89l37 -51l-151 -132h-26z" />
    <glyph glyph-name="Gcircumflex" unicode="&#x11c;" horiz-adv-x="674" 
d="M361 -15q-84 0 -150 41.5t-103.5 123t-37.5 201.5q0 121 38 201.5t103.5 121.5t147.5 41t138.5 -34t82.5 -118l-85 -31q-16 53 -51.5 79t-81.5 26q-83 0 -137.5 -70t-54.5 -216t55 -217t140 -71q41 0 78 13.5t65 33.5v172h-119v78h205v-360h-46l-18 40
q-34 -24 -75.5 -39.5t-93.5 -15.5zM237 757l-37 51l151 132h26l151 -132l-37 -51l-127 89z" />
    <glyph glyph-name="gcircumflex" unicode="&#x11d;" horiz-adv-x="559" 
d="M292 -235q-242 0 -242 153q0 34 20 63t53 47q-36 33 -36 91q0 30 12 57t38 47q-22 24 -34.5 57t-12.5 73q0 61 26.5 103.5t72.5 65.5t104 23q49 0 91 -17q23 1 40 20t17 70h20l58 -20q0 -52 -18.5 -78.5t-50.5 -37.5q22 -24 34.5 -56.5t12.5 -72.5q0 -60 -27 -102.5
t-73 -65.5t-104 -23q-61 0 -108 24q-25 -23 -25 -58q0 -25 17 -41.5t53 -16.5h132q46 0 85 -14t63 -45t24 -83q0 -76 -61.5 -119.5t-180.5 -43.5zM293 230q27 0 52.5 13t42.5 40t17 70q0 44 -17 71t-42.5 40t-52.5 13q-26 0 -52 -13t-42.5 -40t-16.5 -71q0 -43 16.5 -70
t42.5 -40t52 -13zM292 -161q78 0 116 21t38 67q0 28 -14 41.5t-34 18.5t-40 5h-120q-34 0 -63 8q-14 -15 -25.5 -34.5t-11.5 -42.5q0 -84 154 -84zM173 607l-37 51l151 132h26l151 -132l-37 -51l-127 89z" />
    <glyph glyph-name="Gbreve" unicode="&#x11e;" horiz-adv-x="674" 
d="M361 -15q-84 0 -150 41.5t-103.5 123t-37.5 201.5q0 121 38 201.5t103.5 121.5t147.5 41t138.5 -34t82.5 -118l-85 -31q-16 53 -51.5 79t-81.5 26q-83 0 -137.5 -70t-54.5 -216t55 -217t140 -71q41 0 78 13.5t65 33.5v172h-119v78h205v-360h-46l-18 40
q-34 -24 -75.5 -39.5t-93.5 -15.5zM363 759q-36 0 -65.5 20.5t-52 53.5t-40.5 70l57 27q13 -18 27 -38t33 -34.5t45 -14.5t44 15.5t31.5 36t23.5 35.5l57 -27q-17 -37 -40 -70t-52.5 -53.5t-67.5 -20.5z" />
    <glyph glyph-name="gbreve" unicode="&#x11f;" horiz-adv-x="559" 
d="M292 -235q-242 0 -242 153q0 34 20 63t53 47q-36 33 -36 91q0 30 12 57t38 47q-22 24 -34.5 57t-12.5 73q0 61 26.5 103.5t72.5 65.5t104 23q49 0 91 -17q23 1 40 20t17 70h20l58 -20q0 -52 -18.5 -78.5t-50.5 -37.5q22 -24 34.5 -56.5t12.5 -72.5q0 -60 -27 -102.5
t-73 -65.5t-104 -23q-61 0 -108 24q-25 -23 -25 -58q0 -25 17 -41.5t53 -16.5h132q46 0 85 -14t63 -45t24 -83q0 -76 -61.5 -119.5t-180.5 -43.5zM293 230q27 0 52.5 13t42.5 40t17 70q0 44 -17 71t-42.5 40t-52.5 13q-26 0 -52 -13t-42.5 -40t-16.5 -71q0 -43 16.5 -70
t42.5 -40t52 -13zM292 -161q78 0 116 21t38 67q0 28 -14 41.5t-34 18.5t-40 5h-120q-34 0 -63 8q-14 -15 -25.5 -34.5t-11.5 -42.5q0 -84 154 -84zM299 609q-36 0 -65.5 20.5t-52 53.5t-40.5 70l57 27q13 -18 27 -38t33 -34.5t45 -14.5t44 15.5t31.5 36t23.5 35.5l57 -27
q-17 -37 -40 -70t-52.5 -53.5t-67.5 -20.5z" />
    <glyph glyph-name="Gdotaccent" unicode="&#x120;" horiz-adv-x="674" 
d="M361 -15q-84 0 -150 41.5t-103.5 123t-37.5 201.5q0 121 38 201.5t103.5 121.5t147.5 41t138.5 -34t82.5 -118l-85 -31q-16 53 -51.5 79t-81.5 26q-83 0 -137.5 -70t-54.5 -216t55 -217t140 -71q41 0 78 13.5t65 33.5v172h-119v78h205v-360h-46l-18 40
q-34 -24 -75.5 -39.5t-93.5 -15.5zM363 780q-28 0 -46.5 16.5t-18.5 50.5q0 35 18.5 51t46.5 16q29 0 47.5 -16t18.5 -51q0 -34 -18.5 -50.5t-47.5 -16.5z" />
    <glyph glyph-name="gdotaccent" unicode="&#x121;" horiz-adv-x="559" 
d="M292 -235q-242 0 -242 153q0 34 20 63t53 47q-36 33 -36 91q0 30 12 57t38 47q-22 24 -34.5 57t-12.5 73q0 61 26.5 103.5t72.5 65.5t104 23q49 0 91 -17q23 1 40 20t17 70h20l58 -20q0 -52 -18.5 -78.5t-50.5 -37.5q22 -24 34.5 -56.5t12.5 -72.5q0 -60 -27 -102.5
t-73 -65.5t-104 -23q-61 0 -108 24q-25 -23 -25 -58q0 -25 17 -41.5t53 -16.5h132q46 0 85 -14t63 -45t24 -83q0 -76 -61.5 -119.5t-180.5 -43.5zM293 230q27 0 52.5 13t42.5 40t17 70q0 44 -17 71t-42.5 40t-52.5 13q-26 0 -52 -13t-42.5 -40t-16.5 -71q0 -43 16.5 -70
t42.5 -40t52 -13zM292 -161q78 0 116 21t38 67q0 28 -14 41.5t-34 18.5t-40 5h-120q-34 0 -63 8q-14 -15 -25.5 -34.5t-11.5 -42.5q0 -84 154 -84zM299 630q-28 0 -46.5 16.5t-18.5 50.5q0 35 18.5 51t46.5 16q29 0 47.5 -16t18.5 -51q0 -34 -18.5 -50.5t-47.5 -16.5z" />
    <glyph glyph-name="uni0122" unicode="&#x122;" horiz-adv-x="674" 
d="M361 -15q-84 0 -150 41.5t-103.5 123t-37.5 201.5q0 121 38 201.5t103.5 121.5t147.5 41t138.5 -34t82.5 -118l-85 -31q-16 53 -51.5 79t-81.5 26q-83 0 -137.5 -70t-54.5 -216t55 -217t140 -71q41 0 78 13.5t65 33.5v172h-119v78h205v-360h-46l-18 40
q-34 -24 -75.5 -39.5t-93.5 -15.5zM346 -301l-42 28q13 15 23 34t10 38q0 21 -7.5 32.5t-15 23.5t-7.5 33q0 32 17.5 47t43.5 15q27 0 44.5 -15t17.5 -47q0 -30 -12 -65.5t-31.5 -68t-40.5 -55.5z" />
    <glyph glyph-name="uni0123" unicode="&#x123;" horiz-adv-x="559" 
d="M292 -235q-242 0 -242 153q0 34 20 63t53 47q-36 33 -36 91q0 30 12 57t38 47q-22 24 -34.5 57t-12.5 73q0 61 26.5 103.5t72.5 65.5t104 23q49 0 91 -17q23 1 40 20t17 70h20l58 -20q0 -52 -18.5 -78.5t-50.5 -37.5q22 -24 34.5 -56.5t12.5 -72.5q0 -60 -27 -102.5
t-73 -65.5t-104 -23q-61 0 -108 24q-25 -23 -25 -58q0 -25 17 -41.5t53 -16.5h132q46 0 85 -14t63 -45t24 -83q0 -76 -61.5 -119.5t-180.5 -43.5zM293 230q27 0 52.5 13t42.5 40t17 70q0 44 -17 71t-42.5 40t-52.5 13q-26 0 -52 -13t-42.5 -40t-16.5 -71q0 -43 16.5 -70
t42.5 -40t52 -13zM292 -161q78 0 116 21t38 67q0 28 -14 41.5t-34 18.5t-40 5h-120q-34 0 -63 8q-14 -15 -25.5 -34.5t-11.5 -42.5q0 -84 154 -84zM299 634q-27 0 -44.5 15t-17.5 47q0 30 12.5 65.5t31.5 68.5t40 55l42 -28q-13 -15 -23 -34t-10 -38q0 -20 7.5 -32l15 -24
t7.5 -33q0 -32 -17.5 -47t-43.5 -15z" />
    <glyph glyph-name="Hcircumflex" unicode="&#x124;" horiz-adv-x="686" 
d="M100 0v700h96v-311h294v311h96v-700h-96v311h-294v-311h-96zM216 757l-37 51l151 132h26l151 -132l-37 -51l-127 89z" />
    <glyph glyph-name="hcircumflex" unicode="&#x125;" horiz-adv-x="616" 
d="M100 0v750h91v-292q30 41 72.5 64t89.5 23q94 0 133.5 -45.5t39.5 -153.5v-346h-96v356q0 111 -99 111q-83 0 -135 -70v-397h-96zM19 757l-37 51l151 132h26l151 -132l-37 -51l-127 89z" />
    <glyph glyph-name="Hbar" unicode="&#x126;" horiz-adv-x="686" 
d="M100 0v495h-45v70h45v135h96v-135h294v135h96v-135h47v-70h-47v-495h-96v311h-294v-311h-96zM196 389h294v106h-294v-106z" />
    <glyph glyph-name="hbar" unicode="&#x127;" horiz-adv-x="616" 
d="M100 0v617h-79v70h79v63h91v-63h170v-70h-170v-159q30 41 72.5 64t89.5 23q94 0 133.5 -45.5t39.5 -153.5v-346h-96v356q0 111 -99 111q-83 0 -135 -70v-397h-96z" />
    <glyph glyph-name="Itilde" unicode="&#x128;" 
d="M100 0v700h96v-700h-96zM215 789q-26 0 -47.5 8.5t-42 17t-46.5 8.5q-14 0 -26 -6t-21 -23l-57 28q19 44 48 63t56 19t48 -8.5l42 -17t46 -8.5q14 0 26 6t22 23l57 -28q-19 -43 -48 -62.5t-57 -19.5z" />
    <glyph glyph-name="itilde" unicode="&#x129;" 
d="M100 0v530h96v-530h-96zM216 639q-26 0 -47.5 8.5t-42 17t-46.5 8.5q-14 0 -26 -6t-21 -23l-57 28q19 44 48 63t56 19t48 -8.5l42 -17t46 -8.5q14 0 26 6t22 23l57 -28q-19 -43 -48 -62.5t-57 -19.5z" />
    <glyph glyph-name="Imacron" unicode="&#x12a;" 
d="M100 0v700h96v-700h-96zM3 809v75h289v-75h-289z" />
    <glyph glyph-name="imacron" unicode="&#x12b;" 
d="M100 0v530h96v-530h-96zM4 659v75h289v-75h-289z" />
    <glyph glyph-name="Ibreve" unicode="&#x12c;" 
d="M100 0v700h96v-700h-96zM147 759q-36 0 -65.5 20.5t-52 53.5t-40.5 70l57 27q13 -18 27 -38t33 -34.5t45 -14.5t44 15.5t31.5 36t23.5 35.5l57 -27q-17 -37 -40 -70t-52.5 -53.5t-67.5 -20.5z" />
    <glyph glyph-name="ibreve" unicode="&#x12d;" 
d="M100 0v530h96v-530h-96zM147 609q-36 0 -65.5 20.5t-52 53.5t-40.5 70l57 27q13 -18 27 -38t33 -34.5t45 -14.5t44 15.5t31.5 36t23.5 35.5l57 -27q-17 -37 -40 -70t-52.5 -53.5t-67.5 -20.5z" />
    <glyph glyph-name="Iogonek" unicode="&#x12e;" 
d="M100 0v700h96v-700h-96zM166 -205q-58 0 -89.5 33t-31.5 76q0 40 30.5 74t91.5 54l16 -33q-29 -15 -42.5 -37t-13.5 -42q0 -29 17 -41.5t39 -12.5q37 0 70 23l28 -53q-20 -14 -49.5 -27.5t-65.5 -13.5z" />
    <glyph glyph-name="iogonek" unicode="&#x12f;" 
d="M148 630q-28 0 -46.5 16.5t-18.5 50.5q0 35 18.5 51t46.5 16q29 0 47.5 -16t18.5 -51q0 -34 -18.5 -50.5t-47.5 -16.5zM100 0v530h96v-530h-96zM166 -204q-58 0 -89.5 33t-31.5 76q0 40 30.5 74t91.5 54l16 -33q-29 -15 -42.5 -37t-13.5 -42q0 -29 17 -41.5t39 -12.5
q37 0 70 23l28 -53q-20 -14 -49.5 -27.5t-65.5 -13.5z" />
    <glyph glyph-name="Idotaccent" unicode="&#x130;" 
d="M100 0v700h96v-700h-96zM147 780q-28 0 -46.5 16.5t-18.5 50.5q0 35 18.5 51t46.5 16q29 0 47.5 -16t18.5 -51q0 -34 -18.5 -50.5t-47.5 -16.5z" />
    <glyph glyph-name="dotlessi" unicode="&#x131;" 
d="M100 0v530h96v-530h-96z" />
    <glyph glyph-name="IJ" unicode="&#x132;" horiz-adv-x="721" 
d="M100 0v700h96v-700h-96zM452 -15q-58 0 -101 31t-65 102l83 28q18 -83 83 -83q35 0 56.5 23t21.5 78v536h96v-501q0 -118 -43 -166t-131 -48z" />
    <glyph glyph-name="ij" unicode="&#x133;" horiz-adv-x="592" 
d="M148 630q-28 0 -46.5 16.5t-18.5 50.5q0 35 18.5 51t46.5 16q29 0 47.5 -16t18.5 -51q0 -34 -18.5 -50.5t-47.5 -16.5zM100 0v530h96v-530h-96zM444 632q-25 0 -42 15t-17 46q0 32 17 46.5t42 14.5q26 0 43 -14.5t17 -46.5q0 -31 -17 -46t-43 -15zM340 -235
q-45 0 -76.5 21.5t-51.5 79.5l80 27q8 -24 19.5 -37t33.5 -13q25 0 38 20.5t13 65.5v601h96v-591q0 -94 -40 -134t-112 -40z" />
    <glyph glyph-name="Jcircumflex" unicode="&#x134;" horiz-adv-x="425" 
d="M156 -15q-58 0 -101 31t-65 102l83 28q18 -83 83 -83q35 0 56.5 23t21.5 78v536h96v-501q0 -118 -43 -166t-131 -48zM157 757l-37 51l151 132h26l151 -132l-37 -51l-127 89z" />
    <glyph glyph-name="jcircumflex" unicode="&#x135;" 
d="M44 -235q-45 0 -76.5 21.5t-51.5 79.5l80 27q8 -24 19.5 -37t33.5 -13q25 0 38 20.5t13 65.5v601h96v-591q0 -94 -40 -134t-112 -40zM21 607l-37 51l151 132h26l151 -132l-37 -51l-127 89z" />
    <glyph glyph-name="uni0136" unicode="&#x136;" horiz-adv-x="561" 
d="M100 0v700h96v-326l245 326h105l-239 -313l254 -387h-105l-205 313l-55 -72v-241h-96zM290 -301l-42 28q13 15 23 34t10 38q0 21 -7.5 32.5t-15 23.5t-7.5 33q0 32 17.5 47t43.5 15q27 0 44.5 -15t17.5 -47q0 -30 -12 -65.5t-31.5 -68t-40.5 -55.5z" />
    <glyph glyph-name="uni0137" unicode="&#x137;" horiz-adv-x="522" 
d="M100 0v750h96v-422l181 202h105l-208 -230l228 -300h-105l-178 238l-23 -25v-213h-96zM260 -301l-42 28q13 15 23 34t10 38q0 21 -7.5 32.5t-15 23.5t-7.5 33q0 32 17.5 47t43.5 15q27 0 44.5 -15t17.5 -47q0 -30 -12 -65.5t-31.5 -68t-40.5 -55.5z" />
    <glyph glyph-name="kgreenlandic" unicode="&#x138;" horiz-adv-x="542" 
d="M100 0v530h96v-225l201 225h105l-208 -230l228 -300h-105l-178 238l-43 -48v-190h-96z" />
    <glyph glyph-name="Lacute" unicode="&#x139;" horiz-adv-x="450" 
d="M100 0v700h96v-622h244v-78h-340zM63 757l-32 58l206 125l41 -73z" />
    <glyph glyph-name="lacute" unicode="&#x13a;" 
d="M195 -15q-39 0 -67 21t-28 82v662h96v-665q0 -16 6.5 -21.5t17.5 -5.5q18 0 36 9l16 -62q-16 -7 -35 -13.5t-42 -6.5zM68 757l-32 58l206 125l41 -73z" />
    <glyph glyph-name="uni013B" unicode="&#x13b;" horiz-adv-x="450" 
d="M100 0v700h96v-622h244v-78h-340zM244 -301l-42 28q13 15 23 34t10 38q0 21 -7.5 32.5t-15 23.5t-7.5 33q0 32 17.5 47t43.5 15q27 0 44.5 -15t17.5 -47q0 -30 -12 -65.5t-31.5 -68t-40.5 -55.5z" />
    <glyph glyph-name="uni013C" unicode="&#x13c;" 
d="M195 -15q-39 0 -67 21t-28 82v662h96v-665q0 -16 6.5 -21.5t17.5 -5.5q18 0 36 9l16 -62q-16 -7 -35 -13.5t-42 -6.5zM127 -301l-42 28q13 15 23 34t10 38q0 21 -7.5 32.5t-15 23.5t-7.5 33q0 32 17.5 47t43.5 15q27 0 44.5 -15t17.5 -47q0 -30 -12 -65.5t-31.5 -68
t-40.5 -55.5z" />
    <glyph glyph-name="Lcaron" unicode="&#x13d;" horiz-adv-x="450" 
d="M100 0v700h96v-622h244v-78h-340zM297 678q0 21 -7.5 32.5t-15 23.5t-7.5 33q0 32 17.5 47t43.5 15q27 0 44.5 -15t17.5 -47q0 -30 -12 -65.5t-31.5 -68t-40.5 -55.5l-42 28q13 15 23 34t10 38z" />
    <glyph glyph-name="lcaron" unicode="&#x13e;" 
d="M195 -15q-39 0 -67 21t-28 82v662h96v-665q0 -16 6.5 -21.5t17.5 -5.5q18 0 36 9l16 -62q-16 -7 -35 -13.5t-42 -6.5zM267 679q0 21 -7.5 32.5t-15 23.5t-7.5 33q0 32 17.5 47t43.5 15q27 0 44.5 -15t17.5 -47q0 -30 -12 -65.5t-31.5 -68t-40.5 -55.5l-42 28q13 15 23 34
t10 38z" />
    <glyph glyph-name="Ldot" unicode="&#x13f;" horiz-adv-x="450" 
d="M100 0v700h96v-622h244v-78h-340zM327 313q-28 0 -47 16.5t-19 51.5t19 51.5t47 16.5q29 0 48 -16.5t19 -51.5t-19 -51.5t-48 -16.5z" />
    <glyph glyph-name="ldot" unicode="&#x140;" horiz-adv-x="306" 
d="M195 -15q-39 0 -67 21t-28 82v662h96v-665q0 -16 6.5 -21.5t17.5 -5.5q18 0 36 9l16 -62q-16 -7 -35 -13.5t-42 -6.5zM297 313q-28 0 -47 16.5t-19 51.5t19 51.5t47 16.5q29 0 48 -16.5t19 -51.5t-19 -51.5t-48 -16.5z" />
    <glyph glyph-name="Lslash" unicode="&#x141;" horiz-adv-x="450" 
d="M100 0v296l-78 -40l-30 58l108 55v331h96v-282l78 40l30 -58l-108 -55v-267h244v-78h-340z" />
    <glyph glyph-name="lslash" unicode="&#x142;" 
d="M195 -15q-39 0 -67 21t-28 82v295l-78 -40l-30 58l108 55v294h96v-245l78 40l30 -58l-108 -55v-347q0 -16 6.5 -21.5t17.5 -5.5q18 0 36 9l16 -62q-16 -7 -35 -13.5t-42 -6.5z" />
    <glyph glyph-name="Nacute" unicode="&#x143;" horiz-adv-x="696" 
d="M100 0v700h136l264 -578v578h96v-700h-136l-264 577v-577h-96zM256 757l-32 58l206 125l41 -73z" />
    <glyph glyph-name="nacute" unicode="&#x144;" horiz-adv-x="616" 
d="M100 0v530h81l5 -64q31 31 73 55t94 24q94 0 133.5 -45.5t39.5 -153.5v-346h-96v356q0 111 -101 111q-35 0 -69 -16t-64 -44v-407h-96zM217 607l-32 58l206 125l41 -73z" />
    <glyph glyph-name="uni0145" unicode="&#x145;" horiz-adv-x="696" 
d="M100 0v700h136l264 -578v578h96v-700h-136l-264 577v-577h-96zM327 -301l-42 28q13 15 23 34t10 38q0 21 -7.5 32.5t-15 23.5t-7.5 33q0 32 17.5 47t43.5 15q27 0 44.5 -15t17.5 -47q0 -30 -12 -65.5t-31.5 -68t-40.5 -55.5z" />
    <glyph glyph-name="uni0146" unicode="&#x146;" horiz-adv-x="616" 
d="M100 0v530h81l5 -64q31 31 73 55t94 24q94 0 133.5 -45.5t39.5 -153.5v-346h-96v356q0 111 -101 111q-35 0 -69 -16t-64 -44v-407h-96zM287 -301l-42 28q13 15 23 34t10 38q0 21 -7.5 32.5t-15 23.5t-7.5 33q0 32 17.5 47t43.5 15q27 0 44.5 -15t17.5 -47
q0 -30 -12 -65.5t-31.5 -68t-40.5 -55.5z" />
    <glyph glyph-name="Ncaron" unicode="&#x147;" horiz-adv-x="696" 
d="M100 0v700h136l264 -578v578h96v-700h-136l-264 577v-577h-96zM335 754l-151 132l37 51l127 -89l127 89l37 -51l-151 -132h-26z" />
    <glyph glyph-name="ncaron" unicode="&#x148;" horiz-adv-x="616" 
d="M100 0v530h81l5 -64q31 31 73 55t94 24q94 0 133.5 -45.5t39.5 -153.5v-346h-96v356q0 111 -101 111q-35 0 -69 -16t-64 -44v-407h-96zM296 604l-151 132l37 51l127 -89l127 89l37 -51l-151 -132h-26z" />
    <glyph glyph-name="napostrophe" unicode="&#x149;" horiz-adv-x="616" 
d="M42 578l-42 28q13 15 23 34t10 38q0 21 -7.5 32.5t-15 23.5t-7.5 33q0 32 17.5 47t43.5 15q27 0 44.5 -15t17.5 -47q0 -30 -12 -65.5t-31.5 -68t-40.5 -55.5zM100 0v530h81l5 -64q31 31 73 55t94 24q94 0 133.5 -45.5t39.5 -153.5v-346h-96v356q0 111 -101 111
q-35 0 -69 -16t-64 -44v-407h-96z" />
    <glyph glyph-name="Eng" unicode="&#x14a;" horiz-adv-x="696" 
d="M422 -234q-58 0 -101 31t-65 102l83 28q18 -83 83 -83q35 0 56.5 23t21.5 78v57l-304 575v-577h-96v700h136l264 -502v502h96v-720q0 -118 -43 -166t-131 -48z" />
    <glyph glyph-name="eng" unicode="&#x14b;" horiz-adv-x="616" 
d="M374 -235q-45 0 -76.5 21.5t-51.5 79.5l80 27q8 -24 19.5 -37t33.5 -13q25 0 38 20.5t13 65.5v427q0 111 -101 111q-35 0 -69 -16t-64 -44v-407h-96v530h81l5 -64q31 31 73 55t94 24q94 0 133.5 -45.5t39.5 -153.5v-407q0 -94 -40 -134t-112 -40z" />
    <glyph glyph-name="Omacron" unicode="&#x14c;" horiz-adv-x="724" 
d="M361 -15q-83 0 -149 41t-104 122.5t-38 202.5q0 120 38 201t104 122t149 41t149 -41t105 -122t39 -201q0 -121 -39 -202.5t-105 -122.5t-149 -41zM361 63q86 0 139.5 70.5t53.5 217.5q0 146 -53.5 216t-139.5 70q-84 0 -137.5 -70t-53.5 -216q0 -147 53.5 -217.5
t137.5 -70.5zM217 809v75h289v-75h-289z" />
    <glyph glyph-name="omacron" unicode="&#x14d;" horiz-adv-x="623" 
d="M311 -15q-69 0 -123.5 31.5t-86 94t-31.5 154.5q0 93 31.5 155t86 93.5t123.5 31.5t123.5 -31.5t86.5 -93.5t32 -155q0 -92 -32 -154.5t-86.5 -94t-123.5 -31.5zM311 63q62 0 102 49.5t40 152.5t-40 152.5t-102 49.5q-61 0 -101 -49.5t-40 -152.5t40 -152.5t101 -49.5z
M167 659v75h289v-75h-289z" />
    <glyph glyph-name="Obreve" unicode="&#x14e;" horiz-adv-x="724" 
d="M361 -15q-83 0 -149 41t-104 122.5t-38 202.5q0 120 38 201t104 122t149 41t149 -41t105 -122t39 -201q0 -121 -39 -202.5t-105 -122.5t-149 -41zM361 63q86 0 139.5 70.5t53.5 217.5q0 146 -53.5 216t-139.5 70q-84 0 -137.5 -70t-53.5 -216q0 -147 53.5 -217.5
t137.5 -70.5zM361 759q-36 0 -65.5 20.5t-52 53.5t-40.5 70l57 27q13 -18 27 -38t33 -34.5t45 -14.5t44 15.5t31.5 36t23.5 35.5l57 -27q-17 -37 -40 -70t-52.5 -53.5t-67.5 -20.5z" />
    <glyph glyph-name="obreve" unicode="&#x14f;" horiz-adv-x="623" 
d="M311 -15q-69 0 -123.5 31.5t-86 94t-31.5 154.5q0 93 31.5 155t86 93.5t123.5 31.5t123.5 -31.5t86.5 -93.5t32 -155q0 -92 -32 -154.5t-86.5 -94t-123.5 -31.5zM311 63q62 0 102 49.5t40 152.5t-40 152.5t-102 49.5q-61 0 -101 -49.5t-40 -152.5t40 -152.5t101 -49.5z
M311 609q-36 0 -65.5 20.5t-52 53.5t-40.5 70l57 27q13 -18 27 -38t33 -34.5t45 -14.5t44 15.5t31.5 36t23.5 35.5l57 -27q-17 -37 -40 -70t-52.5 -53.5t-67.5 -20.5z" />
    <glyph glyph-name="Ohungarumlaut" unicode="&#x150;" horiz-adv-x="724" 
d="M361 -15q-83 0 -149 41t-104 122.5t-38 202.5q0 120 38 201t104 122t149 41t149 -41t105 -122t39 -201q0 -121 -39 -202.5t-105 -122.5t-149 -41zM361 63q86 0 139.5 70.5t53.5 217.5q0 146 -53.5 216t-139.5 70q-84 0 -137.5 -70t-53.5 -216q0 -147 53.5 -217.5
t137.5 -70.5zM431 757l-37 51l162 132l50 -73zM212 757l-37 51l162 132l50 -73z" />
    <glyph glyph-name="ohungarumlaut" unicode="&#x151;" horiz-adv-x="623" 
d="M311 -15q-69 0 -123.5 31.5t-86 94t-31.5 154.5q0 93 31.5 155t86 93.5t123.5 31.5t123.5 -31.5t86.5 -93.5t32 -155q0 -92 -32 -154.5t-86.5 -94t-123.5 -31.5zM311 63q62 0 102 49.5t40 152.5t-40 152.5t-102 49.5q-61 0 -101 -49.5t-40 -152.5t40 -152.5t101 -49.5z
M392 607l-37 51l162 132l50 -73zM173 607l-37 51l162 132l50 -73z" />
    <glyph glyph-name="OE" unicode="&#x152;" horiz-adv-x="906" 
d="M361 0q-84 0 -150 39.5t-103.5 118t-37.5 193.5q0 116 38 193.5t103.5 116.5t147.5 39h482v-78h-294v-233h264v-78h-264v-233h294v-78h-480zM365 78h86v544h-89q-83 0 -137.5 -66t-54.5 -205t55 -206t140 -67z" />
    <glyph glyph-name="oe" unicode="&#x153;" horiz-adv-x="974" 
d="M311 -15q-69 0 -123.5 31.5t-86 94t-31.5 154.5q0 93 31.5 155t86 93.5t123.5 31.5t123.5 -31.5t86.5 -93.5t32 -155q0 -92 -32 -154.5t-86.5 -94t-123.5 -31.5zM311 63q62 0 102 49.5t40 152.5t-40 152.5t-102 49.5q-61 0 -101 -49.5t-40 -152.5t40 -152.5t101 -49.5z
M698 -15q-71 0 -126.5 31.5t-87 94t-31.5 154.5q0 93 31.5 155t85.5 93.5t121 31.5q95 0 154 -59t59 -179v-70h-350q6 -88 46.5 -131t100.5 -43q51 0 89 19.5t60 41.5l43 -52q-31 -35 -81 -61t-114 -26zM555 307h254q0 77 -30.5 118.5t-86.5 41.5q-54 0 -91.5 -39.5
t-45.5 -120.5z" />
    <glyph glyph-name="Racute" unicode="&#x154;" horiz-adv-x="611" 
d="M100 0v700h202q80 0 133 -28t79.5 -75.5t26.5 -106.5q0 -64 -30.5 -112.5t-91.5 -72.5q14 -10 22.5 -22.5t14.5 -24.5l125 -258h-105l-111 242q-12 26 -27 35t-35 9h-107v-286h-96zM196 364h106q57 0 88.5 19t44.5 49t13 61t-13 60.5t-44.5 49t-88.5 19.5h-106v-258z
M220 757l-32 58l206 125l41 -73z" />
    <glyph glyph-name="racute" unicode="&#x155;" horiz-adv-x="365" 
d="M100 0v530h81l5 -65q31 35 74 57t91 23l5 -72l-12 -11q-46 -1 -84 -16.5t-64 -42.5v-403h-96zM131 607l-32 58l206 125l41 -73z" />
    <glyph glyph-name="uni0156" unicode="&#x156;" horiz-adv-x="611" 
d="M100 0v700h202q80 0 133 -28t79.5 -75.5t26.5 -106.5q0 -64 -30.5 -112.5t-91.5 -72.5q14 -10 22.5 -22.5t14.5 -24.5l125 -258h-105l-111 242q-12 26 -27 35t-35 9h-107v-286h-96zM196 364h106q57 0 88.5 19t44.5 49t13 61t-13 60.5t-44.5 49t-88.5 19.5h-106v-258z
M305 -301l-42 28q13 15 23 34t10 38q0 21 -7.5 32.5t-15 23.5t-7.5 33q0 32 17.5 47t43.5 15q27 0 44.5 -15t17.5 -47q0 -30 -12 -65.5t-31.5 -68t-40.5 -55.5z" />
    <glyph glyph-name="uni0157" unicode="&#x157;" horiz-adv-x="365" 
d="M100 0v530h81l5 -65q31 35 74 57t91 23l5 -72l-12 -11q-46 -1 -84 -16.5t-64 -42.5v-403h-96zM130 -301l-42 28q13 15 23 34t10 38q0 21 -7.5 32.5t-15 23.5t-7.5 33q0 32 17.5 47t43.5 15q27 0 44.5 -15t17.5 -47q0 -30 -12 -65.5t-31.5 -68t-40.5 -55.5z" />
    <glyph glyph-name="Rcaron" unicode="&#x158;" horiz-adv-x="611" 
d="M100 0v700h202q80 0 133 -28t79.5 -75.5t26.5 -106.5q0 -64 -30.5 -112.5t-91.5 -72.5q14 -10 22.5 -22.5t14.5 -24.5l125 -258h-105l-111 242q-12 26 -27 35t-35 9h-107v-286h-96zM196 364h106q57 0 88.5 19t44.5 49t13 61t-13 60.5t-44.5 49t-88.5 19.5h-106v-258z
M299 754l-151 132l37 51l127 -89l127 89l37 -51l-151 -132h-26z" />
    <glyph glyph-name="rcaron" unicode="&#x159;" horiz-adv-x="365" 
d="M100 0v530h81l5 -65q31 35 74 57t91 23l5 -72l-12 -11q-46 -1 -84 -16.5t-64 -42.5v-403h-96zM210 604l-151 132l37 51l127 -89l127 89l37 -51l-151 -132h-26z" />
    <glyph glyph-name="Sacute" unicode="&#x15a;" horiz-adv-x="566" 
d="M281 -15q-88 0 -148 43.5t-85 142.5l86 31q35 -139 156 -139q56 0 92 28.5t36 71.5q0 35 -19 59t-50 41.5t-68.5 33.5t-74.5 34.5t-68 44t-50 62.5t-19 89q0 30 11.5 63t37.5 61t68.5 46t105.5 18q83 0 138.5 -35.5t79.5 -116.5l-87 -31q-16 49 -52.5 77t-91.5 28
q-50 0 -82 -27t-32 -75q0 -41 25 -68t65 -47t84.5 -39t84.5 -44t65 -62t25 -93q0 -31 -12 -65.5t-39 -64.5t-71.5 -48.5t-110.5 -18.5zM201 757l-32 58l206 125l41 -73z" />
    <glyph glyph-name="sacute" unicode="&#x15b;" horiz-adv-x="486" 
d="M250 -15q-85 0 -131 41t-63 112l83 28q7 -44 24.5 -67.5t42.5 -32t51 -8.5q34 0 60 17t26 51q0 26 -19.5 43.5t-50 32t-65 30t-65 37t-50 53.5t-19.5 79q0 31 17 64t57.5 56.5t109.5 23.5q68 0 114.5 -31t65.5 -102l-83 -28q-11 41 -36 64.5t-63 23.5t-64 -17t-26 -52
q0 -28 19.5 -47t50 -33.5t65 -29.5t65 -35t50 -50t19.5 -75q0 -67 -49.5 -107.5t-135.5 -40.5zM161 607l-32 58l206 125l41 -73z" />
    <glyph glyph-name="Scircumflex" unicode="&#x15c;" horiz-adv-x="566" 
d="M281 -15q-88 0 -148 43.5t-85 142.5l86 31q35 -139 156 -139q56 0 92 28.5t36 71.5q0 35 -19 59t-50 41.5t-68.5 33.5t-74.5 34.5t-68 44t-50 62.5t-19 89q0 30 11.5 63t37.5 61t68.5 46t105.5 18q83 0 138.5 -35.5t79.5 -116.5l-87 -31q-16 49 -52.5 77t-91.5 28
q-50 0 -82 -27t-32 -75q0 -41 25 -68t65 -47t84.5 -39t84.5 -44t65 -62t25 -93q0 -31 -12 -65.5t-39 -64.5t-71.5 -48.5t-110.5 -18.5zM166 757l-37 51l151 132h26l151 -132l-37 -51l-127 89z" />
    <glyph glyph-name="scircumflex" unicode="&#x15d;" horiz-adv-x="486" 
d="M250 -15q-85 0 -131 41t-63 112l83 28q7 -44 24.5 -67.5t42.5 -32t51 -8.5q34 0 60 17t26 51q0 26 -19.5 43.5t-50 32t-65 30t-65 37t-50 53.5t-19.5 79q0 31 17 64t57.5 56.5t109.5 23.5q68 0 114.5 -31t65.5 -102l-83 -28q-11 41 -36 64.5t-63 23.5t-64 -17t-26 -52
q0 -28 19.5 -47t50 -33.5t65 -29.5t65 -35t50 -50t19.5 -75q0 -67 -49.5 -107.5t-135.5 -40.5zM126 607l-37 51l151 132h26l151 -132l-37 -51l-127 89z" />
    <glyph glyph-name="Scedilla" unicode="&#x15e;" horiz-adv-x="566" 
d="M281 -15q-88 0 -148 43.5t-85 142.5l86 31q35 -139 156 -139q56 0 92 28.5t36 71.5q0 35 -19 59t-50 41.5t-68.5 33.5t-74.5 34.5t-68 44t-50 62.5t-19 89q0 30 11.5 63t37.5 61t68.5 46t105.5 18q83 0 138.5 -35.5t79.5 -116.5l-87 -31q-16 49 -52.5 77t-91.5 28
q-50 0 -82 -27t-32 -75q0 -41 25 -68t65 -47t84.5 -39t84.5 -44t65 -62t25 -93q0 -31 -12 -65.5t-39 -64.5t-71.5 -48.5t-110.5 -18.5zM270 -210q-36 0 -65.5 13.5t-49.5 27.5l28 53q33 -23 70 -23q23 0 39.5 12.5t16.5 41.5q0 20 -13.5 42t-42.5 37l16 33q62 -20 92 -54
t30 -74q0 -43 -31.5 -76t-89.5 -33z" />
    <glyph glyph-name="scedilla" unicode="&#x15f;" horiz-adv-x="486" 
d="M250 -15q-85 0 -131 41t-63 112l83 28q7 -44 24.5 -67.5t42.5 -32t51 -8.5q34 0 60 17t26 51q0 26 -19.5 43.5t-50 32t-65 30t-65 37t-50 53.5t-19.5 79q0 31 17 64t57.5 56.5t109.5 23.5q68 0 114.5 -31t65.5 -102l-83 -28q-11 41 -36 64.5t-63 23.5t-64 -17t-26 -52
q0 -28 19.5 -47t50 -33.5t65 -29.5t65 -35t50 -50t19.5 -75q0 -67 -49.5 -107.5t-135.5 -40.5zM240 -210q-36 0 -65.5 13.5t-49.5 27.5l28 53q33 -23 70 -23q23 0 39.5 12.5t16.5 41.5q0 20 -13.5 42t-42.5 37l16 33q62 -20 92 -54t30 -74q0 -43 -31.5 -76t-89.5 -33z" />
    <glyph glyph-name="Scaron" unicode="&#x160;" horiz-adv-x="566" 
d="M281 -15q-88 0 -148 43.5t-85 142.5l86 31q35 -139 156 -139q56 0 92 28.5t36 71.5q0 35 -19 59t-50 41.5t-68.5 33.5t-74.5 34.5t-68 44t-50 62.5t-19 89q0 30 11.5 63t37.5 61t68.5 46t105.5 18q83 0 138.5 -35.5t79.5 -116.5l-87 -31q-16 49 -52.5 77t-91.5 28
q-50 0 -82 -27t-32 -75q0 -41 25 -68t65 -47t84.5 -39t84.5 -44t65 -62t25 -93q0 -31 -12 -65.5t-39 -64.5t-71.5 -48.5t-110.5 -18.5zM280 754l-151 132l37 51l127 -89l127 89l37 -51l-151 -132h-26z" />
    <glyph glyph-name="scaron" unicode="&#x161;" horiz-adv-x="486" 
d="M250 -15q-85 0 -131 41t-63 112l83 28q7 -44 24.5 -67.5t42.5 -32t51 -8.5q34 0 60 17t26 51q0 26 -19.5 43.5t-50 32t-65 30t-65 37t-50 53.5t-19.5 79q0 31 17 64t57.5 56.5t109.5 23.5q68 0 114.5 -31t65.5 -102l-83 -28q-11 41 -36 64.5t-63 23.5t-64 -17t-26 -52
q0 -28 19.5 -47t50 -33.5t65 -29.5t65 -35t50 -50t19.5 -75q0 -67 -49.5 -107.5t-135.5 -40.5zM240 604l-151 132l37 51l127 -89l127 89l37 -51l-151 -132h-26z" />
    <glyph glyph-name="uni0162" unicode="&#x162;" horiz-adv-x="474" 
d="M189 0v622h-184v78h464v-78h-184v-622h-96zM214 -200q-36 0 -65.5 13.5t-49.5 27.5l28 53q33 -23 70 -23q23 0 39.5 12.5t16.5 41.5q0 20 -13.5 42t-42.5 37l16 33q62 -20 92 -54t30 -74q0 -43 -31.5 -76t-89.5 -33z" />
    <glyph glyph-name="uni0163" unicode="&#x163;" horiz-adv-x="397" 
d="M239 -15q-52 0 -80 36t-28 103v336h-76v70h76v110l76 20h20v-130h140v-70h-140v-346q0 -48 47 -48q31 0 77 28l26 -60q-30 -22 -67.5 -35.5t-70.5 -13.5zM193 -200q-36 0 -65.5 13.5t-49.5 27.5l28 53q33 -23 70 -23q23 0 39.5 12.5t16.5 41.5q0 20 -13.5 42t-42.5 37
l16 33q62 -20 92 -54t30 -74q0 -43 -31.5 -76t-89.5 -33z" />
    <glyph glyph-name="Tcaron" unicode="&#x164;" horiz-adv-x="474" 
d="M189 0v622h-184v78h464v-78h-184v-622h-96zM224 754l-151 132l37 51l127 -89l127 89l37 -51l-151 -132h-26z" />
    <glyph glyph-name="tcaron" unicode="&#x165;" horiz-adv-x="397" 
d="M239 -15q-52 0 -80 36t-28 103v336h-76v70h76v110l76 20h20v-130h140v-70h-140v-346q0 -48 47 -48q31 0 77 28l26 -60q-30 -22 -67.5 -35.5t-70.5 -13.5zM296 679q0 21 -7.5 32.5t-15 23.5t-7.5 33q0 32 17.5 47t43.5 15q27 0 44.5 -15t17.5 -47q0 -30 -12 -65.5
t-31.5 -68t-40.5 -55.5l-42 28q13 15 23 34t10 38z" />
    <glyph glyph-name="Tbar" unicode="&#x166;" horiz-adv-x="474" 
d="M189 0v266h-122v70h122v286h-184v78h464v-78h-184v-286h122v-70h-122v-266h-96z" />
    <glyph glyph-name="tbar" unicode="&#x167;" horiz-adv-x="397" 
d="M239 -15q-52 0 -80 36t-28 103v142h-87v70h87v124h-76v70h76v110l76 20h20v-130h140v-70h-140v-124h89v-70h-89v-152q0 -48 47 -48q31 0 77 28l26 -60q-30 -22 -67.5 -35.5t-70.5 -13.5z" />
    <glyph glyph-name="Utilde" unicode="&#x168;" horiz-adv-x="671" 
d="M335 -15q-70 0 -125.5 27t-87.5 82.5t-32 141.5v464h96v-464q0 -96 41 -136t108 -40q68 0 109 40t41 136v464h96v-464q0 -86 -32.5 -141.5t-88.5 -82.5t-125 -27zM403 789q-26 0 -47.5 8.5t-42 17t-46.5 8.5q-14 0 -26 -6t-21 -23l-57 28q19 44 48 63t56 19t48 -8.5
l42 -17t46 -8.5q14 0 26 6t22 23l57 -28q-19 -43 -48 -62.5t-57 -19.5z" />
    <glyph glyph-name="utilde" unicode="&#x169;" horiz-adv-x="617" 
d="M241 -15q-79 0 -115 47.5t-36 138.5v359h96v-360q0 -53 19.5 -80t63.5 -27t80 16t66 43v408h96v-445q0 -16 7.5 -21.5t18.5 -5.5q8 0 17.5 2.5t16.5 6.5l16 -62q-16 -7 -35 -13.5t-42 -6.5q-34 0 -58.5 16t-30.5 60q-31 -30 -76 -53t-104 -23zM376 639q-26 0 -47.5 8.5
t-42 17t-46.5 8.5q-14 0 -26 -6t-21 -23l-57 28q19 44 48 63t56 19t48 -8.5l42 -17t46 -8.5q14 0 26 6t22 23l57 -28q-19 -43 -48 -62.5t-57 -19.5z" />
    <glyph glyph-name="Umacron" unicode="&#x16a;" horiz-adv-x="671" 
d="M335 -15q-70 0 -125.5 27t-87.5 82.5t-32 141.5v464h96v-464q0 -96 41 -136t108 -40q68 0 109 40t41 136v464h96v-464q0 -86 -32.5 -141.5t-88.5 -82.5t-125 -27zM191 809v75h289v-75h-289z" />
    <glyph glyph-name="umacron" unicode="&#x16b;" horiz-adv-x="617" 
d="M241 -15q-79 0 -115 47.5t-36 138.5v359h96v-360q0 -53 19.5 -80t63.5 -27t80 16t66 43v408h96v-445q0 -16 7.5 -21.5t18.5 -5.5q8 0 17.5 2.5t16.5 6.5l16 -62q-16 -7 -35 -13.5t-42 -6.5q-34 0 -58.5 16t-30.5 60q-31 -30 -76 -53t-104 -23zM164 659v75h289v-75h-289z
" />
    <glyph glyph-name="Ubreve" unicode="&#x16c;" horiz-adv-x="671" 
d="M335 -15q-70 0 -125.5 27t-87.5 82.5t-32 141.5v464h96v-464q0 -96 41 -136t108 -40q68 0 109 40t41 136v464h96v-464q0 -86 -32.5 -141.5t-88.5 -82.5t-125 -27zM335 759q-36 0 -65.5 20.5t-52 53.5t-40.5 70l57 27q13 -18 27 -38t33 -34.5t45 -14.5t44 15.5t31.5 36
t23.5 35.5l57 -27q-17 -37 -40 -70t-52.5 -53.5t-67.5 -20.5z" />
    <glyph glyph-name="ubreve" unicode="&#x16d;" horiz-adv-x="617" 
d="M241 -15q-79 0 -115 47.5t-36 138.5v359h96v-360q0 -53 19.5 -80t63.5 -27t80 16t66 43v408h96v-445q0 -16 7.5 -21.5t18.5 -5.5q8 0 17.5 2.5t16.5 6.5l16 -62q-16 -7 -35 -13.5t-42 -6.5q-34 0 -58.5 16t-30.5 60q-31 -30 -76 -53t-104 -23zM308 609q-36 0 -65.5 20.5
t-52 53.5t-40.5 70l57 27q13 -18 27 -38t33 -34.5t45 -14.5t44 15.5t31.5 36t23.5 35.5l57 -27q-17 -37 -40 -70t-52.5 -53.5t-67.5 -20.5z" />
    <glyph glyph-name="Uring" unicode="&#x16e;" horiz-adv-x="671" 
d="M335 -15q-70 0 -125.5 27t-87.5 82.5t-32 141.5v464h96v-464q0 -96 41 -136t108 -40q68 0 109 40t41 136v464h96v-464q0 -86 -32.5 -141.5t-88.5 -82.5t-125 -27zM335 734q-47 0 -78.5 27.5t-31.5 85.5t31.5 85.5t78.5 27.5q48 0 79.5 -27.5t31.5 -85.5t-31.5 -85.5
t-79.5 -27.5zM335 793q23 0 38 13t15 41t-15 41t-38 13q-22 0 -37 -13t-15 -41t15 -41t37 -13z" />
    <glyph glyph-name="uring" unicode="&#x16f;" horiz-adv-x="617" 
d="M241 -15q-79 0 -115 47.5t-36 138.5v359h96v-360q0 -53 19.5 -80t63.5 -27t80 16t66 43v408h96v-445q0 -16 7.5 -21.5t18.5 -5.5q8 0 17.5 2.5t16.5 6.5l16 -62q-16 -7 -35 -13.5t-42 -6.5q-34 0 -58.5 16t-30.5 60q-31 -30 -76 -53t-104 -23zM308 584q-47 0 -78.5 27.5
t-31.5 85.5t31.5 85.5t78.5 27.5q48 0 79.5 -27.5t31.5 -85.5t-31.5 -85.5t-79.5 -27.5zM308 643q23 0 38 13t15 41t-15 41t-38 13q-22 0 -37 -13t-15 -41t15 -41t37 -13z" />
    <glyph glyph-name="Uhungarumlaut" unicode="&#x170;" horiz-adv-x="671" 
d="M335 -15q-70 0 -125.5 27t-87.5 82.5t-32 141.5v464h96v-464q0 -96 41 -136t108 -40q68 0 109 40t41 136v464h96v-464q0 -86 -32.5 -141.5t-88.5 -82.5t-125 -27zM405 757l-37 51l162 132l50 -73zM186 757l-37 51l162 132l50 -73z" />
    <glyph glyph-name="uhungarumlaut" unicode="&#x171;" horiz-adv-x="617" 
d="M241 -15q-79 0 -115 47.5t-36 138.5v359h96v-360q0 -53 19.5 -80t63.5 -27t80 16t66 43v408h96v-445q0 -16 7.5 -21.5t18.5 -5.5q8 0 17.5 2.5t16.5 6.5l16 -62q-16 -7 -35 -13.5t-42 -6.5q-34 0 -58.5 16t-30.5 60q-31 -30 -76 -53t-104 -23zM389 607l-37 51l162 132
l50 -73zM170 607l-37 51l162 132l50 -73z" />
    <glyph glyph-name="Uogonek" unicode="&#x172;" horiz-adv-x="671" 
d="M335 -15q-70 0 -125.5 27t-87.5 82.5t-32 141.5v464h96v-464q0 -96 41 -136t108 -40q68 0 109 40t41 136v464h96v-464q0 -86 -32.5 -141.5t-88.5 -82.5t-125 -27zM388 -204q-58 0 -89.5 33t-31.5 76q0 40 30.5 74t91.5 54l16 -33q-29 -15 -42.5 -37t-13.5 -42
q0 -29 17 -41.5t39 -12.5q37 0 70 23l28 -53q-20 -14 -49.5 -27.5t-65.5 -13.5z" />
    <glyph glyph-name="uogonek" unicode="&#x173;" horiz-adv-x="617" 
d="M241 -15q-79 0 -115 47.5t-36 138.5v359h96v-360q0 -53 19.5 -80t63.5 -27t80 16t66 43v408h96v-445q0 -16 7.5 -21.5t18.5 -5.5q8 0 17.5 2.5t16.5 6.5l16 -62q-16 -7 -35 -13.5t-42 -6.5q-34 0 -58.5 16t-30.5 60q-31 -30 -76 -53t-104 -23zM559 -204q-58 0 -89.5 33
t-31.5 76q0 40 30.5 74t91.5 54l16 -33q-29 -15 -42.5 -37t-13.5 -42q0 -29 17 -41.5t39 -12.5q37 0 70 23l28 -53q-20 -14 -49.5 -27.5t-65.5 -13.5z" />
    <glyph glyph-name="Wcircumflex" unicode="&#x174;" horiz-adv-x="920" 
d="M185 0l-155 700h94l137 -622l147 622h104l146 -621l138 621h94l-155 -700h-142l-133 564l-133 -564h-142zM333 757l-37 51l151 132h26l151 -132l-37 -51l-127 89z" />
    <glyph glyph-name="wcircumflex" unicode="&#x175;" horiz-adv-x="813" 
d="M185 0l-140 530h97l114 -444l112 444h87l111 -444l115 444h87l-140 -530h-121l-96 372l-95 -372h-131zM280 607l-37 51l151 132h26l151 -132l-37 -51l-127 89z" />
    <glyph glyph-name="Ycircumflex" unicode="&#x176;" horiz-adv-x="516" 
d="M210 0v260l-195 440h99l144 -339l144 339h99l-195 -440v-260h-96zM131 757l-37 51l151 132h26l151 -132l-37 -51l-127 89z" />
    <glyph glyph-name="ycircumflex" unicode="&#x177;" horiz-adv-x="536" 
d="M149 -235q-43 0 -80.5 20.5t-60.5 42.5l47 60q16 -16 37.5 -29t49.5 -13q31 0 50 18t19 56q0 27 -7 67t-21 81l-148 462h99l139 -460l139 460h89l-201 -626q-25 -78 -61.5 -108.5t-89.5 -30.5zM141 607l-37 51l151 132h26l151 -132l-37 -51l-127 89z" />
    <glyph glyph-name="Ydieresis" unicode="&#x178;" horiz-adv-x="516" 
d="M210 0v260l-195 440h99l144 -339l144 339h99l-195 -440v-260h-96zM352 788q-24 0 -40.5 14.5t-16.5 44.5t16.5 44.5t40.5 14.5q25 0 41.5 -14.5t16.5 -44.5t-16.5 -44.5t-41.5 -14.5zM163 788q-24 0 -40.5 14.5t-16.5 44.5t16.5 44.5t40.5 14.5q25 0 41.5 -14.5
t16.5 -44.5t-16.5 -44.5t-41.5 -14.5z" />
    <glyph glyph-name="Zacute" unicode="&#x179;" horiz-adv-x="527" 
d="M35 0v44l333 578h-308v78h432v-44l-333 -578h326v-78h-450zM192 757l-32 58l206 125l41 -73z" />
    <glyph glyph-name="zacute" unicode="&#x17a;" horiz-adv-x="462" 
d="M45 0v50l258 405h-238v75h352v-50l-258 -405h253v-75h-367zM159 607l-32 58l206 125l41 -73z" />
    <glyph glyph-name="Zdotaccent" unicode="&#x17b;" horiz-adv-x="527" 
d="M35 0v44l333 578h-308v78h432v-44l-333 -578h326v-78h-450zM283 780q-28 0 -46.5 16.5t-18.5 50.5q0 35 18.5 51t46.5 16q29 0 47.5 -16t18.5 -51q0 -34 -18.5 -50.5t-47.5 -16.5z" />
    <glyph glyph-name="zdotaccent" unicode="&#x17c;" horiz-adv-x="462" 
d="M45 0v50l258 405h-238v75h352v-50l-258 -405h253v-75h-367zM250 630q-28 0 -46.5 16.5t-18.5 50.5q0 35 18.5 51t46.5 16q29 0 47.5 -16t18.5 -51q0 -34 -18.5 -50.5t-47.5 -16.5z" />
    <glyph glyph-name="Zcaron" unicode="&#x17d;" horiz-adv-x="527" 
d="M35 0v44l333 578h-308v78h432v-44l-333 -578h326v-78h-450zM271 754l-151 132l37 51l127 -89l127 89l37 -51l-151 -132h-26z" />
    <glyph glyph-name="zcaron" unicode="&#x17e;" horiz-adv-x="462" 
d="M45 0v50l258 405h-238v75h352v-50l-258 -405h253v-75h-367zM238 604l-151 132l37 51l127 -89l127 89l37 -51l-151 -132h-26z" />
    <glyph glyph-name="florin" unicode="&#x192;" horiz-adv-x="566" 
d="M136 -232l-10 77q40 4 64 34t24 96v291h-111v70h111v130q0 95 49.5 152t130.5 57q35 0 71 -9t65 -27l-37 -76q-18 14 -48 21t-48 7q-40 0 -63.5 -31.5t-23.5 -99.5v-124h133v-70h-133v-291q0 -49 -16.5 -93.5t-54.5 -75t-103 -38.5z" />
    <glyph glyph-name="Aringacute" unicode="&#x1fa;" horiz-adv-x="582" 
d="M294 734q-47 0 -78.5 27.5t-31.5 85.5t31.5 85.5t78.5 27.5q6 0 11.5 -0.5t10.5 -1.5l118 72l31 -73l-86 -31q12 -13 19 -33t7 -46q0 -58 -31.5 -85.5t-79.5 -27.5zM294 793q23 0 38 13t15 41t-15 41t-38 13q-22 0 -37 -13t-15 -41t15 -41t37 -13zM15 0l200 700h152
l200 -700h-94l-55 191h-255l-54 -191h-94zM186 269h210l-105 368z" />
    <glyph glyph-name="aringacute" unicode="&#x1fb;" horiz-adv-x="567" 
d="M269 584q-47 0 -78.5 27.5t-31.5 85.5t31.5 85.5t78.5 27.5q6 0 11.5 -0.5t10.5 -1.5l118 72l31 -73l-86 -31q12 -13 19 -33t7 -46q0 -58 -31.5 -85.5t-79.5 -27.5zM269 643q23 0 38 13t15 41t-15 41t-38 13q-22 0 -37 -13t-15 -41t15 -41t37 -13zM198 -15
q-40 0 -72.5 20t-51.5 54t-19 76q0 82 56 128t153 46q27 0 54 -4t52 -12v63q0 52 -27 81.5t-75 29.5q-84 0 -109 -83l-83 28q40 133 192 133q104 0 151 -52.5t47 -171.5v-236q0 -16 7.5 -21.5t18.5 -5.5q8 0 17.5 2.5t16.5 6.5l16 -62q-16 -7 -35 -13.5t-42 -6.5
q-36 0 -60.5 18t-29.5 67q-31 -32 -75.5 -58.5t-101.5 -26.5zM227 63q38 0 75 19t68 50v97q-21 7 -45 11t-47 4q-33 0 -62 -9.5t-47 -31.5t-18 -60q0 -33 21 -56.5t55 -23.5z" />
    <glyph glyph-name="AEacute" unicode="&#x1fc;" horiz-adv-x="860" 
d="M5 0l330 700h460v-78h-294v-263h264v-78h-264v-203h294v-78h-390v281h-169l-132 -281h-99zM273 359h132v263h-8zM478 757l-32 58l206 125l41 -73z" />
    <glyph glyph-name="aeacute" unicode="&#x1fd;" horiz-adv-x="891" 
d="M208 -15q-41 0 -76 15t-56 48t-21 87q0 82 53 127t150 45h112v49q0 55 -28.5 83t-73.5 28q-84 0 -109 -83l-83 28q22 71 72 102t120 31q62 0 102.5 -18t63.5 -58q65 76 174 76q95 0 154 -59t59 -179v-70h-354q6 -88 48.5 -131t102.5 -43q51 0 89 19.5t60 41.5l43 -52
q-31 -35 -81 -61t-114 -26q-63 0 -113.5 24.5t-83.5 72.5q-37 -42 -94 -69.5t-116 -27.5zM468 307h258q0 77 -30.5 118.5t-86.5 41.5q-54 0 -93 -39.5t-48 -120.5zM227 63q42 0 84 22.5t76 59.5q-7 20 -10.5 43.5t-5.5 48.5h-93q-33 0 -62 -7.5t-47 -28t-18 -58.5
q0 -33 21 -56.5t55 -23.5zM404 607l-32 58l206 125l41 -73z" />
    <glyph glyph-name="Oslashacute" unicode="&#x1fe;" horiz-adv-x="724" 
d="M361 -15q-83 0 -149 41t-104 122.5t-38 202.5q0 120 38 201t104 122t149 41t149 -41t105 -122t39 -201q0 -121 -39 -202.5t-105 -122.5t-149 -41zM361 63q86 0 139.5 70.5t53.5 217.5q0 146 -53.5 216t-139.5 70q-84 0 -137.5 -70t-53.5 -216q0 -147 53.5 -217.5
t137.5 -70.5zM201 -55l256 810h66l-257 -810h-65zM270 757l-32 58l206 125l41 -73z" />
    <glyph glyph-name="oslashacute" unicode="&#x1ff;" horiz-adv-x="623" 
d="M150 -80l36 97q-53 32 -84.5 94t-31.5 154q0 93 31.5 155t86 93.5t123.5 31.5q36 0 68 -9l27 73h66l-36 -96q53 -32 85 -94t32 -154t-32 -154.5t-86.5 -94t-123.5 -31.5q-36 0 -69 9l-27 -74h-65zM170 265q0 -57 12.5 -97.5t35.5 -64.5l133 358q-19 6 -40 6
q-61 0 -101 -49.5t-40 -152.5zM311 63q62 0 102 49.5t40 152.5q0 57 -13 97.5t-36 65.5l-133 -359q18 -6 40 -6zM220 607l-32 58l206 125l41 -73z" />
    <glyph glyph-name="uni0218" unicode="&#x218;" horiz-adv-x="566" 
d="M281 -15q-88 0 -148 43.5t-85 142.5l86 31q35 -139 156 -139q56 0 92 28.5t36 71.5q0 35 -19 59t-50 41.5t-68.5 33.5t-74.5 34.5t-68 44t-50 62.5t-19 89q0 30 11.5 63t37.5 61t68.5 46t105.5 18q83 0 138.5 -35.5t79.5 -116.5l-87 -31q-16 49 -52.5 77t-91.5 28
q-50 0 -82 -27t-32 -75q0 -41 25 -68t65 -47t84.5 -39t84.5 -44t65 -62t25 -93q0 -31 -12 -65.5t-39 -64.5t-71.5 -48.5t-110.5 -18.5zM252 -301l-42 28q13 15 23 34t10 38q0 21 -7.5 32.5t-15 23.5t-7.5 33q0 32 17.5 47t43.5 15q27 0 44.5 -15t17.5 -47q0 -30 -12 -65.5
t-31.5 -68t-40.5 -55.5z" />
    <glyph glyph-name="uni0219" unicode="&#x219;" horiz-adv-x="486" 
d="M250 -15q-85 0 -131 41t-63 112l83 28q7 -44 24.5 -67.5t42.5 -32t51 -8.5q34 0 60 17t26 51q0 26 -19.5 43.5t-50 32t-65 30t-65 37t-50 53.5t-19.5 79q0 31 17 64t57.5 56.5t109.5 23.5q68 0 114.5 -31t65.5 -102l-83 -28q-11 41 -36 64.5t-63 23.5t-64 -17t-26 -52
q0 -28 19.5 -47t50 -33.5t65 -29.5t65 -35t50 -50t19.5 -75q0 -67 -49.5 -107.5t-135.5 -40.5zM222 -301l-42 28q13 15 23 34t10 38q0 21 -7.5 32.5t-15 23.5t-7.5 33q0 32 17.5 47t43.5 15q27 0 44.5 -15t17.5 -47q0 -30 -12 -65.5t-31.5 -68t-40.5 -55.5z" />
    <glyph glyph-name="uni021A" unicode="&#x21a;" horiz-adv-x="474" 
d="M189 0v622h-184v78h464v-78h-184v-622h-96zM196 -291l-42 28q13 15 23 34t10 38q0 21 -7.5 32.5t-15 23.5t-7.5 33q0 32 17.5 47t43.5 15q27 0 44.5 -15t17.5 -47q0 -30 -12 -65.5t-31.5 -68t-40.5 -55.5z" />
    <glyph glyph-name="uni021B" unicode="&#x21b;" horiz-adv-x="397" 
d="M239 -15q-52 0 -80 36t-28 103v336h-76v70h76v110l76 20h20v-130h140v-70h-140v-346q0 -48 47 -48q31 0 77 28l26 -60q-30 -22 -67.5 -35.5t-70.5 -13.5zM175 -291l-42 28q13 15 23 34t10 38q0 21 -7.5 32.5t-15 23.5t-7.5 33q0 32 17.5 47t43.5 15q27 0 44.5 -15
t17.5 -47q0 -30 -12 -65.5t-31.5 -68t-40.5 -55.5z" />
    <glyph glyph-name="uni0237" unicode="&#x237;" 
d="M44 -235q-45 0 -76.5 21.5t-51.5 79.5l80 27q8 -24 19.5 -37t33.5 -13q25 0 38 20.5t13 65.5v601h96v-591q0 -94 -40 -134t-112 -40z" />
    <glyph glyph-name="circumflex" unicode="&#x2c6;" horiz-adv-x="436" 
d="M91 607l-37 51l151 132h26l151 -132l-37 -51l-127 89z" />
    <glyph glyph-name="caron" unicode="&#x2c7;" horiz-adv-x="436" 
d="M205 604l-151 132l37 51l127 -89l127 89l37 -51l-151 -132h-26z" />
    <glyph glyph-name="breve" unicode="&#x2d8;" horiz-adv-x="436" 
d="M217 609q-36 0 -65.5 20.5t-52 53.5t-40.5 70l57 27q13 -18 27 -38t33 -34.5t45 -14.5t44 15.5t31.5 36t23.5 35.5l57 -27q-17 -37 -40 -70t-52.5 -53.5t-67.5 -20.5z" />
    <glyph glyph-name="dotaccent" unicode="&#x2d9;" 
d="M148 630q-28 0 -46.5 16.5t-18.5 50.5q0 35 18.5 51t46.5 16q29 0 47.5 -16t18.5 -51q0 -34 -18.5 -50.5t-47.5 -16.5z" />
    <glyph glyph-name="ring" unicode="&#x2da;" 
d="M148 584q-47 0 -78.5 27.5t-31.5 85.5t31.5 85.5t78.5 27.5q48 0 79.5 -27.5t31.5 -85.5t-31.5 -85.5t-79.5 -27.5zM148 643q23 0 38 13t15 41t-15 41t-38 13q-22 0 -37 -13t-15 -41t15 -41t37 -13z" />
    <glyph glyph-name="ogonek" unicode="&#x2db;" horiz-adv-x="349" 
d="M171 -204q-58 0 -89.5 33t-31.5 76q0 40 30.5 74t91.5 54l16 -33q-29 -15 -42.5 -37t-13.5 -42q0 -29 17 -41.5t39 -12.5q37 0 70 23l28 -53q-20 -14 -49.5 -27.5t-65.5 -13.5z" />
    <glyph glyph-name="tilde" unicode="&#x2dc;" horiz-adv-x="555" 
d="M345 639q-26 0 -47.5 8.5t-42 17t-46.5 8.5q-14 0 -26 -6t-21 -23l-57 28q19 44 48 63t56 19t48 -8.5l42 -17t46 -8.5q14 0 26 6t22 23l57 -28q-19 -43 -48 -62.5t-57 -19.5z" />
    <glyph glyph-name="hungarumlaut" unicode="&#x2dd;" horiz-adv-x="431" 
d="M256 607l-37 51l162 132l50 -73zM37 607l-37 51l162 132l50 -73z" />
    <glyph glyph-name="gravecomb" unicode="&#x300;" horiz-adv-x="0" 
d="M335 607l-215 110l41 73l206 -125z" />
    <glyph glyph-name="acutecomb" unicode="&#x301;" horiz-adv-x="0" 
d="M134 607l-32 58l206 125l41 -73z" />
    <glyph glyph-name="uni0302" unicode="&#x302;" horiz-adv-x="0" 
d="M91 607l-37 51l151 132h26l151 -132l-37 -51l-127 89z" />
    <glyph glyph-name="tildecomb" unicode="&#x303;" horiz-adv-x="0" 
d="M345 639q-26 0 -47.5 8.5t-42 17t-46.5 8.5q-14 0 -26 -6t-21 -23l-57 28q19 44 48 63t56 19t48 -8.5l42 -17t46 -8.5q14 0 26 6t22 23l57 -28q-19 -43 -48 -62.5t-57 -19.5z" />
    <glyph glyph-name="uni0304" unicode="&#x304;" horiz-adv-x="0" 
d="M133 659v75h289v-75h-289z" />
    <glyph glyph-name="uni0306" unicode="&#x306;" horiz-adv-x="0" 
d="M217 609q-36 0 -65.5 20.5t-52 53.5t-40.5 70l57 27q13 -18 27 -38t33 -34.5t45 -14.5t44 15.5t31.5 36t23.5 35.5l57 -27q-17 -37 -40 -70t-52.5 -53.5t-67.5 -20.5z" />
    <glyph glyph-name="uni0307" unicode="&#x307;" horiz-adv-x="0" 
d="M148 630q-28 0 -46.5 16.5t-18.5 50.5q0 35 18.5 51t46.5 16q29 0 47.5 -16t18.5 -51q0 -34 -18.5 -50.5t-47.5 -16.5z" />
    <glyph glyph-name="uni0308" unicode="&#x308;" horiz-adv-x="0" 
d="M242 638q-24 0 -40.5 14.5t-16.5 44.5t16.5 44.5t40.5 14.5q25 0 41.5 -14.5t16.5 -44.5t-16.5 -44.5t-41.5 -14.5zM53 638q-24 0 -40.5 14.5t-16.5 44.5t16.5 44.5t40.5 14.5q25 0 41.5 -14.5t16.5 -44.5t-16.5 -44.5t-41.5 -14.5z" />
    <glyph glyph-name="uni030A" unicode="&#x30a;" horiz-adv-x="0" 
d="M148 584q-47 0 -78.5 27.5t-31.5 85.5t31.5 85.5t78.5 27.5q48 0 79.5 -27.5t31.5 -85.5t-31.5 -85.5t-79.5 -27.5zM148 643q23 0 38 13t15 41t-15 41t-38 13q-22 0 -37 -13t-15 -41t15 -41t37 -13z" />
    <glyph glyph-name="uni030B" unicode="&#x30b;" horiz-adv-x="0" 
d="M256 607l-37 51l162 132l50 -73zM37 607l-37 51l162 132l50 -73z" />
    <glyph glyph-name="uni030C" unicode="&#x30c;" horiz-adv-x="0" 
d="M205 604l-151 132l37 51l127 -89l127 89l37 -51l-151 -132h-26z" />
    <glyph glyph-name="uni0312" unicode="&#x312;" horiz-adv-x="0" 
d="M102 634q-27 0 -44.5 15t-17.5 47q0 30 12.5 65.5t31.5 68.5t40 55l42 -28q-13 -15 -23 -34t-10 -38q0 -20 7.5 -32l15 -24t7.5 -33q0 -32 -17.5 -47t-43.5 -15z" />
    <glyph glyph-name="uni0326" unicode="&#x326;" horiz-adv-x="0" 
d="M114 -301l-42 28q13 15 23 34t10 38q0 21 -7.5 32.5t-15 23.5t-7.5 33q0 32 17.5 47t43.5 15q27 0 44.5 -15t17.5 -47q0 -30 -12 -65.5t-31.5 -68t-40.5 -55.5z" />
    <glyph glyph-name="uni0327" unicode="&#x327;" horiz-adv-x="0" 
d="M260 -210q-36 0 -65.5 13.5t-49.5 27.5l28 53q33 -23 70 -23q23 0 39.5 12.5t16.5 41.5q0 20 -13.5 42t-42.5 37l16 33q62 -20 92 -54t30 -74q0 -43 -31.5 -76t-89.5 -33z" />
    <glyph glyph-name="uni0328" unicode="&#x328;" horiz-adv-x="0" 
d="M171 -204q-58 0 -89.5 33t-31.5 76q0 40 30.5 74t91.5 54l16 -33q-29 -15 -42.5 -37t-13.5 -42q0 -29 17 -41.5t39 -12.5q37 0 70 23l28 -53q-20 -14 -49.5 -27.5t-65.5 -13.5z" />
    <glyph glyph-name="uni0394" unicode="&#x394;" horiz-adv-x="582" 
d="M15 0l210 700h132l210 -700h-552zM114 68h338l-169 563z" />
    <glyph glyph-name="uni03A9" unicode="&#x3a9;" horiz-adv-x="767" 
d="M88 0v68h140v85q-71 33 -115 98.5t-44 149.5q0 104 42.5 173.5t114.5 105t158 35.5q87 0 158 -35.5t113.5 -105t42.5 -173.5q0 -84 -43.5 -149.5t-114.5 -98.5v-85h140v-68h-216v197q63 20 103.5 74t40.5 140q0 75 -30 126.5t-81 77.5t-113 26t-113 -26t-81.5 -77.5
t-30.5 -126.5q0 -87 40.5 -140.5t104.5 -73.5v-197h-216z" />
    <glyph glyph-name="uni03BC" unicode="&#x3bc;" horiz-adv-x="617" 
d="M90 -220v750h96v-360q0 -53 19.5 -80t63.5 -27t80 16t66 43v408h96v-445q0 -16 7.5 -21.5t18.5 -5.5q8 0 17.5 2.5t16.5 6.5l16 -62q-16 -7 -35 -13.5t-42 -6.5q-34 0 -58.5 16t-30.5 60q-30 -30 -71 -53t-89 -23q-31 0 -51.5 10.5t-33.5 26.5v-242h-86z" />
    <glyph glyph-name="pi" unicode="&#x3c0;" horiz-adv-x="627" 
d="M495 -15q-39 0 -67 21t-28 82v367h-173l-34 -455h-93l34 455h-73v75h505v-75h-70v-370q0 -16 6.5 -21.5t17.5 -5.5q18 0 36 9l16 -62q-16 -7 -35 -13.5t-42 -6.5z" />
    <glyph glyph-name="Wgrave" unicode="&#x1e80;" horiz-adv-x="920" 
d="M185 0l-155 700h94l137 -622l147 622h104l146 -621l138 621h94l-155 -700h-142l-133 564l-133 -564h-142zM551 757l-215 110l41 73l206 -125z" />
    <glyph glyph-name="wgrave" unicode="&#x1e81;" horiz-adv-x="813" 
d="M185 0l-140 530h97l114 -444l112 444h87l111 -444l115 444h87l-140 -530h-121l-96 372l-95 -372h-131zM498 607l-215 110l41 73l206 -125z" />
    <glyph glyph-name="Wacute" unicode="&#x1e82;" horiz-adv-x="920" 
d="M185 0l-155 700h94l137 -622l147 622h104l146 -621l138 621h94l-155 -700h-142l-133 564l-133 -564h-142zM368 757l-32 58l206 125l41 -73z" />
    <glyph glyph-name="wacute" unicode="&#x1e83;" horiz-adv-x="813" 
d="M185 0l-140 530h97l114 -444l112 444h87l111 -444l115 444h87l-140 -530h-121l-96 372l-95 -372h-131zM315 607l-32 58l206 125l41 -73z" />
    <glyph glyph-name="Wdieresis" unicode="&#x1e84;" horiz-adv-x="920" 
d="M185 0l-155 700h94l137 -622l147 622h104l146 -621l138 621h94l-155 -700h-142l-133 564l-133 -564h-142zM554 788q-24 0 -40.5 14.5t-16.5 44.5t16.5 44.5t40.5 14.5q25 0 41.5 -14.5t16.5 -44.5t-16.5 -44.5t-41.5 -14.5zM365 788q-24 0 -40.5 14.5t-16.5 44.5
t16.5 44.5t40.5 14.5q25 0 41.5 -14.5t16.5 -44.5t-16.5 -44.5t-41.5 -14.5z" />
    <glyph glyph-name="wdieresis" unicode="&#x1e85;" horiz-adv-x="813" 
d="M185 0l-140 530h97l114 -444l112 444h87l111 -444l115 444h87l-140 -530h-121l-96 372l-95 -372h-131zM501 638q-24 0 -40.5 14.5t-16.5 44.5t16.5 44.5t40.5 14.5q25 0 41.5 -14.5t16.5 -44.5t-16.5 -44.5t-41.5 -14.5zM312 638q-24 0 -40.5 14.5t-16.5 44.5t16.5 44.5
t40.5 14.5q25 0 41.5 -14.5t16.5 -44.5t-16.5 -44.5t-41.5 -14.5z" />
    <glyph glyph-name="Ygrave" unicode="&#x1ef2;" horiz-adv-x="516" 
d="M210 0v260l-195 440h99l144 -339l144 339h99l-195 -440v-260h-96zM349 757l-215 110l41 73l206 -125z" />
    <glyph glyph-name="ygrave" unicode="&#x1ef3;" horiz-adv-x="536" 
d="M149 -235q-43 0 -80.5 20.5t-60.5 42.5l47 60q16 -16 37.5 -29t49.5 -13q31 0 50 18t19 56q0 27 -7 67t-21 81l-148 462h99l139 -460l139 460h89l-201 -626q-25 -78 -61.5 -108.5t-89.5 -30.5zM359 607l-215 110l41 73l206 -125z" />
    <glyph glyph-name="endash" unicode="&#x2013;" horiz-adv-x="696" 
d="M55 266v70h586v-70h-586z" />
    <glyph glyph-name="emdash" unicode="&#x2014;" horiz-adv-x="818" 
d="M55 266v70h708v-70h-708z" />
    <glyph glyph-name="quoteleft" unicode="&#x2018;" horiz-adv-x="236" 
d="M117 515q-29 0 -48 16.5t-19 51.5t13 76.5t34 80t44 64.5l45 -30q-13 -20 -24 -45.5t-11 -49.5q0 -22 8 -35t16 -25.5t8 -35.5q0 -35 -18.5 -51.5t-47.5 -16.5z" />
    <glyph glyph-name="quoteright" unicode="&#x2019;" horiz-adv-x="236" 
d="M119 799q29 0 48 -16.5t19 -51.5t-13 -76.5t-34 -79.5t-44 -65l-45 30q14 20 24.5 45.5t10.5 49.5q0 22 -8 35l-16 26t-8 35q0 35 19 51.5t47 16.5z" />
    <glyph glyph-name="quotesinglbase" unicode="&#x201a;" horiz-adv-x="233" 
d="M92 -168l-45 30q14 20 24.5 45.5t10.5 49.5q0 22 -8 35l-16 26t-8 35q0 35 19 51.5t47 16.5q29 0 48 -16.5t19 -51.5t-13 -76.5t-34 -79.5t-44 -65z" />
    <glyph glyph-name="quotedblleft" unicode="&#x201c;" horiz-adv-x="436" 
d="M317 515q-29 0 -48 16.5t-19 51.5t13 76.5t34 80t44 64.5l45 -30q-13 -20 -24 -45.5t-11 -49.5q0 -22 8 -35t16 -25.5t8 -35.5q0 -35 -18.5 -51.5t-47.5 -16.5zM117 515q-29 0 -48 16.5t-19 51.5t13 76.5t34 80t44 64.5l45 -30q-13 -20 -24 -45.5t-11 -49.5q0 -22 8 -35
t16 -25.5t8 -35.5q0 -35 -18.5 -51.5t-47.5 -16.5z" />
    <glyph glyph-name="quotedblright" unicode="&#x201d;" horiz-adv-x="436" 
d="M119 799q29 0 48 -16.5t19 -51.5t-13 -76.5t-34 -79.5t-44 -65l-45 30q14 20 24.5 45.5t10.5 49.5q0 22 -8 35l-16 26t-8 35q0 35 19 51.5t47 16.5zM319 799q29 0 48 -16.5t19 -51.5t-13 -76.5t-34 -79.5t-44 -65l-45 30q14 20 24.5 45.5t10.5 49.5q0 22 -8 35l-16 26
t-8 35q0 35 19 51.5t47 16.5z" />
    <glyph glyph-name="quotedblbase" unicode="&#x201e;" horiz-adv-x="433" 
d="M116 121q29 0 48 -16.5t19 -51.5t-13 -76.5t-34 -79.5t-44 -65l-45 30q14 20 24.5 45.5t10.5 49.5q0 22 -8 35l-16 26t-8 35q0 35 19 51.5t47 16.5zM316 121q29 0 48 -16.5t19 -51.5t-13 -76.5t-34 -79.5t-44 -65l-45 30q14 20 24.5 45.5t10.5 49.5q0 22 -8 35l-16 26
t-8 35q0 35 19 51.5t47 16.5z" />
    <glyph glyph-name="dagger" unicode="&#x2020;" horiz-adv-x="476" 
d="M190 0v530h-152v76h152v144h96v-144h152v-76h-152v-530h-96z" />
    <glyph glyph-name="daggerdbl" unicode="&#x2021;" horiz-adv-x="476" 
d="M190 0v144h-152v76h152v310h-152v76h152v144h96v-144h152v-76h-152v-310h152v-76h-152v-144h-96z" />
    <glyph glyph-name="bullet" unicode="&#x2022;" horiz-adv-x="387" 
d="M193 206q-40 0 -66.5 23t-26.5 72q0 50 26.5 72.5t66.5 22.5q41 0 67.5 -22.5t26.5 -72.5q0 -49 -26.5 -72t-67.5 -23z" />
    <glyph glyph-name="ellipsis" unicode="&#x2026;" horiz-adv-x="699" 
d="M582 -15q-28 0 -47 16.5t-19 51.5t19 51.5t47 16.5q29 0 48 -16.5t19 -51.5t-19 -51.5t-48 -16.5zM116 -15q-28 0 -47 16.5t-19 51.5t19 51.5t47 16.5q29 0 48 -16.5t19 -51.5t-19 -51.5t-48 -16.5zM349 -15q-28 0 -47 16.5t-19 51.5t19 51.5t47 16.5q29 0 48 -16.5
t19 -51.5t-19 -51.5t-48 -16.5z" />
    <glyph glyph-name="perthousand" unicode="&#x2030;" horiz-adv-x="1259" 
d="M277 -15l242 690h81l-244 -690h-79zM196 253q-67 0 -111.5 53t-44.5 159q0 104 44.5 156.5t111.5 52.5q65 0 110.5 -52.5t45.5 -156.5q0 -106 -45.5 -159t-110.5 -53zM196 317q35 0 58.5 36t23.5 112q0 74 -23.5 110t-58.5 36q-36 0 -59 -36t-23 -110q0 -76 23 -112
t59 -36zM682 -15q-67 0 -111.5 53t-44.5 159q0 104 44.5 156.5t111.5 52.5q65 0 110.5 -52.5t45.5 -156.5q0 -106 -45.5 -159t-110.5 -53zM682 49q35 0 58.5 36t23.5 112q0 74 -23.5 110t-58.5 36q-36 0 -59 -36t-23 -110q0 -76 23 -112t59 -36zM1063 -15q-67 0 -111.5 53
t-44.5 159q0 104 44.5 156.5t111.5 52.5q65 0 110.5 -52.5t45.5 -156.5q0 -106 -45.5 -159t-110.5 -53zM1063 49q35 0 58.5 36t23.5 112q0 74 -23.5 110t-58.5 36q-36 0 -59 -36t-23 -110q0 -76 23 -112t59 -36z" />
    <glyph glyph-name="guilsinglleft" unicode="&#x2039;" horiz-adv-x="298" 
d="M194 121l-144 188v28l144 188l54 -37l-94 -165l94 -165z" />
    <glyph glyph-name="guilsinglright" unicode="&#x203a;" horiz-adv-x="298" 
d="M104 121l-54 37l94 165l-94 165l54 37l144 -188v-28z" />
    <glyph glyph-name="fraction" unicode="&#x2044;" horiz-adv-x="303" 
d="M-10 -15l242 690h81l-244 -690h-79z" />
    <glyph glyph-name="uni2080" unicode="&#x2080;" horiz-adv-x="434" 
d="M217 -209q-67 0 -111.5 53t-44.5 159q0 104 44.5 156.5t111.5 52.5q65 0 110.5 -52.5t45.5 -156.5q0 -106 -45.5 -159t-110.5 -53zM217 -145q35 0 58.5 36t23.5 112q0 74 -23.5 110t-58.5 36q-36 0 -59 -36t-23 -110q0 -76 23 -112t59 -36z" />
    <glyph glyph-name="uni2081" unicode="&#x2081;" horiz-adv-x="349" 
d="M149 -200v290q-27 -19 -65 -32l-23 65q32 9 63 32.5t38 48.5h61v-404h-74z" />
    <glyph glyph-name="uni2082" unicode="&#x2082;" horiz-adv-x="402" 
d="M67 -200v32q0 36 19 65t47 54t56 48.5t47 47t19 50.5q0 23 -16 38t-40 15q-23 0 -39 -13.5t-24 -44.5l-68 18q14 47 45.5 74.5t79.5 27.5q51 0 80.5 -16.5t42.5 -42t13 -51.5q0 -42 -21 -74.5t-51 -59t-59.5 -52t-47.5 -53.5h182v-63h-265z" />
    <glyph glyph-name="uni2083" unicode="&#x2083;" horiz-adv-x="392" 
d="M183 -209q-42 0 -80 22t-52 71l65 22q7 -25 26.5 -38t39.5 -13q32 0 50 13.5t18 38.5q0 26 -18.5 45.5t-62.5 19.5h-45v54h15q42 0 64 12t30 29.5t8 31.5q0 22 -15.5 36.5t-39.5 14.5q-20 0 -35 -13.5t-24 -44.5l-68 19q15 47 47.5 74t75.5 27q52 0 80.5 -16.5t40 -42
t11.5 -51.5t-15 -49t-39 -40q34 -16 50 -44.5t16 -58.5q0 -28 -15.5 -55.5t-47 -45.5t-80.5 -18z" />
    <glyph glyph-name="uni2084" unicode="&#x2084;" horiz-adv-x="396" 
d="M217 -200v83h-182v36l164 285h92v-259h48v-62h-48v-83h-74zM122 -55h95v165q-24 -42 -47 -81.5t-48 -83.5z" />
    <glyph glyph-name="uni2085" unicode="&#x2085;" horiz-adv-x="392" 
d="M183 -209q-42 0 -80 22t-52 71l65 22q7 -25 26.5 -38t39.5 -13q32 0 50 16t18 45t-18.5 51t-62.5 22q-13 0 -29.5 -2.5t-36.5 -8.5l-24 25l4 201h219v-64h-152l-2 -93q20 3 37 3q49 0 80 -19t46 -49t15 -63q0 -32 -15.5 -61.5t-47 -48t-80.5 -18.5z" />
    <glyph glyph-name="uni2086" unicode="&#x2086;" horiz-adv-x="402" 
d="M202 -209q-67 0 -105 50t-38 149q0 110 46.5 166t115.5 56q41 0 70.5 -16.5t48.5 -57.5l-63 -32q-21 43 -56 43q-34 0 -58 -32t-29 -94q18 17 39.5 23.5t44.5 6.5q32 0 61 -13.5t48 -40.5t19 -66q0 -34 -16.5 -67t-48.5 -54t-79 -21zM208 -145q28 0 47 20t19 49t-19 49.5
t-47 20.5t-47.5 -20.5t-19.5 -49.5t19.5 -49t47.5 -20z" />
    <glyph glyph-name="uni2087" unicode="&#x2087;" horiz-adv-x="330" 
d="M63 -200l149 340h-183v64h269v-36l-160 -368h-75z" />
    <glyph glyph-name="uni2088" unicode="&#x2088;" horiz-adv-x="416" 
d="M206 -209q-36 0 -68 12.5t-52 40t-20 71.5q0 21 9 48t39 49q-22 19 -30.5 43.5t-8.5 40.5q0 42 19 67.5t49 37t63 11.5t63 -11.5t49 -37.5t19 -68q0 -16 -8 -40.5t-32 -43.5q30 -22 39.5 -48t9.5 -48q0 -44 -20 -71.5t-51.5 -40t-68.5 -12.5zM206 39q24 0 41 16.5
t17 41.5t-17 42t-41 17q-25 0 -42 -17t-17 -42t17 -41.5t42 -16.5zM206 -148q27 0 45.5 18t18.5 45t-18.5 45.5t-45.5 18.5t-46 -18.5t-19 -45.5t19 -45t46 -18z" />
    <glyph glyph-name="uni2089" unicode="&#x2089;" horiz-adv-x="402" 
d="M182 -209q-40 0 -70.5 17t-50.5 57l64 32q9 -21 25.5 -31.5t32.5 -10.5q34 0 58.5 29.5t30.5 90.5q-35 -30 -88 -30q-42 0 -69.5 19t-41 48t-13.5 59q0 34 16 66.5t47.5 53.5t79.5 21q67 0 105 -50t38 -148q0 -111 -47 -167t-117 -56zM199 5q28 0 47.5 21t19.5 51
t-19.5 51t-47.5 21t-47 -21t-19 -51t19 -51t47 -21z" />
    <glyph glyph-name="franc" unicode="&#x20a3;" horiz-adv-x="490" 
d="M100 0v96h-51v70h51v494h370v-78h-274v-233h244v-78h-244v-105h165v-70h-165v-96h-96z" />
    <glyph glyph-name="lira" unicode="&#x20a4;" horiz-adv-x="566" 
d="M86 0v44q23 26 34.5 57.5t15.5 67.5h-81v70h83q-1 27 -3 53.5t-5 51.5h-75v70h68q-1 16 -2 29t-1 23q0 53 19.5 101t65.5 78t125 30q77 0 123 -39t68 -113l-84 -30q-14 49 -42.5 76.5t-77.5 27.5q-45 0 -73 -30t-28 -101q0 -8 0.5 -21.5t1.5 -30.5h178v-70h-174
q2 -26 3 -53t2 -52h169v-70h-171q-6 -50 -26 -91h317v-78h-430z" />
    <glyph glyph-name="Euro" unicode="&#x20ac;" horiz-adv-x="623" 
d="M311 -15q-88 0 -152 56.5t-87 167.5h-72v70h62q-1 12 -1.5 25.5t-0.5 26.5q0 14 0.5 27t1.5 26h-62v70h72q24 110 88 165.5t151 55.5q86 0 134 -39t70 -113l-84 -30q-14 49 -42.5 76.5t-77.5 27.5q-50 0 -87.5 -35.5t-54.5 -107.5h201v-70h-211q-1 -13 -1.5 -26t-0.5 -27
t0.5 -27t1.5 -25h211v-70h-201q17 -73 54.5 -109.5t87.5 -36.5q49 0 77.5 27.5t42.5 76.5l84 -30q-22 -73 -70 -112.5t-134 -39.5z" />
    <glyph glyph-name="uni2113" unicode="&#x2113;" 
d="M195 -15q-39 0 -67 21t-28 82v572l96 10v-585q0 -16 6.5 -21.5t17.5 -5.5q18 0 36 9l16 -62q-16 -7 -35 -13.5t-42 -6.5z" />
    <glyph glyph-name="trademark" unicode="&#x2122;" horiz-adv-x="835" 
d="M361 272v427h95l95 -261l96 261h93v-427h-73v299l-88 -241h-55l-89 241v-299h-74zM136 272v364h-107v63h288v-63h-107v-364h-74z" />
    <glyph glyph-name="uni2126" unicode="&#x2126;" horiz-adv-x="767" 
d="M88 0v68h140v85q-71 33 -115 98.5t-44 149.5q0 104 42.5 173.5t114.5 105t158 35.5q87 0 158 -35.5t113.5 -105t42.5 -173.5q0 -84 -43.5 -149.5t-114.5 -98.5v-85h140v-68h-216v197q63 20 103.5 74t40.5 140q0 75 -30 126.5t-81 77.5t-113 26t-113 -26t-81.5 -77.5
t-30.5 -126.5q0 -87 40.5 -140.5t104.5 -73.5v-197h-216z" />
    <glyph glyph-name="estimated" unicode="&#x212e;" horiz-adv-x="600" 
d="M302 -17q-82 0 -139.5 37.5t-88 100t-30.5 138.5q0 82 31 144t89 97t138 35q86 0 142 -37t85 -99.5t32 -139.5h-404v-181q62 -59 145 -59q124 0 193 120l35 -21q-34 -46 -66 -76t-70 -44.5t-92 -14.5zM157 295h291v145q-63 60 -147 60q-85 0 -144 -60v-145z" />
    <glyph glyph-name="partialdiff" unicode="&#x2202;" horiz-adv-x="623" 
d="M282 -15q-88 0 -143.5 51.5t-55.5 151.5q0 101 39 169.5t101 103t131 34.5q40 0 73 -16t48 -42l9 3q1 9 1 18.5v16.5q0 34 -7 71t-23.5 69.5t-43.5 52.5t-66 20t-87 -19l-15 62q27 18 58 26t67 8q90 0 146.5 -80t56.5 -237q0 -31 -2.5 -65t-7.5 -72q-17 -123 -58 -194.5
t-98 -101.5t-123 -30zM293 63q85 0 125.5 63t40.5 166q0 59 -26.5 92t-89.5 33q-46 0 -78 -20t-50.5 -53.5t-27 -74.5t-8.5 -83q0 -57 26 -90t88 -33z" />
    <glyph glyph-name="uni2206" unicode="&#x2206;" horiz-adv-x="582" 
d="M15 0l210 700h132l210 -700h-552zM114 68h338l-169 563z" />
    <glyph glyph-name="product" unicode="&#x220f;" horiz-adv-x="686" 
d="M120 -100v722h-80v78h606v-78h-80v-722h-96v722h-254v-722h-96z" />
    <glyph glyph-name="summation" unicode="&#x2211;" horiz-adv-x="520" 
d="M20 -100v44l247 356l-237 356v44h462v-78h-331l206 -308l-17 -28l-214 -308h374v-78h-490z" />
    <glyph glyph-name="minus" unicode="&#x2212;" horiz-adv-x="542" 
d="M80 290v80h382v-80h-382z" />
    <glyph glyph-name="radical" unicode="&#x221a;" horiz-adv-x="537" 
d="M180 -100l-90 435h94l78 -376l188 806h194v-65h-130l-187 -800h-147z" />
    <glyph glyph-name="infinity" unicode="&#x221e;" horiz-adv-x="825" 
d="M218 143q-30 0 -62.5 9.5t-61 31t-46.5 57.5t-18 89t18 89t46.5 57.5t61 31t62.5 9.5q46 0 80 -17t61.5 -44t50.5 -59q24 32 52 59t64 44t81 17q30 0 62.5 -9.5t61 -31t46.5 -57.5t18 -89t-18 -89t-46.5 -57.5t-61 -31t-62.5 -9.5q-68 0 -115 36t-82 84
q-23 -32 -50.5 -59.5t-61.5 -44t-80 -16.5zM211 219q49 0 87.5 32.5t69.5 78.5q-31 46 -69.5 78.5t-87.5 32.5q-44 0 -71 -33.5t-27 -77.5q0 -43 27 -77t71 -34zM609 219q44 0 71 34t27 77q0 44 -27 77.5t-71 33.5q-49 0 -87 -32.5t-70 -78.5q32 -46 70 -78.5t87 -32.5z" />
    <glyph glyph-name="integral" unicode="&#x222b;" horiz-adv-x="427" 
d="M82 -235q-13 0 -26 1.5t-26 3.5l12 84q23 -5 37 -5q41 0 63.5 31.5t22.5 99.5v486q0 95 49.5 152t130.5 57q13 0 26 -1.5t26 -3.5l-12 -84q-23 5 -37 5q-40 0 -63.5 -31.5t-23.5 -99.5v-486q0 -95 -49 -152t-130 -57z" />
    <glyph glyph-name="approxequal" unicode="&#x2248;" horiz-adv-x="542" 
d="M169 359q-24 0 -47 7.5t-42 23.5v80q19 -15 41 -22t46 -7q34 0 66.5 14t65.5 28t68 14q52 0 95 -27v-80q-40 27 -91 27q-36 0 -68 -14.5l-64 -29t-70 -14.5zM169 159q-24 0 -47 7.5t-42 23.5v80q18 -16 40.5 -23.5t46.5 -7.5q35 0 67 15t64.5 30t68.5 15q26 0 50 -7
t45 -22v-80q-40 29 -92 29q-28 0 -52 -9t-47.5 -21t-48 -21t-53.5 -9z" />
    <glyph glyph-name="notequal" unicode="&#x2260;" horiz-adv-x="542" 
d="M80 390v80h382v-80h-382zM80 190v80h382v-80h-382zM135 -15l217 689h56l-218 -689h-55z" />
    <glyph glyph-name="lessequal" unicode="&#x2264;" horiz-adv-x="542" 
d="M462 130l-382 161v78l382 161v-80l-289 -120l289 -120v-80zM80 -10v80h382v-80h-382z" />
    <glyph glyph-name="greaterequal" unicode="&#x2265;" horiz-adv-x="542" 
d="M80 130v80l288 120l-288 120v80l382 -161v-78zM80 -10v80h382v-80h-382z" />
    <glyph glyph-name="lozenge" unicode="&#x25ca;" horiz-adv-x="552" 
d="M210 0l-160 350l160 350h132l160 -350l-160 -350h-132zM283 45l132 288l-147 322l-132 -289z" />
    <glyph glyph-name="uniF8FF" unicode="&#xf8ff;" horiz-adv-x="963" 
d="M436 -114q-10 0 -18 6.5t-16.5 12.5t-20.5 6q-6 0 -12.5 -1t-11.5 -1q-19 0 -30 15.5t-21 20.5q-17 9 -25.5 7.5t-20.5 5.5q-13 8 -16.5 23t-13.5 23t-20.5 10t-18.5 14q-8 14 -7.5 24t-7.5 23q-6 9 -20 19.5t-14 29.5q0 7 1.5 13t1.5 12q0 14 -12.5 26.5t-12.5 28.5
q0 11 6 22t6 22q0 13 -6 22t-6 20q0 16 12.5 31.5t12.5 29.5q0 6 -0.5 12.5t-0.5 12.5q0 19 14 27t21 21q5 8 5.5 21.5t5.5 21.5q6 10 19 13t21 11t12.5 21t12.5 20q10 8 24.5 9.5t26.5 7.5q13 7 21.5 22t27.5 16q6 0 12.5 -1t13.5 -1q13 0 21 6t15.5 11.5t18.5 5.5
q10 0 22 -6t22 -6q11 0 23 6t22 6q13 0 21 -6t16 -12.5t20 -6.5q6 0 13.5 1.5t14.5 1.5q14 0 20.5 -7t12.5 -15.5t15 -13.5q11 -6 23 -6.5t22 -8.5q10 -7 12 -18.5t11 -20.5q11 -10 27 -16t24 -20q5 -7 4 -20.5t3 -21.5q6 -9 14.5 -14.5t15 -13t6.5 -21.5q0 -7 -0.5 -13
t-0.5 -12q0 -19 12 -31.5t12 -29.5q0 -10 -5.5 -19.5t-5.5 -19.5q0 -11 5.5 -22t5.5 -22q-1 -10 -7.5 -16t-12 -12.5t-5.5 -19.5q0 -8 1 -16t1 -16q0 -14 -6.5 -21t-14.5 -11.5t-13 -13.5q-6 -10 -8 -25.5t-10 -25.5q-7 -8 -17 -11t-18 -11q-9 -9 -14.5 -22.5t-15.5 -20.5
t-24 -9.5t-25 -8.5q-13 -7 -19 -18t-26 -11q-6 0 -11.5 0.5t-11.5 0.5h-5t-5 -1q-13 -4 -24 -13.5t-24 -9.5q-11 0 -23 5t-23 5q-12 0 -23.5 -6t-22.5 -6zM446 -15q9 0 18 4.5t18 4.5q8 0 16.5 -3.5t16.5 -3.5q9 0 17 7t18 9q3 1 9 1q4 0 7.5 -0.5t7.5 -0.5q15 0 19.5 8.5
t13.5 12.5q8 5 18 7t17 7q8 5 12 14.5t10 15.5q5 6 13 8t13 8q5 8 7 19t6 19q6 11 15 14t9 21q0 5 -0.5 10.5t-0.5 9.5q0 14 8 20t10 16q0 8 -4 16t-4 16q0 7 4 14t4 14q0 12 -9 22t-9 23q0 4 0.5 8.5t0.5 8.5q0 16 -10 21t-16 15q-3 6 -2.5 15.5t-2.5 15.5
q-6 10 -17.5 14.5t-19.5 11.5q-7 6 -8 14.5t-9 13.5q-7 6 -15.5 6t-17.5 5q-10 5 -14.5 15.5t-19.5 10.5q-5 0 -10 -1t-10 -1q-14 0 -20.5 9t-20.5 9q-8 0 -16.5 -4.5t-16.5 -4.5q-7 0 -15.5 4.5t-16.5 4.5q-12 0 -20 -8.5t-22 -8.5q-4 0 -8 0.5t-9 0.5q-14 0 -20 -11
t-16 -16q-8 -4 -18.5 -5t-17.5 -7q-7 -5 -10 -14.5t-9 -15.5t-15 -8t-14 -9q-4 -6 -4 -15.5t-4 -15.5q-5 -10 -15.5 -16t-10.5 -20q0 -4 0.5 -8t0.5 -8q0 -12 -8.5 -23t-8.5 -23q0 -8 4 -14.5t4 -15.5q0 -8 -4 -16.5t-4 -16.5q0 -11 8.5 -20.5t8.5 -20.5q0 -4 -1 -8t-1 -8
q0 -14 10.5 -21t14.5 -14q6 -10 5.5 -17.5t5.5 -17.5q5 -8 13 -9.5t15 -7.5q8 -6 10 -17t12 -17q8 -6 14 -4t19 -5q8 -4 15.5 -15t21.5 -11q4 0 7.5 0.5t7.5 0.5q14 0 22 -8t18 -10zM482 77q-47 0 -85.5 23t-61.5 61.5t-23 85.5t23 85.5t61.5 61.5t85.5 23t85.5 -23
t61.5 -61.5t23 -85.5t-23 -85.5t-61.5 -61.5t-85.5 -23zM439 117h85v175h53v68h-191v-68h53v-175z" />
    <glyph glyph-name="i.loclTRK" 
d="M100 0v530h96v-530h-96zM147 630q-28 0 -46.5 16.5t-18.5 50.5q0 35 18.5 51t46.5 16q29 0 47.5 -16t18.5 -51q0 -34 -18.5 -50.5t-47.5 -16.5z" />
    <glyph glyph-name="uni030C.alt" horiz-adv-x="0" 
d="M297 678q0 21 -7.5 32.5t-15 23.5t-7.5 33q0 32 17.5 47t43.5 15q27 0 44.5 -15t17.5 -47q0 -30 -12 -65.5t-31.5 -68t-40.5 -55.5l-42 28q13 15 23 34t10 38z" />
    <glyph glyph-name="uni0308.case" horiz-adv-x="0" 
d="M242 788q-24 0 -40.5 14.5t-16.5 44.5t16.5 44.5t40.5 14.5q25 0 41.5 -14.5t16.5 -44.5t-16.5 -44.5t-41.5 -14.5zM53 788q-24 0 -40.5 14.5t-16.5 44.5t16.5 44.5t40.5 14.5q25 0 41.5 -14.5t16.5 -44.5t-16.5 -44.5t-41.5 -14.5z" />
    <glyph glyph-name="uni0307.case" horiz-adv-x="0" 
d="M148 780q-28 0 -46.5 16.5t-18.5 50.5q0 35 18.5 51t46.5 16q29 0 47.5 -16t18.5 -51q0 -34 -18.5 -50.5t-47.5 -16.5z" />
    <glyph glyph-name="gravecomb.case" horiz-adv-x="0" 
d="M335 757l-215 110l41 73l206 -125z" />
    <glyph glyph-name="acutecomb.case" horiz-adv-x="0" 
d="M134 757l-32 58l206 125l41 -73z" />
    <glyph glyph-name="uni030B.case" horiz-adv-x="0" 
d="M256 757l-37 51l162 132l50 -73zM37 757l-37 51l162 132l50 -73z" />
    <glyph glyph-name="uni0302.case" horiz-adv-x="0" 
d="M91 757l-37 51l151 132h26l151 -132l-37 -51l-127 89z" />
    <glyph glyph-name="uni030C.case" horiz-adv-x="0" 
d="M205 754l-151 132l37 51l127 -89l127 89l37 -51l-151 -132h-26z" />
    <glyph glyph-name="uni0306.case" horiz-adv-x="0" 
d="M217 759q-36 0 -65.5 20.5t-52 53.5t-40.5 70l57 27q13 -18 27 -38t33 -34.5t45 -14.5t44 15.5t31.5 36t23.5 35.5l57 -27q-17 -37 -40 -70t-52.5 -53.5t-67.5 -20.5z" />
    <glyph glyph-name="uni030A.case" horiz-adv-x="0" 
d="M148 734q-47 0 -78.5 27.5t-31.5 85.5t31.5 85.5t78.5 27.5q48 0 79.5 -27.5t31.5 -85.5t-31.5 -85.5t-79.5 -27.5zM148 793q23 0 38 13t15 41t-15 41t-38 13q-22 0 -37 -13t-15 -41t15 -41t37 -13z" />
    <glyph glyph-name="tildecomb.case" horiz-adv-x="0" 
d="M345 789q-26 0 -47.5 8.5t-42 17t-46.5 8.5q-14 0 -26 -6t-21 -23l-57 28q19 44 48 63t56 19t48 -8.5l42 -17t46 -8.5q14 0 26 6t22 23l57 -28q-19 -43 -48 -62.5t-57 -19.5z" />
    <glyph glyph-name="uni0304.case" horiz-adv-x="0" 
d="M133 809v75h289v-75h-289z" />
    <glyph glyph-name="dieresis.case" 
d="M242 788q-24 0 -40.5 14.5t-16.5 44.5t16.5 44.5t40.5 14.5q25 0 41.5 -14.5t16.5 -44.5t-16.5 -44.5t-41.5 -14.5zM53 788q-24 0 -40.5 14.5t-16.5 44.5t16.5 44.5t40.5 14.5q25 0 41.5 -14.5t16.5 -44.5t-16.5 -44.5t-41.5 -14.5z" />
    <glyph glyph-name="dotaccent.case" 
d="M148 780q-28 0 -46.5 16.5t-18.5 50.5q0 35 18.5 51t46.5 16q29 0 47.5 -16t18.5 -51q0 -34 -18.5 -50.5t-47.5 -16.5z" />
    <glyph glyph-name="grave.case" horiz-adv-x="419" 
d="M335 757l-215 110l41 73l206 -125z" />
    <glyph glyph-name="acute.case" horiz-adv-x="419" 
d="M134 757l-32 58l206 125l41 -73z" />
    <glyph glyph-name="hungarumlaut.case" horiz-adv-x="431" 
d="M256 757l-37 51l162 132l50 -73zM37 757l-37 51l162 132l50 -73z" />
    <glyph glyph-name="circumflex.case" horiz-adv-x="436" 
d="M91 757l-37 51l151 132h26l151 -132l-37 -51l-127 89z" />
    <glyph glyph-name="caron.case" horiz-adv-x="436" 
d="M205 754l-151 132l37 51l127 -89l127 89l37 -51l-151 -132h-26z" />
    <glyph glyph-name="breve.case" horiz-adv-x="436" 
d="M217 759q-36 0 -65.5 20.5t-52 53.5t-40.5 70l57 27q13 -18 27 -38t33 -34.5t45 -14.5t44 15.5t31.5 36t23.5 35.5l57 -27q-17 -37 -40 -70t-52.5 -53.5t-67.5 -20.5z" />
    <glyph glyph-name="ring.case" 
d="M148 734q-47 0 -78.5 27.5t-31.5 85.5t31.5 85.5t78.5 27.5q48 0 79.5 -27.5t31.5 -85.5t-31.5 -85.5t-79.5 -27.5zM148 793q23 0 38 13t15 41t-15 41t-38 13q-22 0 -37 -13t-15 -41t15 -41t37 -13z" />
    <glyph glyph-name="tilde.case" horiz-adv-x="555" 
d="M345 789q-26 0 -47.5 8.5t-42 17t-46.5 8.5q-14 0 -26 -6t-21 -23l-57 28q19 44 48 63t56 19t48 -8.5l42 -17t46 -8.5q14 0 26 6t22 23l57 -28q-19 -43 -48 -62.5t-57 -19.5z" />
    <glyph glyph-name="macron.case" horiz-adv-x="555" 
d="M133 809v75h289v-75h-289z" />
    <glyph glyph-name="thinslash" horiz-adv-x="382" 
d="M30 -55l256 810h66l-257 -810h-65z" />
    </font>
</defs>
</svg>
